<svg width="54" height="36" viewBox="0 0 54 36" fill="none" xmlns="http://www.w3.org/2000/svg" xmlns:xlink="http://www.w3.org/1999/xlink">
<path d="M49.956,-0.689L4.044,-0.689C1.811,-0.689 0,1.121 0,3.355L0,30.646C0,32.879 1.811,34.69 4.044,34.69L49.956,34.69C52.189,34.69 54,32.879 54,30.646L54,3.355C54,1.121 52.189,-0.689 49.956,-0.689Z" fill="#41479B"/>
<path d="M53.944,2.686C53.625,0.771 51.961,-0.69 49.956,-0.69L48.904,-0.69L31.655,10.611L31.655,-0.69L22.345,-0.69L22.345,10.611L5.096,-0.69L4.044,-0.69C2.038,-0.69 0.375,0.771 0.056,2.686L14.798,12.345L0,12.345L0,21.655L14.798,21.655L0.056,31.314C0.375,33.229 2.038,34.689 4.044,34.689L5.096,34.689L22.345,23.389L22.345,34.689L31.655,34.689L31.655,23.389L48.904,34.689L49.956,34.689C51.961,34.689 53.625,33.229 53.944,31.314L39.202,21.655L54,21.655L54,12.345L39.202,12.345L53.944,2.686Z" fill="#F5F5F5"/>
<path d="M29.793,-0.689L24.207,-0.689L24.207,14.207L0,14.207L0,19.793L24.207,19.793L24.207,34.69L29.793,34.69L29.793,19.793L54,19.793L54,14.207L29.793,14.207L29.793,-0.689Z" fill="#FF4B55"/>
<path d="M2.616,34.429L22.294,21.655L18.874,21.655L0.974,33.275C1.415,33.791 1.98,34.188 2.616,34.429ZM36.534,21.655L33.114,21.655L52.174,34.027C52.708,33.676 53.152,33.203 53.47,32.648L36.534,21.655ZM0.428,1.546L17.063,12.345L20.484,12.345L1.633,0.108C1.124,0.487 0.712,0.979 0.428,1.546ZM35.076,12.345L53.009,0.703C52.563,0.188 51.993,-0.206 51.354,-0.442L31.656,12.345L35.076,12.345Z" fill="#FF4B55"/>
</svg>
