<svg width="50" height="50" viewBox="0 0 50 50" fill="none" xmlns="http://www.w3.org/2000/svg" xmlns:xlink="http://www.w3.org/1999/xlink">
<path d="M24,3.854C30.559,3.854 31.337,3.876 33.929,3.998C36.326,4.106 37.629,4.509 38.493,4.848C39.638,5.294 40.459,5.827 41.316,6.684C42.173,7.541 42.705,8.361 43.152,9.506C43.49,10.37 43.886,11.673 44.001,14.071C44.117,16.663 44.145,17.441 44.145,24C44.145,30.559 44.124,31.337 44.001,33.929C43.893,36.326 43.49,37.629 43.152,38.493C42.705,39.638 42.173,40.459 41.316,41.316C40.459,42.173 39.638,42.705 38.493,43.152C37.629,43.49 36.326,43.886 33.929,44.001C31.337,44.117 30.559,44.145 24,44.145C17.441,44.145 16.663,44.124 14.071,44.001C11.673,43.893 10.37,43.49 9.506,43.152C8.361,42.705 7.541,42.173 6.684,41.316C5.827,40.459 5.294,39.638 4.848,38.493C4.509,37.629 4.113,36.326 3.998,33.929C3.883,31.337 3.854,30.559 3.854,24C3.854,17.441 3.876,16.663 3.998,14.071C4.106,11.673 4.509,10.37 4.848,9.506C5.294,8.361 5.827,7.541 6.684,6.684C7.541,5.827 8.361,5.294 9.506,4.848C10.37,4.509 11.673,4.113 14.071,3.998C16.663,3.876 17.441,3.854 24,3.854ZM24,-0.574C17.325,-0.574 16.49,-0.545 13.869,-0.423C11.256,-0.3 9.47,0.11 7.901,0.722C6.288,1.341 4.913,2.184 3.552,3.552C2.184,4.92 1.349,6.288 0.715,7.908C0.11,9.47 -0.307,11.256 -0.43,13.877C-0.552,16.497 -0.581,17.333 -0.581,24.007C-0.581,30.681 -0.552,31.517 -0.43,34.137C-0.307,36.751 0.103,38.537 0.715,40.106C1.341,41.712 2.184,43.087 3.552,44.448C4.92,45.816 6.288,46.651 7.908,47.285C9.47,47.889 11.256,48.307 13.877,48.429C16.497,48.552 17.333,48.581 24.007,48.581C30.681,48.581 31.517,48.552 34.137,48.429C36.751,48.307 38.537,47.897 40.106,47.285C41.712,46.658 43.087,45.816 44.448,44.448C45.816,43.08 46.651,41.712 47.285,40.092C47.889,38.529 48.307,36.744 48.429,34.123C48.552,31.502 48.581,30.667 48.581,23.993C48.581,17.318 48.552,16.483 48.429,13.862C48.307,11.249 47.897,9.463 47.285,7.893C46.658,6.288 45.816,4.913 44.448,3.552C43.08,2.184 41.712,1.349 40.092,0.715C38.529,0.11 36.744,-0.307 34.123,-0.43C31.509,-0.545 30.674,-0.574 24,-0.574Z" fill="#FFFFFF"/>
<path d="M24,11.378C17.03,11.378 11.378,17.03 11.378,24C11.378,30.97 17.03,36.622 24,36.622C30.969,36.622 36.621,30.97 36.621,24C36.621,17.03 30.969,11.378 24,11.378ZM24,32.194C19.478,32.194 15.806,28.529 15.806,24C15.806,19.471 19.478,15.806 24,15.806C28.521,15.806 32.193,19.471 32.193,24C32.193,28.529 28.521,32.194 24,32.194Z" fill="#FFFFFF"/>
<path d="M37.119,13.834C38.749,13.834 40.071,12.512 40.071,10.882C40.071,9.251 38.749,7.93 37.119,7.93C35.489,7.93 34.167,9.251 34.167,10.882C34.167,12.512 35.489,13.834 37.119,13.834Z" fill="#FFFFFF"/>
</svg>
