<svg width="84" height="84" viewBox="0 0 84 84" fill="none" xmlns="http://www.w3.org/2000/svg" xmlns:xlink="http://www.w3.org/1999/xlink">
<path d="M69.863,51.539L71.984,49.418L71.983,49.417L69.863,51.539ZM72.877,75.699L74.756,78.037C74.841,77.969 74.921,77.897 74.998,77.821L72.877,75.699ZM26.738,57.279L28.859,55.157L28.859,55.157L26.738,57.279ZM8.296,11.136L6.174,9.015C6.098,9.091 6.026,9.172 5.958,9.256L8.296,11.136ZM32.458,14.149L30.337,16.271L30.337,16.271L32.458,14.149ZM38.006,46.011C42.217,50.222 45.899,52.452 49.362,53.301C52.89,54.165 55.785,53.491 58.093,52.743C58.656,52.561 59.205,52.367 59.694,52.196C60.198,52.019 60.647,51.864 61.082,51.73C61.953,51.461 62.636,51.319 63.253,51.303C64.262,51.277 65.638,51.559 67.742,53.661L71.983,49.417C69.007,46.443 66.121,45.225 63.095,45.305C61.695,45.342 60.418,45.655 59.312,45.997C58.758,46.168 58.214,46.357 57.712,46.533C57.195,46.714 56.724,46.88 56.244,47.035C54.383,47.638 52.746,47.952 50.79,47.473C48.769,46.978 46.015,45.534 42.248,41.768L38.006,46.011ZM67.742,53.661C68.996,54.915 70.182,56.042 71.246,57.054C72.322,58.077 73.254,58.966 74.063,59.795C75.735,61.51 76.538,62.645 76.848,63.581C77.085,64.297 77.128,65.176 76.347,66.701C75.502,68.355 73.798,70.536 70.756,73.577L74.998,77.821C78.161,74.659 80.407,71.942 81.69,69.433C83.038,66.796 83.388,64.245 82.544,61.696C81.774,59.368 80.109,57.401 78.359,55.606C77.456,54.681 76.439,53.712 75.381,52.706C74.31,51.688 73.178,50.611 71.984,49.418L67.742,53.661ZM70.998,73.36C70.725,73.579 70.448,73.87 70.337,73.983C70.166,74.158 70.001,74.328 69.804,74.515C69.419,74.881 68.934,75.293 68.316,75.675C67.119,76.415 65.264,77.147 62.422,76.975C56.557,76.62 46.081,72.374 28.859,55.157L24.617,59.4C42.103,76.881 53.92,82.471 62.059,82.964C66.219,83.215 69.293,82.125 71.47,80.779C72.538,80.119 73.351,79.422 73.939,78.863C74.229,78.588 74.469,78.34 74.631,78.175C74.853,77.947 74.834,77.975 74.756,78.037L70.998,73.36ZM28.859,55.157C11.635,37.938 7.384,27.461 7.026,21.594C6.852,18.75 7.583,16.894 8.322,15.697C8.704,15.078 9.115,14.593 9.481,14.208C9.668,14.011 9.837,13.846 10.012,13.675C10.125,13.565 10.415,13.287 10.634,13.016L5.958,9.256C6.02,9.179 6.047,9.161 5.819,9.383C5.654,9.545 5.406,9.785 5.131,10.075C4.572,10.664 3.876,11.477 3.216,12.546C1.872,14.724 0.783,17.799 1.037,21.959C1.534,30.099 7.129,41.917 24.617,59.4L28.859,55.157ZM10.417,13.257C13.467,10.207 15.653,8.499 17.308,7.652C18.835,6.871 19.71,6.915 20.422,7.152C21.356,7.463 22.488,8.267 24.203,9.943C25.032,10.754 25.919,11.687 26.943,12.765C27.955,13.83 29.081,15.016 30.337,16.271L34.579,12.028C33.386,10.835 32.31,9.702 31.293,8.632C30.288,7.574 29.321,6.556 28.397,5.653C26.606,3.902 24.643,2.233 22.315,1.459C19.766,0.611 17.215,0.96 14.576,2.311C12.065,3.595 9.344,5.844 6.174,9.015L10.417,13.257ZM30.337,16.271C32.441,18.375 32.725,19.751 32.699,20.761C32.684,21.379 32.543,22.063 32.275,22.934C32.141,23.37 31.986,23.818 31.81,24.323C31.639,24.812 31.446,25.362 31.264,25.924C30.518,28.234 29.846,31.129 30.712,34.656C31.562,38.12 33.794,41.801 38.006,46.011L42.248,41.768C38.481,38.002 37.036,35.247 36.539,33.226C36.059,31.269 36.372,29.63 36.973,27.768C37.129,27.288 37.294,26.817 37.475,26.3C37.65,25.797 37.839,25.253 38.009,24.699C38.35,23.592 38.662,22.315 38.697,20.914C38.775,17.889 37.555,15.002 34.579,12.028L30.337,16.271Z" fill="#FFFFFF"/>
<path d="M51.986,15.227C50.36,14.911 48.785,15.973 48.469,17.6C48.153,19.226 49.216,20.801 50.842,21.117L51.986,15.227ZM62.469,32.746C62.786,34.372 64.361,35.433 65.988,35.117C67.614,34.8 68.676,33.225 68.359,31.598L62.469,32.746ZM50.842,21.117C56.724,22.259 61.323,26.86 62.469,32.746L68.359,31.598C66.745,23.316 60.272,16.836 51.986,15.227L50.842,21.117Z" fill="#FFFFFF"/>
</svg>
