<svg width="56" height="36" viewBox="0 0 56 36" fill="none" xmlns="http://www.w3.org/2000/svg" xmlns:xlink="http://www.w3.org/1999/xlink">
<path d="M50.956,0.311L5.044,0.311C2.811,0.311 1,2.121 1,4.355L1,12.104L55,12.104L55,4.355C55,2.121 53.189,0.311 50.956,0.311Z" fill="#E92B2B"/>
<path d="M1,31.646C1,33.879 2.811,35.69 5.044,35.69L50.956,35.69C53.189,35.69 55,33.879 55,31.646L55,23.897L1,23.897L1,31.646Z" fill="#464655"/>
<rect  x="1" y="12.104" width="54" height="11.792" fill="#F5F5F5"/>
<path d="M30.973,16.162C30.973,15.7 30.521,15.374 30.083,15.52L29.26,15.795L29.06,14.588C29.003,14.24 28.824,13.924 28.555,13.696C28.287,13.469 27.945,13.344 27.593,13.345L26.823,13.345L26.018,14.336L27.084,14.336L26.786,15.81L25.918,15.52C25.48,15.374 25.027,15.7 25.027,16.162L25.027,21.169L26.226,19.971L25.661,21.665L25.027,21.665L25.027,22.656L30.973,22.656L30.973,21.665L30.339,21.665L29.775,19.971L30.973,21.169L30.973,16.162L30.973,16.162ZM27.505,21.665L26.706,21.665L27.255,20.198L27.505,20.516L27.505,21.665ZM28.496,21.665L28.496,20.516L28.745,20.198L29.294,21.665L28.496,21.665ZM28,19.869C28,19.869 26.467,18.831 26.529,16.896C26.529,16.896 27.474,16.741 28,15.905C28.527,16.741 29.471,16.896 29.471,16.896C29.533,18.831 28,19.869 28,19.869Z" fill="#F0C727"/>
</svg>
