<svg width="56" height="36" viewBox="0 0 56 36" fill="none" xmlns="http://www.w3.org/2000/svg" xmlns:xlink="http://www.w3.org/1999/xlink">
<path d="M50.956,0.311L5.044,0.311C2.811,0.311 1,2.121 1,4.355L1,31.646C1,33.879 2.811,35.69 5.044,35.69L50.956,35.69C53.189,35.69 55,33.879 55,31.646L55,4.355C55,2.121 53.189,0.311 50.956,0.311Z" fill="#41479B"/>
<path d="M54.944,3.686C54.625,1.771 52.961,0.31 50.956,0.31L49.904,0.31L32.655,11.611L32.655,0.31L23.345,0.31L23.345,11.611L6.096,0.31L5.044,0.31C3.038,0.31 1.375,1.771 1.056,3.686L15.798,13.345L1,13.345L1,22.655L15.798,22.655L1.056,32.314C1.375,34.229 3.038,35.689 5.044,35.689L6.096,35.689L23.345,24.389L23.345,35.689L32.655,35.689L32.655,24.389L49.904,35.689L50.956,35.689C52.961,35.689 54.625,34.229 54.944,32.314L40.202,22.655L55,22.655L55,13.345L40.202,13.345L54.944,3.686Z" fill="#F5F5F5"/>
<path d="M30.793,0.311L25.207,0.311L25.207,15.207L1,15.207L1,20.793L25.207,20.793L25.207,35.69L30.793,35.69L30.793,20.793L55,20.793L55,15.207L30.793,15.207L30.793,0.311Z" fill="#FF4B55"/>
<path d="M3.616,35.429L23.294,22.655L19.874,22.655L1.974,34.275C2.415,34.791 2.98,35.188 3.616,35.429ZM37.534,22.655L34.114,22.655L53.174,35.027C53.708,34.676 54.152,34.203 54.47,33.648L37.534,22.655ZM1.428,2.546L18.063,13.345L21.484,13.345L2.633,1.108C2.124,1.487 1.712,1.979 1.428,2.546ZM36.076,13.345L54.009,1.703C53.563,1.188 52.993,0.794 52.354,0.558L32.656,13.345L36.076,13.345Z" fill="#FF4B55"/>
</svg>
