<svg width="48" height="48" viewBox="0 0 48 48" fill="none" xmlns="http://www.w3.org/2000/svg" xmlns:xlink="http://www.w3.org/1999/xlink">
<path d="M45.188,19.781L40.969,19.781C40.192,19.781 39.562,19.058 39.562,18.281L39.562,14.063L8.438,14.063L8.438,18.281C8.438,19.058 7.808,19.781 7.031,19.781L2.813,19.781C1.259,19.781 0,18.428 0,16.875L0,4.219C0,1.889 1.889,0 4.219,0L12.75,0C16.145,0 18.987,2.42 19.641,5.625L43.781,5.625C46.111,5.625 48,7.514 48,9.844L48,16.875C48,18.428 46.741,19.781 45.188,19.781Z" fill="#FFBB33"/>
<path d="M40.969,19.781L45.188,19.781C46.741,19.781 48,18.428 48,16.875L48,9.844C48,7.514 46.111,5.625 43.781,5.625L24,5.625L24,14.063L39.563,14.063L39.563,18.281C39.563,19.058 40.192,19.781 40.969,19.781Z" fill="#FF9933"/>
<path d="M40.969,19.781L7.031,19.781C6.254,19.781 5.625,19.059 5.625,18.281L5.625,12.656C5.625,11.879 6.254,11.25 7.031,11.25L40.969,11.25C41.746,11.25 42.375,11.879 42.375,12.656L42.375,18.281C42.375,19.059 41.746,19.781 40.969,19.781Z" fill="#FFF5F5"/>
<path d="M43.781,48L4.219,48C1.889,48 0,46.111 0,43.781L0,16.875L24.375,16.875L48,43.781C48,46.111 46.111,48 43.781,48Z" fill="#FFE666"/>
<path d="M24,19.781L40.969,19.781C41.746,19.781 42.375,19.059 42.375,18.281L42.375,12.656C42.375,11.879 41.746,11.25 40.969,11.25L24,11.25L24,19.781Z" fill="#EFE2DD"/>
<path d="M48,16.875L24,16.875L24,48L43.781,48C46.111,48 48,46.111 48,43.781L48,16.875Z" fill="#FFBB33"/>
<path d="M32.437,36.75C31.66,36.75 31.031,37.379 31.031,38.156L31.031,39.563L16.969,39.563L16.969,38.156C16.969,37.379 16.34,36.75 15.563,36.75C14.785,36.75 14.156,37.379 14.156,38.156L14.156,40.969C14.156,41.746 14.785,42.375 15.563,42.375L32.437,42.375C33.215,42.375 33.844,41.746 33.844,40.969L33.844,38.156C33.844,37.379 33.215,36.75 32.437,36.75Z" fill="#575F64"/>
<path d="M33.844,40.969L33.844,38.156C33.844,37.379 33.215,36.75 32.438,36.75C31.66,36.75 31.031,37.379 31.031,38.156L31.031,39.563L24,39.563L24,42.375L32.438,42.375C33.215,42.375 33.844,41.746 33.844,40.969Z" fill="#474F54"/>
<path d="M19.369,30.713L22.594,27.489L22.594,35.344C22.594,36.121 23.223,36.75 24,36.75C24.777,36.75 25.406,36.121 25.406,35.344L25.406,27.489L28.631,30.713C29.18,31.262 30.07,31.262 30.619,30.713C31.169,30.164 31.169,29.274 30.619,28.725L24.996,23.101C24.447,22.551 23.55,22.554 23.004,23.101L17.381,28.725C16.831,29.274 16.831,30.164 17.381,30.713C17.93,31.262 18.82,31.262 19.369,30.713L19.369,30.713Z" fill="#575F64"/>
<path d="M25.406,35.344L25.406,27.488L28.631,30.713C29.18,31.262 30.07,31.262 30.619,30.713C31.169,30.164 31.169,29.274 30.619,28.724L24.996,23.101C24.722,22.826 24.361,22.69 24,22.69L24,36.75C24.777,36.75 25.406,36.121 25.406,35.344Z" fill="#474F54"/>
</svg>
