<svg width="98" height="94" viewBox="0 0 98 94" fill="none" xmlns="http://www.w3.org/2000/svg" xmlns:xlink="http://www.w3.org/1999/xlink">
<path d="M62.945,13.676C63.69,14.039 64.587,13.728 64.95,12.983C65.312,12.238 65.001,11.341 64.256,10.978L62.945,13.676ZM56.33,9.659L54.83,9.659C54.83,10.344 55.294,10.942 55.957,11.112L56.33,9.659ZM37.318,9.659L37.689,11.112C38.353,10.943 38.818,10.345 38.818,9.659L37.318,9.659ZM27.267,13.826L26.207,14.887C26.692,15.372 27.444,15.466 28.033,15.116L27.267,13.826ZM24.365,10.924L23.305,11.985L23.305,11.985L24.365,10.924ZM19.332,10.924L20.393,11.985L20.395,11.983L19.332,10.924ZM10.924,19.333L11.983,20.395L11.985,20.393L10.924,19.333ZM10.924,24.366L11.985,23.305L11.983,23.303L10.924,24.366ZM13.826,27.268L15.116,28.034C15.466,27.444 15.371,26.692 14.887,26.208L13.826,27.268ZM9.659,37.319L9.659,38.819C10.344,38.819 10.943,38.354 11.112,37.69L9.659,37.319ZM9.659,56.331L11.112,55.96C10.943,55.296 10.344,54.831 9.659,54.831L9.659,56.331ZM13.826,66.382L14.887,67.443C15.371,66.958 15.466,66.206 15.116,65.616L13.826,66.382ZM10.924,74.317L11.985,73.257L11.983,73.255L10.924,74.317ZM19.332,82.726L20.395,81.667L20.393,81.665L19.332,82.726ZM24.365,82.726L25.426,83.786L25.426,83.786L24.365,82.726ZM27.267,79.824L28.033,78.534C27.444,78.184 26.692,78.278 26.207,78.763L27.267,79.824ZM37.318,83.991L38.818,83.991C38.818,83.306 38.353,82.707 37.689,82.538L37.318,83.991ZM56.33,83.991L55.958,82.538C55.294,82.707 54.83,83.306 54.83,83.991L56.33,83.991ZM66.38,79.824L67.441,78.763C66.956,78.278 66.204,78.184 65.614,78.534L66.38,79.824ZM69.282,82.726L70.345,81.667L70.343,81.665L69.282,82.726ZM74.315,82.726L73.255,81.665L73.253,81.667L74.315,82.726ZM82.724,74.317L81.665,73.255L81.663,73.257L82.724,74.317ZM82.724,69.284L81.663,70.345L81.663,70.345L82.724,69.284ZM79.822,66.382L78.532,65.616C78.182,66.206 78.276,66.958 78.761,67.442L79.822,66.382ZM83.989,56.331L83.989,54.831C83.303,54.831 82.705,55.296 82.535,55.96L83.989,56.331ZM89.621,36.06C88.831,35.808 87.988,36.244 87.736,37.034C87.485,37.823 87.921,38.667 88.71,38.918L89.621,36.06ZM64.256,10.978C61.838,9.803 59.307,8.874 56.702,8.206L55.957,11.112C58.367,11.73 60.708,12.589 62.945,13.676L64.256,10.978ZM57.83,9.659L57.83,5.556L54.83,5.556L54.83,9.659L57.83,9.659ZM57.83,5.556C57.83,2.769 55.55,0.5 52.768,0.5L52.768,3.5C53.899,3.5 54.83,4.431 54.83,5.556L57.83,5.556ZM52.768,0.5L40.879,0.5L40.879,3.5L52.768,3.5L52.768,0.5ZM40.879,0.5C38.091,0.5 35.818,2.77 35.818,5.556L38.818,5.556C38.818,4.43 39.745,3.5 40.879,3.5L40.879,0.5ZM35.818,5.556L35.818,9.659L38.818,9.659L38.818,5.556L35.818,5.556ZM36.946,8.206C33.276,9.144 29.759,10.602 26.502,12.536L28.033,15.116C31.045,13.328 34.296,11.98 37.689,11.112L36.946,8.206ZM28.328,12.766L25.426,9.864L23.305,11.985L26.207,14.887L28.328,12.766ZM25.426,9.864C23.454,7.892 20.239,7.889 18.269,9.866L20.395,11.983C21.189,11.185 22.502,11.182 23.305,11.985L25.426,9.864ZM18.271,9.864L9.863,18.272L11.985,20.393L20.393,11.985L18.271,9.864ZM9.865,18.27C7.89,20.238 7.89,23.46 9.865,25.429L11.983,23.303C11.184,22.508 11.184,21.191 11.983,20.395L9.865,18.27ZM9.863,25.427L12.765,28.329L14.887,26.208L11.985,23.305L9.863,25.427ZM12.536,26.502C10.602,29.76 9.144,33.277 8.206,36.947L11.112,37.69C11.98,34.297 13.328,31.045 15.116,28.034L12.536,26.502ZM9.659,35.819L5.556,35.819L5.556,38.819L9.659,38.819L9.659,35.819ZM5.556,35.819C2.769,35.819 0.5,38.099 0.5,40.88L3.5,40.88C3.5,39.75 4.431,38.819 5.556,38.819L5.556,35.819ZM0.5,40.88L0.5,52.77L3.5,52.77L3.5,40.88L0.5,40.88ZM0.5,52.77C0.5,55.558 2.77,57.831 5.556,57.831L5.556,54.831C4.43,54.831 3.5,53.904 3.5,52.77L0.5,52.77ZM5.556,57.831L9.659,57.831L9.659,54.831L5.556,54.831L5.556,57.831ZM8.206,56.702C9.144,60.373 10.602,63.89 12.536,67.148L15.116,65.616C13.328,62.605 11.98,59.353 11.112,55.96L8.206,56.702ZM12.765,65.321L9.863,68.223L11.985,70.345L14.887,67.443L12.765,65.321ZM9.863,68.223C7.891,70.195 7.889,73.411 9.865,75.38L11.983,73.255C11.185,72.46 11.182,71.147 11.985,70.345L9.863,68.223ZM9.863,75.378L18.271,83.786L20.393,81.665L11.985,73.257L9.863,75.378ZM18.269,83.784C20.239,85.761 23.454,85.758 25.426,83.786L23.305,81.665C22.502,82.468 21.189,82.465 20.395,81.667L18.269,83.784ZM25.426,83.786L28.328,80.884L26.207,78.763L23.305,81.665L25.426,83.786ZM26.502,81.113C29.759,83.048 33.276,84.506 36.947,85.444L37.689,82.538C34.296,81.67 31.045,80.322 28.033,78.534L26.502,81.113ZM35.818,83.991L35.818,88.094L38.818,88.094L38.818,83.991L35.818,83.991ZM35.818,88.094C35.818,90.88 38.091,93.15 40.879,93.15L40.879,90.15C39.745,90.15 38.818,89.22 38.818,88.094L35.818,88.094ZM40.879,93.15L52.768,93.15L52.768,90.15L40.879,90.15L40.879,93.15ZM52.768,93.15C55.55,93.15 57.83,90.882 57.83,88.094L54.83,88.094C54.83,89.219 53.899,90.15 52.768,90.15L52.768,93.15ZM57.83,88.094L57.83,83.991L54.83,83.991L54.83,88.094L57.83,88.094ZM56.701,85.444C60.371,84.506 63.889,83.048 67.146,81.113L65.614,78.534C62.603,80.322 59.351,81.67 55.958,82.538L56.701,85.444ZM65.319,80.884L68.221,83.786L70.343,81.665L67.441,78.763L65.319,80.884ZM68.219,83.784C70.188,85.76 73.41,85.76 75.378,83.784L73.253,81.667C72.457,82.466 71.14,82.466 70.345,81.667L68.219,83.784ZM75.376,83.786L83.784,75.378L81.663,73.257L73.255,81.665L75.376,83.786ZM83.782,75.38C85.759,73.411 85.756,70.195 83.784,68.223L81.663,70.345C82.466,71.147 82.463,72.46 81.665,73.255L83.782,75.38ZM83.784,68.223L80.883,65.321L78.761,67.442L81.663,70.345L83.784,68.223ZM81.112,67.148C83.046,63.89 84.504,60.373 85.442,56.702L82.535,55.96C81.668,59.353 80.32,62.605 78.532,65.616L81.112,67.148ZM83.989,57.831L88.092,57.831L88.092,54.831L83.989,54.831L83.989,57.831ZM88.092,57.831C90.878,57.831 93.147,55.558 93.147,52.77L90.147,52.77C90.147,53.904 89.218,54.831 88.092,54.831L88.092,57.831ZM93.147,52.77L93.147,40.88L90.147,40.88L90.147,52.77L93.147,52.77ZM93.147,40.88C93.147,38.622 91.657,36.709 89.621,36.06L88.71,38.918C89.543,39.184 90.147,39.97 90.147,40.88L93.147,40.88Z" fill="#FFFFFF"/>
<path d="M28.28,68.309C28.908,68.851 29.855,68.781 30.396,68.154C30.937,67.527 30.868,66.58 30.241,66.038L28.28,68.309ZM58.572,24.323C59.306,24.708 60.213,24.425 60.597,23.691C60.982,22.958 60.699,22.051 59.965,21.666L58.572,24.323ZM74.666,41.297C74.505,40.484 73.716,39.955 72.904,40.115C72.091,40.276 71.562,41.065 71.722,41.877L74.666,41.297ZM73.704,46.828L72.204,46.827L72.204,46.828L73.704,46.828ZM34.908,69.241C34.177,68.852 33.269,69.129 32.879,69.86C32.49,70.591 32.767,71.5 33.498,71.889L34.908,69.241ZM30.241,66.038C24.849,61.384 21.443,54.506 21.443,46.828L18.443,46.828C18.443,55.414 22.256,63.109 28.28,68.309L30.241,66.038ZM21.443,46.828C21.443,32.806 32.805,21.444 46.821,21.444L46.821,18.444C31.148,18.444 18.443,31.149 18.443,46.828L21.443,46.828ZM46.821,21.444C51.07,21.444 55.062,22.483 58.572,24.323L59.965,21.666C56.035,19.606 51.565,18.444 46.821,18.444L46.821,21.444ZM71.722,41.877C72.044,43.508 72.205,45.165 72.204,46.827L75.204,46.829C75.205,44.971 75.025,43.119 74.666,41.297L71.722,41.877ZM72.204,46.828C72.204,60.844 60.843,72.206 46.821,72.206L46.821,75.206C62.499,75.206 75.204,62.501 75.204,46.828L72.204,46.828ZM46.821,72.206C42.513,72.206 38.46,71.132 34.908,69.241L33.498,71.889C37.473,74.005 42.009,75.206 46.821,75.206L46.821,72.206Z" fill="#FFFFFF"/>
<path d="M42.751,29.132C42.751,28.304 42.08,27.632 41.251,27.632C40.423,27.632 39.751,28.304 39.751,29.132L42.751,29.132ZM41.251,46.247L41.772,47.653C42.361,47.435 42.751,46.874 42.751,46.247L41.251,46.247ZM38.068,72.211L38.914,70.973L38.912,70.972L38.068,72.211ZM46.821,55.165L46.923,53.669C46.855,53.664 46.787,53.664 46.719,53.669L46.821,55.165ZM55.58,72.211L54.735,70.972L54.734,70.973L55.58,72.211ZM52.396,46.247L50.896,46.247C50.896,46.874 51.287,47.435 51.876,47.653L52.396,46.247ZM53.896,29.132C53.896,28.304 53.225,27.632 52.396,27.632C51.568,27.632 50.896,28.304 50.896,29.132L53.896,29.132ZM39.751,29.132L39.751,46.247L42.751,46.247L42.751,29.132L39.751,29.132ZM40.73,44.84C34.552,47.128 30.115,53.09 30.115,60.05L33.115,60.05C33.115,54.392 36.725,49.522 41.772,47.653L40.73,44.84ZM30.115,60.05C30.115,65.608 32.942,70.532 37.223,73.45L38.912,70.972C35.412,68.585 33.115,64.569 33.115,60.05L30.115,60.05ZM37.221,73.449C38.302,74.189 39.375,74.687 40.4,74.621C40.966,74.585 41.481,74.377 41.895,74.012C42.287,73.665 42.515,73.243 42.65,72.877C42.909,72.177 42.928,71.408 42.917,70.895C42.911,70.619 42.894,70.365 42.879,70.174C42.872,70.072 42.866,70.001 42.862,69.936C42.857,69.866 42.857,69.849 42.857,69.856L39.857,69.856C39.857,70.021 39.877,70.255 39.888,70.394C39.901,70.574 39.913,70.765 39.918,70.962C39.927,71.396 39.89,71.692 39.836,71.837C39.815,71.893 39.823,71.839 39.91,71.762C40.018,71.667 40.141,71.632 40.207,71.627C40.244,71.625 40.167,71.639 39.93,71.545C39.697,71.454 39.364,71.28 38.914,70.973L37.221,73.449ZM42.857,69.856L42.857,61.017L39.857,61.017L39.857,69.856L42.857,69.856ZM42.857,61.017C42.857,58.719 44.664,56.816 46.923,56.662L46.719,53.669C42.899,53.929 39.857,57.129 39.857,61.017L42.857,61.017ZM46.719,56.662C48.979,56.816 50.785,58.719 50.785,61.017L53.785,61.017C53.785,57.129 50.744,53.929 46.923,53.669L46.719,56.662ZM50.785,61.017L50.785,69.856L53.785,69.856L53.785,61.017L50.785,61.017ZM50.785,69.856C50.785,69.849 50.785,69.867 50.78,69.936C50.776,70.002 50.771,70.073 50.763,70.175C50.749,70.367 50.732,70.62 50.726,70.897C50.715,71.41 50.736,72.179 50.996,72.879C51.132,73.245 51.36,73.667 51.753,74.013C52.166,74.377 52.681,74.585 53.247,74.621C54.272,74.687 55.345,74.189 56.427,73.449L54.734,70.973C54.284,71.28 53.951,71.454 53.718,71.545C53.481,71.638 53.403,71.625 53.44,71.627C53.505,71.632 53.628,71.667 53.735,71.761C53.821,71.837 53.829,71.891 53.808,71.835C53.754,71.69 53.716,71.394 53.725,70.96C53.73,70.763 53.742,70.573 53.755,70.393C53.765,70.254 53.785,70.02 53.785,69.856L50.785,69.856ZM56.425,73.45C60.706,70.532 63.533,65.608 63.533,60.05L60.533,60.05C60.533,64.569 58.236,68.585 54.735,70.972L56.425,73.45ZM63.533,60.05C63.533,53.09 59.096,47.128 52.917,44.84L51.876,47.653C56.922,49.522 60.533,54.392 60.533,60.05L63.533,60.05ZM53.896,46.247L53.896,29.132L50.896,29.132L50.896,46.247L53.896,46.247Z" fill="#FFFFFF"/>
<path d="M84.962,55.045C85.693,55.435 86.601,55.158 86.991,54.428C87.381,53.697 87.105,52.788 86.374,52.398L84.962,55.045ZM91.758,56.642C91.208,56.023 90.26,55.967 89.641,56.518C89.022,57.068 88.966,58.017 89.517,58.635L91.758,56.642ZM86.374,52.398C83.644,50.94 80.521,50.111 77.212,50.111L77.212,53.111C80.015,53.111 82.654,53.813 84.962,55.045L86.374,52.398ZM77.212,50.111C66.455,50.111 57.737,58.83 57.737,69.587L60.737,69.587C60.737,60.487 68.112,53.111 77.212,53.111L77.212,50.111ZM57.737,69.587C57.737,80.344 66.455,89.063 77.212,89.063L77.212,86.063C68.112,86.063 60.737,78.687 60.737,69.587L57.737,69.587ZM77.212,89.063C87.969,89.063 96.687,80.344 96.687,69.587L93.687,69.587C93.687,78.687 86.312,86.063 77.212,86.063L77.212,89.063ZM96.687,69.587C96.687,64.617 94.82,60.083 91.758,56.642L89.517,58.635C92.11,61.551 93.687,65.383 93.687,69.587L96.687,69.587Z" fill="#FFFFFF"/>
<path d="M75.166,69.498L76.315,68.534C76.059,68.229 75.691,68.038 75.293,68.004C74.895,67.97 74.5,68.096 74.196,68.354L75.166,69.498ZM80.97,76.419L82.12,75.455L82.119,75.455L80.97,76.419ZM85.78,76.844L86.741,77.995L86.743,77.994L85.78,76.844ZM86.2,72.034L85.05,72.997L85.05,72.997L86.2,72.034ZM78.195,62.482L77.042,63.442L77.046,63.446L78.195,62.482ZM75.867,61.271L75.741,62.765L75.741,62.765L75.867,61.271ZM73.369,62.068L72.401,60.922L72.398,60.924L73.369,62.068ZM68.867,65.889L69.838,67.033L69.838,67.033L68.867,65.889ZM68.469,70.7L67.323,71.667L67.325,71.67L68.469,70.7ZM73.279,71.098L74.249,72.243L74.249,72.242L73.279,71.098ZM74.016,70.462L79.82,77.382L82.119,75.455L76.315,68.534L74.016,70.462ZM79.82,77.382C81.559,79.458 84.661,79.731 86.741,77.995L84.819,75.692C84.006,76.37 82.793,76.26 82.12,75.455L79.82,77.382ZM86.743,77.994C88.82,76.254 89.092,73.15 87.349,71.07L85.05,72.997C85.73,73.809 85.621,75.02 84.817,75.694L86.743,77.994ZM87.349,71.07L79.345,61.519L77.046,63.446L85.05,72.997L87.349,71.07ZM79.348,61.523C78.484,60.484 77.332,59.889 75.994,59.776L75.741,62.765C76.284,62.811 76.695,63.024 77.042,63.442L79.348,61.523ZM75.994,59.776C74.656,59.662 73.428,60.054 72.401,60.922L74.338,63.213C74.757,62.859 75.197,62.719 75.741,62.765L75.994,59.776ZM72.398,60.924L67.897,64.746L69.838,67.033L74.34,63.211L72.398,60.924ZM67.897,64.745C65.829,66.499 65.579,69.602 67.323,71.667L69.615,69.732C68.935,68.927 69.035,67.714 69.838,67.033L67.897,64.745ZM67.325,71.67C69.078,73.737 72.187,73.99 74.249,72.243L72.309,69.954C71.511,70.63 70.294,70.533 69.613,69.729L67.325,71.67ZM74.249,72.242L76.136,70.642L74.196,68.354L72.309,69.954L74.249,72.242Z" fill="#FFFFFF"/>
</svg>
