<svg width="70" height="70" viewBox="0 0 70 70" fill="none" xmlns="http://www.w3.org/2000/svg" xmlns:xlink="http://www.w3.org/1999/xlink">
<path d="M0.493,55.99L3.5,59.999L0.358,67.329C0.265,67.546 0.243,67.786 0.293,68.016C0.343,68.246 0.464,68.455 0.639,68.614C0.813,68.772 1.033,68.872 1.267,68.9C1.501,68.927 1.738,68.881 1.944,68.768L24.609,56.303C24.787,56.206 24.936,56.062 25.039,55.887C25.143,55.713 25.198,55.513 25.198,55.31C25.198,55.107 25.143,54.908 25.039,54.733C24.936,54.558 24.787,54.415 24.609,54.317L1.944,41.852C1.738,41.738 1.501,41.692 1.266,41.719C1.032,41.746 0.812,41.846 0.637,42.005C0.462,42.164 0.341,42.373 0.291,42.603C0.241,42.834 0.265,43.075 0.358,43.291L3.5,50.621L0.493,54.63C0.346,54.826 0.266,55.065 0.266,55.31C0.266,55.555 0.346,55.794 0.493,55.99ZM5.615,60.815L16.254,58.312L3.737,65.196L5.615,60.815ZM16.254,52.308L5.615,49.803L3.737,45.423L16.254,52.308ZM5.261,52.05L19.114,55.31L5.26,58.57L2.816,55.31L5.261,52.05ZM50.128,0.916C40.512,0.916 32.643,8.445 32.053,17.914L29.066,17.914L25.998,14.847L24.396,16.449L25.861,17.914L21.231,17.914C14.669,17.914 9.332,23.252 9.332,29.813C9.332,36.374 14.669,41.712 21.231,41.712L33.793,41.712L36.861,44.779L38.463,43.177L36.998,41.712L58.627,41.712C62.062,41.712 64.859,44.507 64.859,47.944C64.859,51.381 62.062,54.177 58.627,54.177L48.33,54.177L45.263,51.109L43.66,52.712L45.126,54.177L27.463,54.177L27.463,56.443L45.126,56.443L43.66,57.909L45.263,59.511L48.33,56.443L58.627,56.443C63.314,56.443 67.126,52.631 67.126,47.944C67.126,43.257 63.314,39.445 58.627,39.445L36.998,39.445L38.463,37.98L36.861,36.378L33.793,39.445L21.231,39.445C15.919,39.445 11.598,35.124 11.598,29.813C11.598,24.502 15.919,20.181 21.231,20.181L25.861,20.181L24.396,21.646L25.998,23.248L29.066,20.181L32.054,20.181C32.643,29.65 40.512,37.179 50.128,37.179C60.125,37.179 68.259,29.045 68.259,19.047C68.259,9.05 60.125,0.916 50.128,0.916ZM50.128,34.912C41.762,34.912 34.905,28.4 34.319,20.181L37.719,20.181C38.295,26.524 43.636,31.513 50.128,31.513C57,31.513 62.593,25.92 62.593,19.047C62.593,12.174 57,6.582 50.128,6.582C43.636,6.582 38.295,11.57 37.719,17.914L34.319,17.914C34.906,9.695 41.763,3.182 50.128,3.182C58.876,3.182 65.992,10.299 65.992,19.047C65.992,27.796 58.876,34.912 50.128,34.912ZM47.529,23.248L50.929,19.849C51.141,19.636 51.26,19.348 51.26,19.047C51.26,18.747 51.141,18.459 50.929,18.246L47.529,14.847L45.927,16.449L47.392,17.914L39.995,17.914C40.562,12.823 44.886,8.848 50.128,8.848C55.752,8.848 60.326,13.424 60.326,19.047C60.326,24.67 55.752,29.246 50.128,29.246C44.886,29.246 40.561,25.272 39.995,20.181L47.392,20.181L45.927,21.646L47.529,23.248Z" fill="#3A8483"/>
<path d="M56.927,19.048C56.927,15.298 53.878,12.248 50.128,12.248L50.128,14.515C52.628,14.515 54.661,16.548 54.661,19.048C54.661,21.547 52.628,23.58 50.128,23.58L50.128,25.847C53.878,25.847 56.927,22.797 56.927,19.048Z" fill="#3A8483"/>
</svg>
