<svg width="56" height="72" viewBox="0 0 56 72" fill="none" xmlns="http://www.w3.org/2000/svg" xmlns:xlink="http://www.w3.org/1999/xlink">
<path d="M44.875,13.5L4.375,13.5C3.753,13.5 3.25,14.003 3.25,14.625L3.25,70.875C3.25,71.497 3.753,72 4.375,72C4.997,72 5.5,71.497 5.5,70.875L5.5,15.75L43.75,15.75L43.75,70.875C43.75,71.497 44.253,72 44.875,72C45.497,72 46,71.497 46,70.875L46,14.625C46,14.003 45.497,13.5 44.875,13.5Z" fill="#3A8483"/>
<path d="M41.5,16.875L7.75,16.875C7.128,16.875 6.625,17.378 6.625,18L6.625,70.875C6.625,71.497 7.128,72 7.75,72C8.372,72 8.875,71.497 8.875,70.875L8.875,19.125L40.375,19.125L40.375,70.875C40.375,71.497 40.878,72 41.5,72C42.122,72 42.625,71.497 42.625,70.875L42.625,18C42.625,17.378 42.122,16.875 41.5,16.875ZM52.42,36.33C52.316,36.225 52.192,36.142 52.056,36.085C51.919,36.029 51.773,36 51.625,36C51.477,36 51.331,36.029 51.194,36.085C51.058,36.142 50.934,36.225 50.83,36.33L48.58,38.58C48.475,38.684 48.392,38.808 48.335,38.944C48.279,39.081 48.25,39.227 48.25,39.375C48.25,39.523 48.279,39.669 48.335,39.806C48.392,39.942 48.475,40.066 48.58,40.17C48.684,40.275 48.808,40.358 48.944,40.415C49.081,40.471 49.227,40.5 49.375,40.5C49.523,40.5 49.669,40.471 49.806,40.415C49.942,40.358 50.066,40.275 50.17,40.17L52.42,37.92C52.525,37.816 52.608,37.692 52.665,37.556C52.721,37.419 52.75,37.273 52.75,37.125C52.75,36.977 52.721,36.831 52.665,36.694C52.608,36.558 52.525,36.434 52.42,36.33Z" fill="#3A8483"/>
<path d="M54.67,38.58L52.42,36.33C52.316,36.225 52.192,36.142 52.055,36.086C51.919,36.029 51.773,36 51.625,36C51.477,36 51.331,36.029 51.194,36.086C51.058,36.142 50.934,36.225 50.829,36.33C50.725,36.434 50.642,36.558 50.585,36.695C50.529,36.831 50.5,36.977 50.5,37.125C50.5,37.273 50.529,37.419 50.585,37.556C50.642,37.692 50.725,37.816 50.829,37.92L53.079,40.17C53.184,40.275 53.308,40.358 53.444,40.415C53.581,40.471 53.727,40.5 53.875,40.5C54.023,40.5 54.169,40.471 54.305,40.415C54.442,40.358 54.566,40.275 54.67,40.17C54.775,40.066 54.858,39.942 54.914,39.806C54.971,39.669 55,39.523 55,39.375C55,39.227 54.971,39.081 54.914,38.944C54.858,38.808 54.775,38.684 54.67,38.58ZM54.67,45.33C54.566,45.225 54.442,45.142 54.305,45.086C54.169,45.029 54.023,45 53.875,45C53.727,45 53.581,45.029 53.444,45.086C53.308,45.142 53.184,45.225 53.079,45.33L50.829,47.58C50.725,47.684 50.642,47.808 50.585,47.944C50.529,48.081 50.5,48.227 50.5,48.375C50.5,48.523 50.529,48.669 50.585,48.806C50.642,48.942 50.725,49.066 50.829,49.17C50.934,49.275 51.058,49.358 51.194,49.415C51.331,49.471 51.477,49.5 51.625,49.5C51.773,49.5 51.919,49.471 52.055,49.415C52.192,49.358 52.316,49.275 52.42,49.17L54.67,46.92C54.775,46.816 54.858,46.692 54.914,46.556C54.971,46.419 55,46.273 55,46.125C55,45.977 54.971,45.831 54.914,45.694C54.858,45.558 54.775,45.434 54.67,45.33Z" fill="#3A8483"/>
<path d="M52.42,47.58L50.17,45.33C50.066,45.225 49.942,45.142 49.806,45.085C49.669,45.029 49.523,45 49.375,45C49.227,45 49.081,45.029 48.944,45.085C48.808,45.142 48.684,45.225 48.58,45.33C48.475,45.434 48.392,45.558 48.335,45.694C48.279,45.831 48.25,45.977 48.25,46.125C48.25,46.273 48.279,46.419 48.335,46.556C48.392,46.692 48.475,46.816 48.58,46.92L50.83,49.17C50.934,49.275 51.058,49.358 51.194,49.415C51.331,49.471 51.477,49.5 51.625,49.5C51.773,49.5 51.919,49.471 52.056,49.415C52.192,49.358 52.316,49.275 52.42,49.17C52.525,49.066 52.608,48.942 52.665,48.806C52.721,48.669 52.75,48.523 52.75,48.375C52.75,48.227 52.721,48.081 52.665,47.944C52.608,47.808 52.525,47.684 52.42,47.58ZM24.625,16.875C24.003,16.875 23.5,17.378 23.5,18L23.5,70.875C23.5,71.497 24.003,72 24.625,72C25.247,72 25.75,71.497 25.75,70.875L25.75,18C25.75,17.378 25.247,16.875 24.625,16.875Z" fill="#3A8483"/>
<path d="M47.125,69.75L2.125,69.75C1.503,69.75 1,70.253 1,70.875C1,71.497 1.503,72 2.125,72L47.125,72C47.747,72 48.25,71.497 48.25,70.875C48.25,70.253 47.747,69.75 47.125,69.75ZM24.625,0C19.042,0 14.5,4.542 14.5,10.125C14.5,10.747 15.003,11.25 15.625,11.25C16.247,11.25 16.75,10.747 16.75,10.125C16.75,5.784 20.284,2.25 24.625,2.25C28.966,2.25 32.5,5.784 32.5,10.125C32.5,10.747 33.003,11.25 33.625,11.25C34.247,11.25 34.75,10.747 34.75,10.125C34.75,4.542 30.208,0 24.625,0Z" fill="#3A8483"/>
<path d="M33.625,9L15.625,9C15.003,9 14.5,9.503 14.5,10.125C14.5,10.747 15.003,11.25 15.625,11.25L33.625,11.25C34.247,11.25 34.75,10.747 34.75,10.125C34.75,9.503 34.247,9 33.625,9Z" fill="#3A8483"/>
<path d="M24.625,4.5C24.003,4.5 23.5,5.003 23.5,5.625L23.5,10.125C23.5,10.747 24.003,11.25 24.625,11.25C25.247,11.25 25.75,10.747 25.75,10.125L25.75,5.625C25.75,5.003 25.247,4.5 24.625,4.5Z" fill="#3A8483"/>
</svg>
