<svg width="56" height="36" viewBox="0 0 56 36" fill="none" xmlns="http://www.w3.org/2000/svg" xmlns:xlink="http://www.w3.org/1999/xlink">
<path d="M50.956,0.311L5.044,0.311C2.811,0.311 1,2.121 1,4.355L1,31.646C1,33.879 2.811,35.69 5.044,35.69L50.956,35.69C53.189,35.69 55,33.879 55,31.646L55,4.355C55,2.121 53.189,0.311 50.956,0.311Z" fill="#41479B"/>
<path d="M54.944,3.686C54.625,1.771 52.961,0.31 50.956,0.31L49.904,0.31L32.655,11.611L32.655,0.31L23.345,0.31L23.345,11.611L6.096,0.31L5.044,0.31C3.039,0.31 1.375,1.771 1.056,3.686L15.798,13.345L1,13.345L1,22.655L15.798,22.655L1.056,32.314C1.375,34.229 3.039,35.689 5.044,35.689L6.096,35.689L23.345,24.389L23.345,35.689L32.655,35.689L32.655,24.389L49.904,35.689L50.956,35.689C52.961,35.689 54.625,34.229 54.944,32.314L40.202,22.655L55,22.655L55,13.345L40.202,13.345L54.944,3.686Z" fill="#F5F5F5"/>
<path d="M30.793,0.311L25.207,0.311L25.207,15.207L1,15.207L1,20.793L25.207,20.793L25.207,35.69L30.793,35.69L30.793,20.793L55,20.793L55,15.207L30.793,15.207L30.793,0.311Z" fill="#FF4B55"/>
<path d="M3.615,35.429L23.293,22.655L19.873,22.655L1.973,34.275C2.414,34.791 2.979,35.188 3.615,35.429ZM37.533,22.655L34.113,22.655L53.173,35.027C53.707,34.676 54.151,34.203 54.469,33.648L37.533,22.655ZM1.427,2.546L18.062,13.345L21.483,13.345L2.632,1.108C2.123,1.487 1.711,1.979 1.427,2.546ZM36.075,13.345L54.008,1.703C53.562,1.188 52.992,0.794 52.353,0.558L32.655,13.345L36.075,13.345Z" fill="#FF4B55"/>
</svg>
