<svg width="72" height="72" viewBox="0 0 72 72" fill="none" xmlns="http://www.w3.org/2000/svg" xmlns:xlink="http://www.w3.org/1999/xlink">
<path d="M57.431,62.71L54.742,54.643C54.281,53.261 53.457,52.028 52.356,51.073C51.255,50.118 49.918,49.477 48.484,49.217L40.723,47.805L40.723,47.203C42.074,46.419 43.249,45.37 44.185,44.129L46.53,44.129C48.45,44.129 50.014,42.566 50.014,40.645L50.014,26.71C50.014,18.386 43.241,11.613 34.917,11.613C26.593,11.613 19.82,18.386 19.82,26.71L19.82,34.839C19.82,37.078 21.412,38.951 23.523,39.387C24.175,42.725 26.261,45.549 29.11,47.203L29.11,47.805L21.348,49.217C19.915,49.477 18.577,50.118 17.477,51.073C16.376,52.028 15.552,53.261 15.091,54.643L14.627,56.038L10.671,52.083C10.218,51.63 10.218,50.892 10.671,50.439L15.258,45.854L6.649,37.244L1.465,42.428C-0.071,43.963 -0.916,46.005 -0.916,48.176C-0.916,50.348 -0.071,52.388 1.465,53.923L17.159,69.618C18.695,71.153 20.736,72 22.908,72C25.079,72 27.12,71.153 28.619,69.653L34.276,64.47L32.512,62.71L57.431,62.71ZM47.691,40.645C47.691,41.286 47.17,41.806 46.53,41.806L45.553,41.806C45.894,41.03 46.147,40.219 46.31,39.387C46.807,39.284 47.265,39.087 47.691,38.838L47.691,40.645ZM46.53,36.838L46.53,32.839C47.221,33.242 47.691,33.983 47.691,34.839C47.691,35.695 47.221,36.435 46.53,36.838ZM23.304,36.838C22.613,36.435 22.143,35.695 22.143,34.839C22.143,33.983 22.613,33.242 23.304,32.839L23.304,36.838ZM23.304,29.032L23.304,30.358C22.897,30.465 22.506,30.627 22.143,30.839L22.143,26.71C22.143,19.666 27.874,13.935 34.917,13.935C41.96,13.935 47.691,19.666 47.691,26.71L47.691,30.839C47.328,30.626 46.937,30.464 46.53,30.358L46.53,29.032L45.368,29.032C41.934,29.032 38.706,27.694 36.277,25.266L34.917,23.906L33.557,25.266C31.127,27.694 27.899,29.032 24.465,29.032L23.304,29.032ZM25.626,37.161L25.626,31.311C29.114,31.048 32.365,29.609 34.917,27.183C37.468,29.609 40.72,31.049 44.207,31.311L44.207,37.161C44.207,38.854 43.745,40.438 42.951,41.806L34.917,41.806L34.917,44.129L41.041,44.129C39.404,45.57 37.264,46.452 34.917,46.452C29.794,46.452 25.626,42.284 25.626,37.161ZM38.401,48.239L38.401,48.293L34.917,51.777L31.433,48.293L31.433,48.239C32.534,48.585 33.703,48.774 34.917,48.774C36.13,48.774 37.3,48.585 38.401,48.239ZM17.293,55.377C17.622,54.39 18.211,53.509 18.997,52.827C19.783,52.145 20.739,51.686 21.763,51.5L29.88,50.025L34.917,55.061L39.952,50.026L48.068,51.501C49.093,51.687 50.048,52.145 50.834,52.828C51.621,53.51 52.209,54.391 52.538,55.378L54.209,60.387L30.189,60.387L25.666,55.864L20.64,60.41C20.202,60.85 19.437,60.85 18.998,60.41L16.462,57.874L17.293,55.377ZM6.647,40.528L11.973,45.854L10.712,47.115L5.386,41.789L6.647,40.528ZM27.011,67.978C25.914,69.072 24.456,69.677 22.906,69.677C21.355,69.677 19.897,69.072 18.799,67.976L3.104,52.282C2.008,51.186 1.404,49.728 1.404,48.177C1.404,46.626 2.008,45.167 3.104,44.071L3.743,43.432L9.069,48.758L9.027,48.8C7.669,50.158 7.669,52.368 9.027,53.727L17.355,62.055C18.013,62.712 18.887,63.075 19.819,63.075C20.75,63.075 21.625,62.713 22.24,62.095L22.327,62.018L27.677,67.368L27.011,67.978ZM29.391,65.795L24.053,60.457L25.587,59.07L30.916,64.399L29.391,65.795ZM67.433,0L51.175,0C49.254,0 47.691,1.563 47.691,3.484L47.691,12.774C47.691,14.695 49.254,16.258 51.175,16.258L54.277,16.258L53.076,23.262L64.282,16.258L67.433,16.258C69.354,16.258 70.917,14.695 70.917,12.774L70.917,3.484C70.917,1.563 69.354,0 67.433,0ZM68.594,12.774C68.594,13.414 68.073,13.935 67.433,13.935L63.616,13.935L56.24,18.545L57.031,13.935L51.175,13.935C50.535,13.935 50.014,13.414 50.014,12.774L50.014,3.484C50.014,2.844 50.535,2.323 51.175,2.323L67.433,2.323C68.073,2.323 68.594,2.844 68.594,3.484L68.594,12.774Z" fill="#3A8483"/>
<path d="M52.336,4.645L66.272,4.645L66.272,6.968L52.336,6.968L52.336,4.645ZM52.336,9.29L61.627,9.29L61.627,11.613L52.336,11.613L52.336,9.29ZM63.949,9.29L66.272,9.29L66.272,11.613L63.949,11.613L63.949,9.29ZM34.917,3.484C19.744,3.484 6.673,13.98 3.275,28.62L1.075,24.951L-0.917,26.146L3.165,32.948L9.967,28.866L8.772,26.875L5.625,28.763C8.916,15.37 20.959,5.806 34.917,5.806C37.968,5.806 40.978,6.259 43.864,7.154L44.551,4.935C41.442,3.972 38.201,3.484 34.917,3.484ZM70.353,25.713L63.551,21.631L59.47,28.434L61.462,29.629L63.494,26.242C64.564,29.371 65.11,32.645 65.11,36C65.11,42.906 62.718,49.658 58.376,55.01L60.18,56.473C64.857,50.709 67.433,43.437 67.433,36C67.433,32.448 66.861,28.979 65.745,25.657L69.158,27.705L70.353,25.713Z" fill="#3A8483"/>
</svg>
