<svg width="92" height="92" viewBox="0 0 92 92" fill="none" xmlns="http://www.w3.org/2000/svg" xmlns:xlink="http://www.w3.org/1999/xlink">
<path d="M1.3,73.9L5.281,79.207L1.121,88.909C0.999,89.196 0.969,89.514 1.035,89.819C1.102,90.123 1.262,90.4 1.493,90.609C1.724,90.819 2.015,90.951 2.324,90.988C2.634,91.025 2.948,90.964 3.221,90.814L33.221,74.314C33.457,74.185 33.654,73.995 33.791,73.764C33.929,73.533 34.001,73.269 34.001,73C34.001,72.731 33.929,72.467 33.791,72.236C33.654,72.005 33.457,71.815 33.221,71.686L3.221,55.186C2.948,55.035 2.634,54.973 2.324,55.01C2.013,55.046 1.722,55.178 1.491,55.388C1.259,55.598 1.099,55.875 1.033,56.18C0.967,56.486 0.998,56.804 1.121,57.091L5.281,66.793L1.3,72.1C1.105,72.36 1,72.675 1,73C1,73.325 1.105,73.64 1.3,73.9ZM8.08,80.287L22.162,76.973L5.594,86.086L8.08,80.287ZM22.162,69.027L8.08,65.71L5.594,59.913L22.162,69.027ZM7.612,68.685L25.948,73L7.61,77.315L4.375,73L7.612,68.685ZM67,1C54.272,1 43.856,10.966 43.075,23.5L39.121,23.5L35.06,19.439L32.939,21.56L34.879,23.5L28.75,23.5C20.065,23.5 13,30.565 13,39.25C13,47.935 20.065,55 28.75,55L45.379,55L49.439,59.061L51.56,56.939L49.621,55L78.25,55C82.798,55 86.5,58.701 86.5,63.25C86.5,67.799 82.798,71.5 78.25,71.5L64.621,71.5L60.56,67.439L58.439,69.561L60.379,71.5L37,71.5L37,74.5L60.379,74.5L58.439,76.439L60.56,78.561L64.621,74.5L78.25,74.5C84.454,74.5 89.5,69.454 89.5,63.25C89.5,57.046 84.454,52 78.25,52L49.621,52L51.56,50.061L49.439,47.939L45.379,52L28.75,52C21.719,52 16,46.28 16,39.25C16,32.219 21.719,26.5 28.75,26.5L34.879,26.5L32.939,28.439L35.06,30.561L39.121,26.5L43.076,26.5C43.856,39.034 54.272,49 67,49C80.233,49 91,38.233 91,25C91,11.767 80.233,1 67,1ZM67,46C55.927,46 46.85,37.38 46.075,26.5L50.575,26.5C51.337,34.897 58.408,41.5 67,41.5C76.097,41.5 83.5,34.097 83.5,25C83.5,15.903 76.097,8.5 67,8.5C58.408,8.5 51.337,15.103 50.575,23.5L46.075,23.5C46.852,12.62 55.928,4 67,4C78.58,4 88,13.42 88,25C88,36.58 78.58,46 67,46ZM63.56,30.561L68.06,26.061C68.341,25.779 68.499,25.398 68.499,25C68.499,24.602 68.341,24.221 68.06,23.939L63.56,19.439L61.439,21.56L63.379,23.5L53.588,23.5C54.338,16.76 60.062,11.5 67,11.5C74.444,11.5 80.5,17.557 80.5,25C80.5,32.443 74.444,38.5 67,38.5C60.062,38.5 54.337,33.24 53.588,26.5L63.379,26.5L61.439,28.439L63.56,30.561Z" fill="#3A8483"/>
<path d="M76,25C76,20.037 71.963,16 67,16L67,19C70.309,19 73,21.691 73,25C73,28.309 70.309,31 67,31L67,34C71.963,34 76,29.963 76,25Z" fill="#3A8483"/>
</svg>
