<svg width="62" height="98" viewBox="0 0 62 98" fill="none" xmlns="http://www.w3.org/2000/svg" xmlns:xlink="http://www.w3.org/1999/xlink">
<path d="M60.125,2C60.125,1.172 59.453,0.5 58.625,0.5C57.796,0.5 57.125,1.172 57.125,2L60.125,2ZM21.555,42.107C20.726,42.107 20.055,42.778 20.055,43.607C20.055,44.435 20.726,45.107 21.555,45.107L21.555,42.107ZM57.125,2L57.125,39.857L60.125,39.857L60.125,2L57.125,2ZM57.125,39.857C57.125,41.099 56.117,42.107 54.875,42.107L54.875,45.107C57.774,45.107 60.125,42.756 60.125,39.857L57.125,39.857ZM54.875,42.107L21.555,42.107L21.555,45.107L54.875,45.107L54.875,42.107Z" fill="#FFFFFF"/>
<path d="M15.369,96.687C16.198,96.687 16.869,96.016 16.869,95.187C16.869,94.359 16.198,93.687 15.369,93.687L15.369,96.687ZM57.125,47.395C57.125,48.224 57.796,48.895 58.625,48.895C59.453,48.895 60.125,48.224 60.125,47.395L57.125,47.395ZM15.369,93.687L5.75,93.687L5.75,96.687L15.369,96.687L15.369,93.687ZM5.75,93.687C4.507,93.687 3.5,92.68 3.5,91.437L0.5,91.437C0.5,94.337 2.85,96.687 5.75,96.687L5.75,93.687ZM3.5,91.437L3.5,5.75L0.5,5.75L0.5,91.437L3.5,91.437ZM3.5,5.75C3.5,4.508 4.507,3.5 5.75,3.5L5.75,0.5C2.85,0.5 0.5,2.851 0.5,5.75L3.5,5.75ZM5.75,3.5L54.875,3.5L54.875,0.5L5.75,0.5L5.75,3.5ZM54.875,3.5C56.117,3.5 57.125,4.508 57.125,5.75L60.125,5.75C60.125,2.851 57.774,0.5 54.875,0.5L54.875,3.5ZM57.125,5.75L57.125,47.395L60.125,47.395L60.125,5.75L57.125,5.75Z" fill="#FFFFFF"/>
<path d="M45.115,30.256C45.115,22.08 38.487,15.452 30.311,15.452L30.311,18.452C36.83,18.452 42.115,23.737 42.115,30.256L45.115,30.256ZM30.311,15.452C22.135,15.452 15.508,22.08 15.508,30.256L18.508,30.256C18.508,23.737 23.792,18.452 30.311,18.452L30.311,15.452ZM15.508,30.256C15.508,38.432 22.135,45.059 30.311,45.059L30.311,42.059C23.792,42.059 18.508,36.775 18.508,30.256L15.508,30.256ZM30.311,45.059C38.487,45.059 45.115,38.432 45.115,30.256L42.115,30.256C42.115,36.775 36.83,42.059 30.311,42.059L30.311,45.059Z" fill="#FFFFFF"/>
<path d="M29.492,33.625L30.805,32.901L30.805,32.9L29.492,33.625ZM25.43,26.261L26.744,25.537L26.744,25.536L25.43,26.261ZM35.194,26.261L33.881,25.536L33.881,25.537L35.194,26.261ZM31.133,33.625L29.82,32.9L29.82,32.9L31.133,33.625ZM30.805,32.9L26.744,25.537L24.117,26.985L28.178,34.349L30.805,32.9ZM26.744,25.536C26.951,25.911 26.68,26.371 26.251,26.371L26.251,23.371C24.396,23.371 23.221,25.361 24.117,26.985L26.744,25.536ZM26.251,26.371L34.373,26.371L34.373,23.371L26.251,23.371L26.251,26.371ZM34.373,26.371C33.945,26.371 33.674,25.911 33.881,25.536L36.508,26.985C37.404,25.361 36.229,23.371 34.373,23.371L34.373,26.371ZM33.881,25.537L29.82,32.9L32.447,34.349L36.508,26.985L33.881,25.537ZM29.82,32.9C30.033,32.513 30.591,32.512 30.805,32.901L28.178,34.349C29.104,36.03 31.52,36.029 32.447,34.349L29.82,32.9Z" fill="#FFFFFF"/>
<path d="M15.844,63.798C15.67,64.608 16.185,65.406 16.994,65.581C17.804,65.755 18.602,65.24 18.777,64.43L15.844,63.798ZM18.892,69.921C18.682,69.119 17.863,68.639 17.061,68.849C16.26,69.058 15.78,69.877 15.989,70.679L18.892,69.921ZM18.777,64.43C19.924,59.112 24.654,55.127 30.313,55.127L30.313,52.127C23.21,52.127 17.282,57.128 15.844,63.798L18.777,64.43ZM30.313,55.127C36.832,55.127 42.116,60.412 42.116,66.931L45.116,66.931C45.116,58.755 38.489,52.127 30.313,52.127L30.313,55.127ZM42.116,66.931C42.116,73.45 36.832,78.734 30.313,78.734L30.313,81.734C38.489,81.734 45.116,75.106 45.116,66.931L42.116,66.931ZM30.313,78.734C24.829,78.734 20.216,74.993 18.892,69.921L15.989,70.679C17.649,77.038 23.43,81.734 30.313,81.734L30.313,78.734Z" fill="#FFFFFF"/>
<path d="M29.492,63.562L30.805,64.287L30.805,64.287L29.492,63.562ZM25.43,70.926L26.744,71.651L26.744,71.65L25.43,70.926ZM35.194,70.926L33.881,71.65L33.881,71.651L35.194,70.926ZM31.133,63.562L29.82,64.287L29.82,64.287L31.133,63.562ZM28.178,62.838L24.117,70.202L26.744,71.65L30.805,64.287L28.178,62.838ZM24.117,70.202C23.221,71.826 24.396,73.816 26.251,73.816L26.251,70.816C26.68,70.816 26.951,71.276 26.744,71.651L24.117,70.202ZM26.251,73.816L34.373,73.816L34.373,70.816L26.251,70.816L26.251,73.816ZM34.373,73.816C36.229,73.816 37.404,71.826 36.508,70.202L33.881,71.651C33.674,71.276 33.945,70.816 34.373,70.816L34.373,73.816ZM36.508,70.202L32.447,62.838L29.82,64.287L33.881,71.65L36.508,70.202ZM32.447,62.838C31.52,61.158 29.104,61.157 28.178,62.838L30.805,64.287C30.591,64.675 30.033,64.674 29.82,64.287L32.447,62.838Z" fill="#FFFFFF"/>
<line x1="28.24" y1="88.409" x2="32.384" y2="88.409" stroke="#FFFFFF" stroke-width="1.5" stroke-miterlimit="10" stroke-linecap="round" stroke-linejoin="round"/>
<line x1="28.24" y1="11.778" x2="32.384" y2="11.778" stroke="#FFFFFF" stroke-width="1.5" stroke-miterlimit="10" stroke-linecap="round" stroke-linejoin="round"/>
</svg>
