<svg width="98" height="96" viewBox="0 0 98 96" fill="none" xmlns="http://www.w3.org/2000/svg" xmlns:xlink="http://www.w3.org/1999/xlink">
<path d="M94.544,93.092L86.079,93.092L86.079,28.925C86.079,28.733 86.042,28.544 85.969,28.368C85.896,28.191 85.789,28.03 85.654,27.895C85.519,27.76 85.359,27.653 85.182,27.579C85.006,27.506 84.817,27.468 84.626,27.468L11.375,27.468C11.183,27.468 10.994,27.506 10.817,27.579C10.641,27.652 10.48,27.759 10.345,27.895C10.21,28.03 10.103,28.191 10.03,28.367C9.957,28.544 9.919,28.733 9.92,28.925L9.92,93.09L1.455,93.09C1.069,93.09 0.699,93.243 0.426,93.516C0.153,93.789 0,94.159 0,94.545C0,94.931 0.153,95.301 0.426,95.574C0.699,95.847 1.069,96 1.455,96L94.545,96C94.74,96.006 94.934,95.973 95.116,95.903C95.298,95.832 95.464,95.726 95.604,95.59C95.744,95.455 95.855,95.292 95.931,95.113C96.007,94.933 96.046,94.74 96.046,94.545C96.046,94.35 96.007,94.157 95.93,93.977C95.854,93.798 95.743,93.636 95.603,93.5C95.462,93.364 95.296,93.258 95.115,93.188C94.933,93.118 94.738,93.085 94.544,93.092ZM46.547,93.092L20.46,93.092L20.46,36.48L46.548,36.48L46.547,93.092ZM75.542,93.092L49.454,93.092L49.454,36.48L75.543,36.48L75.542,93.092ZM83.171,93.092L78.451,93.092L78.451,35.028C78.451,34.642 78.297,34.272 78.024,33.999C77.751,33.726 77.381,33.572 76.995,33.572L19.005,33.572C18.814,33.572 18.625,33.61 18.448,33.683C18.272,33.756 18.112,33.863 17.977,33.999C17.842,34.134 17.735,34.294 17.662,34.471C17.589,34.648 17.551,34.837 17.552,35.028L17.552,93.092L12.829,93.092L12.829,30.378L83.172,30.378L83.172,93.092L83.171,93.092Z" fill="#FFFFFF"/>
<path d="M26.635,77.687L40.371,77.687C40.757,77.687 41.127,77.533 41.4,77.26C41.673,76.987 41.826,76.617 41.826,76.232C41.826,75.846 41.673,75.476 41.4,75.203C41.127,74.93 40.757,74.777 40.371,74.777L26.635,74.777C26.25,74.777 25.88,74.93 25.607,75.203C25.334,75.476 25.18,75.846 25.18,76.232C25.18,76.617 25.334,76.987 25.607,77.26C25.88,77.533 26.25,77.687 26.635,77.687ZM26.635,83.789L40.371,83.789C40.757,83.789 41.127,83.635 41.4,83.362C41.673,83.089 41.826,82.719 41.826,82.334C41.826,81.948 41.673,81.578 41.4,81.305C41.127,81.032 40.757,80.879 40.371,80.879L26.635,80.879C26.25,80.879 25.88,81.032 25.607,81.305C25.334,81.578 25.18,81.948 25.18,82.334C25.18,82.719 25.334,83.089 25.607,83.362C25.88,83.635 26.25,83.789 26.635,83.789ZM26.635,89.895L40.371,89.895C40.757,89.895 41.127,89.742 41.4,89.469C41.673,89.196 41.826,88.826 41.826,88.44C41.826,88.054 41.673,87.684 41.4,87.411C41.127,87.138 40.757,86.985 40.371,86.985L26.635,86.985C26.25,86.985 25.88,87.138 25.607,87.411C25.334,87.684 25.18,88.054 25.18,88.44C25.18,88.826 25.334,89.196 25.607,89.469C25.88,89.742 26.25,89.895 26.635,89.895ZM55.632,77.687L69.366,77.687C69.752,77.687 70.122,77.533 70.395,77.26C70.668,76.987 70.821,76.617 70.821,76.232C70.821,75.846 70.668,75.476 70.395,75.203C70.122,74.93 69.752,74.777 69.366,74.777L55.632,74.777C55.441,74.777 55.252,74.814 55.075,74.887C54.899,74.96 54.738,75.068 54.603,75.203C54.468,75.338 54.361,75.498 54.288,75.675C54.215,75.851 54.177,76.04 54.177,76.232C54.177,76.423 54.215,76.612 54.288,76.788C54.361,76.965 54.468,77.125 54.603,77.26C54.738,77.395 54.899,77.503 55.075,77.576C55.252,77.649 55.441,77.687 55.632,77.687ZM55.632,83.789L69.366,83.789C69.752,83.789 70.122,83.635 70.395,83.362C70.668,83.089 70.821,82.719 70.821,82.334C70.821,81.948 70.668,81.578 70.395,81.305C70.122,81.032 69.752,80.879 69.366,80.879L55.632,80.879C55.246,80.879 54.876,81.032 54.603,81.305C54.33,81.578 54.177,81.948 54.177,82.334C54.177,82.719 54.33,83.089 54.603,83.362C54.876,83.635 55.246,83.789 55.632,83.789ZM55.632,89.895L69.366,89.895C69.752,89.895 70.122,89.742 70.395,89.469C70.668,89.196 70.821,88.826 70.821,88.44C70.821,88.054 70.668,87.684 70.395,87.411C70.122,87.138 69.752,86.985 69.366,86.985L55.632,86.985C55.441,86.985 55.252,87.023 55.075,87.096C54.899,87.169 54.738,87.276 54.603,87.411C54.468,87.546 54.361,87.707 54.288,87.883C54.215,88.06 54.177,88.249 54.177,88.44C54.177,88.631 54.215,88.82 54.288,88.997C54.361,89.173 54.468,89.334 54.603,89.469C54.738,89.604 54.899,89.711 55.075,89.784C55.252,89.857 55.441,89.895 55.632,89.895ZM9.847,12.829L20.602,12.829L20.602,21.294C20.603,21.68 20.756,22.049 21.029,22.322C21.302,22.594 21.672,22.748 22.057,22.748L73.942,22.748C74.134,22.748 74.323,22.71 74.499,22.637C74.676,22.564 74.837,22.457 74.972,22.322C75.107,22.187 75.214,22.027 75.288,21.851C75.361,21.674 75.399,21.485 75.399,21.294L75.399,12.829L85.389,12.829C85.775,12.829 86.145,12.676 86.418,12.403C86.691,12.13 86.844,11.76 86.844,11.374C86.844,10.989 86.691,10.619 86.418,10.346C86.145,10.073 85.775,9.919 85.389,9.919L75.399,9.919L75.399,1.454C75.399,1.262 75.361,1.073 75.288,0.897C75.214,0.72 75.107,0.56 74.972,0.425C74.837,0.29 74.676,0.183 74.499,0.11C74.323,0.037 74.134,0 73.942,0L22.057,0C21.672,0 21.302,0.153 21.029,0.426C20.756,0.698 20.603,1.068 20.602,1.454L20.602,9.921L9.847,9.921C9.47,9.933 9.112,10.092 8.849,10.363C8.586,10.634 8.439,10.997 8.439,11.375C8.439,11.753 8.586,12.116 8.849,12.387C9.112,12.659 9.47,12.817 9.847,12.829ZM23.511,2.909L72.489,2.909L72.489,19.836L23.511,19.836L23.511,2.909Z" fill="#FFFFFF"/>
<path d="M56.757,11.265L56.324,11.842L56.324,6.538C56.324,6.153 56.17,5.783 55.897,5.51C55.624,5.237 55.254,5.083 54.869,5.083C54.483,5.083 54.113,5.237 53.84,5.51C53.567,5.783 53.414,6.153 53.414,6.538L53.414,11.844L52.977,11.265C52.863,11.112 52.719,10.983 52.555,10.886C52.391,10.788 52.209,10.724 52.019,10.697C51.83,10.67 51.638,10.681 51.453,10.729C51.268,10.777 51.094,10.86 50.942,10.975C50.789,11.09 50.66,11.233 50.563,11.397C50.466,11.561 50.402,11.743 50.375,11.932C50.348,12.12 50.359,12.313 50.407,12.497C50.454,12.682 50.537,12.856 50.652,13.008L53.705,17.077C53.726,17.107 53.76,17.115 53.781,17.142C53.868,17.237 53.968,17.319 54.077,17.388C54.141,17.431 54.197,17.487 54.27,17.52C54.405,17.581 54.552,17.605 54.704,17.622C54.759,17.628 54.809,17.659 54.867,17.659C54.926,17.659 54.975,17.628 55.031,17.622C55.18,17.611 55.326,17.577 55.464,17.52C55.538,17.488 55.593,17.431 55.661,17.388C55.769,17.32 55.867,17.237 55.953,17.142C55.977,17.115 56.009,17.107 56.03,17.077L59.082,13.008C59.196,12.855 59.28,12.682 59.327,12.497C59.374,12.312 59.385,12.12 59.358,11.931C59.331,11.742 59.267,11.56 59.17,11.396C59.072,11.232 58.944,11.088 58.791,10.974C58.638,10.86 58.465,10.776 58.28,10.729C58.095,10.682 57.903,10.671 57.714,10.698C57.525,10.725 57.343,10.789 57.179,10.886C57.015,10.984 56.871,11.112 56.757,11.265ZM42.296,5.668C42.278,5.641 42.246,5.634 42.225,5.61C42.107,5.474 41.965,5.361 41.807,5.275C41.793,5.269 41.784,5.257 41.772,5.251C41.574,5.149 41.356,5.094 41.133,5.091C40.91,5.095 40.692,5.149 40.494,5.251C40.482,5.257 40.473,5.269 40.461,5.275C40.302,5.36 40.16,5.474 40.043,5.61C40.022,5.634 39.99,5.641 39.971,5.668L36.918,9.738C36.804,9.891 36.721,10.065 36.673,10.249C36.626,10.434 36.616,10.627 36.643,10.816C36.67,11.004 36.734,11.186 36.832,11.35C36.929,11.514 37.058,11.658 37.211,11.772C37.519,12.003 37.907,12.102 38.288,12.047C38.67,11.992 39.014,11.788 39.245,11.479L39.678,10.902L39.678,16.204C39.678,16.59 39.831,16.96 40.104,17.233C40.377,17.506 40.747,17.659 41.133,17.659C41.519,17.659 41.889,17.506 42.162,17.233C42.435,16.96 42.588,16.59 42.588,16.204L42.588,10.902L43.023,11.482C43.503,12.127 44.415,12.256 45.059,11.772C45.212,11.658 45.341,11.515 45.438,11.351C45.536,11.187 45.6,11.005 45.627,10.816C45.653,10.627 45.643,10.435 45.595,10.25C45.547,10.065 45.463,9.892 45.348,9.739L42.296,5.668Z" fill="#FFFFFF"/>
</svg>
