<svg width="94" height="92" viewBox="0 0 94 92" fill="none" xmlns="http://www.w3.org/2000/svg" xmlns:xlink="http://www.w3.org/1999/xlink">
<path d="M71.5,19.927L91.354,10L71.5,0.073L71.5,4L43,4L43,7L74.5,7L74.5,4.927L84.646,10L74.5,15.073L74.5,13L31,13L31,16L71.5,16L71.5,19.927Z" fill="#FFFFFF"/>
<path d="M37,4L40,4L40,7L37,7L37,4ZM31,4L34,4L34,7L31,7L31,4ZM52,72.073L32.146,82L52,91.927L52,88L80.5,88L80.5,85L49,85L49,87.073L38.854,82L49,76.927L49,79L92.5,79L92.5,76L52,76L52,72.073Z" fill="#FFFFFF"/>
<path d="M83.5,85L86.5,85L86.5,88L83.5,88L83.5,85ZM89.5,85L92.5,85L92.5,88L89.5,88L89.5,85ZM83.5,58L86.5,58L86.5,61L83.5,61L83.5,58ZM77.5,58L80.5,58L80.5,61L77.5,61L77.5,58ZM71.5,58L74.5,58L74.5,61L71.5,61L71.5,58ZM71.5,52L86.5,52L86.5,55L71.5,55L71.5,52Z" fill="#FFFFFF"/>
<path d="M88,28L52.271,28C46.552,21.322 38.302,17.5 29.5,17.5C12.958,17.5 -0.5,30.958 -0.5,47.5C-0.5,64.042 12.958,77.5 29.5,77.5C38.302,77.5 46.552,73.678 52.271,67L88,67C90.481,67 92.5,64.981 92.5,62.5L92.5,32.5C92.5,30.019 90.481,28 88,28ZM74.5,31L74.5,37L65.5,37L65.5,31L74.5,31ZM49.171,29.029C48.541,29.544 48.055,30.218 47.776,31L39.604,31C38.606,27.021 37.223,23.578 35.473,21.164C40.723,22.355 45.495,25.095 49.171,29.029ZM47.5,61L40.267,61C40.993,57.213 41.403,53.093 41.484,49L47.5,49L47.5,61ZM29.5,74.5C26.965,74.5 24.264,70.544 22.489,64L36.512,64C34.736,70.544 32.035,74.5 29.5,74.5ZM21.772,61C21.061,57.511 20.614,53.457 20.528,49L38.473,49C38.388,53.457 37.939,57.511 37.229,61L21.772,61ZM2.576,49L17.516,49C17.598,53.093 18.007,57.213 18.733,61L6.154,61C4.029,57.339 2.803,53.227 2.576,49ZM29.5,20.5C32.035,20.5 34.736,24.456 36.511,31L22.488,31C24.264,24.456 26.965,20.5 29.5,20.5ZM37.228,34C37.939,37.489 38.386,41.544 38.472,46L20.528,46C20.614,41.544 21.062,37.489 21.772,34L37.228,34ZM17.516,46L2.576,46C2.804,41.773 4.03,37.661 6.154,34L18.733,34C18.007,37.788 17.598,41.906 17.516,46ZM47.5,46L41.484,46C41.403,41.906 40.993,37.788 40.267,34L47.5,34L47.5,46ZM23.506,21.193C21.766,23.605 20.389,27.035 19.396,31L8.176,31C11.998,26.057 17.416,22.591 23.506,21.193ZM8.176,64L19.396,64C20.389,67.965 21.764,71.395 23.506,73.805C17.416,72.409 11.998,68.943 8.176,64ZM35.473,73.835C37.223,71.422 38.606,67.979 39.604,64L47.776,64C48.055,64.782 48.539,65.456 49.171,65.971C45.495,69.905 40.723,72.645 35.473,73.835ZM89.5,62.5C89.5,63.328 88.826,64 88,64L52,64C51.174,64 50.5,63.328 50.5,62.5L50.5,32.5C50.5,31.673 51.174,31 52,31L62.5,31L62.5,40L77.5,40L77.5,31L88,31C88.826,31 89.5,31.673 89.5,32.5L89.5,62.5Z" fill="#FFFFFF"/>
<path d="M23.5,52L26.5,52L26.5,55L23.5,55L23.5,52ZM29.5,52L32.5,52L32.5,55L29.5,55L29.5,52ZM32.5,40L35.5,40L35.5,43L32.5,43L32.5,40ZM26.5,40L29.5,40L29.5,43L26.5,43L26.5,40Z" fill="#FFFFFF"/>
</svg>
