<svg width="54" height="36" viewBox="0 0 54 36" fill="none" xmlns="http://www.w3.org/2000/svg" xmlns:xlink="http://www.w3.org/1999/xlink">
<path d="M49.956,-0.689L4.044,-0.689C1.811,-0.689 0,1.121 0,3.355L0,11.104L54,11.104L54,3.355C54,1.121 52.189,-0.689 49.956,-0.689Z" fill="#E92B2B"/>
<path d="M0,30.646C0,32.879 1.811,34.69 4.044,34.69L49.956,34.69C52.189,34.69 54,32.879 54,30.646L54,22.897L0,22.897L0,30.646Z" fill="#464655"/>
<rect  x="0" y="11.104" width="54" height="11.792" fill="#F5F5F5"/>
<path d="M29.973,15.162C29.973,14.7 29.521,14.374 29.083,14.52L28.26,14.795L28.06,13.588C28.003,13.24 27.824,12.924 27.555,12.696C27.287,12.469 26.945,12.344 26.593,12.345L25.823,12.345L25.018,13.336L26.084,13.336L25.786,14.81L24.918,14.52C24.48,14.374 24.027,14.7 24.027,15.162L24.027,20.169L25.226,18.971L24.661,20.665L24.027,20.665L24.027,21.656L29.973,21.656L29.973,20.665L29.339,20.665L28.775,18.971L29.973,20.169L29.973,15.162L29.973,15.162ZM26.505,20.665L25.706,20.665L26.255,19.198L26.505,19.516L26.505,20.665ZM27.496,20.665L27.496,19.516L27.745,19.198L28.294,20.665L27.496,20.665ZM27,18.869C27,18.869 25.467,17.831 25.529,15.896C25.529,15.896 26.474,15.741 27,14.905C27.527,15.741 28.471,15.896 28.471,15.896C28.533,17.831 27,18.869 27,18.869Z" fill="#F0C727"/>
</svg>
