<svg width="54" height="36" viewBox="0 0 54 36" fill="none" xmlns="http://www.w3.org/2000/svg" xmlns:xlink="http://www.w3.org/1999/xlink">
<path d="M48.956,0.311L3.044,0.311C0.811,0.311 -1,2.121 -1,4.355L-1,31.646C-1,33.879 0.811,35.69 3.044,35.69L48.956,35.69C51.189,35.69 53,33.879 53,31.646L53,4.355C53,2.121 51.189,0.311 48.956,0.311Z" fill="#41479B"/>
<path d="M52.944,3.686C52.625,1.771 50.961,0.31 48.956,0.31L47.904,0.31L30.655,11.611L30.655,0.31L21.345,0.31L21.345,11.611L4.096,0.31L3.044,0.31C1.039,0.31 -0.625,1.771 -0.944,3.686L13.798,13.345L-1,13.345L-1,22.655L13.798,22.655L-0.944,32.314C-0.625,34.229 1.039,35.689 3.044,35.689L4.096,35.689L21.345,24.389L21.345,35.689L30.655,35.689L30.655,24.389L47.904,35.689L48.956,35.689C50.961,35.689 52.625,34.229 52.944,32.314L38.202,22.655L53,22.655L53,13.345L38.202,13.345L52.944,3.686Z" fill="#F5F5F5"/>
<path d="M28.793,0.311L23.207,0.311L23.207,15.207L-1,15.207L-1,20.793L23.207,20.793L23.207,35.69L28.793,35.69L28.793,20.793L53,20.793L53,15.207L28.793,15.207L28.793,0.311Z" fill="#FF4B55"/>
<path d="M1.615,35.429L21.293,22.655L17.873,22.655L-0.027,34.275C0.414,34.791 0.979,35.188 1.615,35.429ZM35.533,22.655L32.113,22.655L51.173,35.027C51.707,34.676 52.151,34.203 52.469,33.648L35.533,22.655ZM-0.573,2.546L16.062,13.345L19.483,13.345L0.632,1.108C0.123,1.487 -0.289,1.979 -0.573,2.546ZM34.075,13.345L52.008,1.703C51.562,1.188 50.992,0.794 50.353,0.558L30.655,13.345L34.075,13.345Z" fill="#FF4B55"/>
</svg>
