<svg width="74" height="72" viewBox="0 0 74 72" fill="none" xmlns="http://www.w3.org/2000/svg" xmlns:xlink="http://www.w3.org/1999/xlink">
<path d="M34.732,19.127C34.732,19.147 34.732,19.167 34.734,19.186C34.764,19.936 35.382,20.533 36.138,20.533C36.895,20.533 37.512,19.936 37.543,19.186C37.544,19.167 37.544,19.147 37.544,19.127C37.544,18.351 36.914,17.721 36.138,17.721C35.362,17.721 34.732,18.351 34.732,19.127L34.732,19.127Z" fill="#FFFFFF"/>
<path d="M71.727,10.839C72.591,9.975 72.01,8.463 70.756,8.441C70.748,8.441 70.74,8.44 70.732,8.44L65.69,8.44L68.914,5.215C69.463,4.667 69.463,3.776 68.914,3.227C68.365,2.677 67.474,2.677 66.925,3.227L63.701,6.451L63.701,1.409C63.701,1.407 63.7,1.405 63.7,1.403C63.696,0.179 62.212,-0.472 61.314,0.402C61.31,0.407 61.305,0.41 61.301,0.414L55.81,5.905C49.969,2.195 42.703,0.003 36.139,0.003C16.76,0.003 0.141,16.605 0.141,36.001C0.141,55.392 16.752,72 36.139,72C55.52,72 72.138,55.396 72.138,36.001C72.138,29.013 70.03,21.884 66.325,16.242L71.726,10.84C71.727,10.84 71.727,10.84 71.727,10.839ZM67.337,11.252L63.872,14.716C63.788,14.755 63.707,14.802 63.629,14.859C63.425,15.007 63.273,15.199 63.176,15.413L58.459,20.13L53.848,20.281L62.877,11.252L67.337,11.252ZM49.089,21.064L48.022,22.13C46.297,20.646 44.302,19.476 42.144,18.733C41.409,18.481 40.609,18.872 40.357,19.606C40.105,20.341 40.495,21.141 41.23,21.393C42.985,21.996 44.611,22.935 46.03,24.122L42.032,28.12C40.338,26.847 38.291,26.158 36.139,26.158C30.712,26.158 26.296,30.573 26.296,36.001C26.296,41.429 30.712,45.844 36.139,45.844C41.567,45.844 45.983,41.429 45.983,36.001C45.983,33.85 45.293,31.803 44.021,30.109L48.018,26.111C50.472,29.046 51.607,32.564 51.607,36.001C51.607,44.543 44.652,51.47 36.139,51.47C27.61,51.47 20.671,44.531 20.671,36.001C20.671,29.023 25.22,23.42 31.054,21.392C31.787,21.136 32.175,20.335 31.92,19.601C31.665,18.868 30.863,18.48 30.13,18.735C22.779,21.293 17.859,28.309 17.859,36.001C17.859,46.081 26.06,54.282 36.139,54.282C46.153,54.282 54.42,46.147 54.42,36.001C54.42,34.164 54.157,32.407 53.615,30.63L53.614,30.63C52.882,28.28 51.731,26.12 50.011,24.118L50.939,23.191L56.876,22.996C59.164,26.719 60.467,31.413 60.467,36.001C60.467,49.188 49.326,60.328 36.139,60.328C22.953,60.328 11.812,49.188 11.812,36.001C11.812,22.814 22.953,11.674 36.139,11.674C40.743,11.674 45.45,12.985 49.181,15.288L49.089,21.064ZM43.17,36.001C43.17,39.878 40.016,43.033 36.139,43.033C32.262,43.033 29.108,39.878 29.108,36.001C29.108,32.124 32.262,28.971 36.139,28.971C37.537,28.971 38.874,29.378 40.015,30.137L35.145,35.007C34.596,35.556 34.596,36.447 35.145,36.996C35.694,37.545 36.585,37.545 37.134,36.996L42.004,32.126C42.763,33.267 43.17,34.604 43.17,36.001L43.17,36.001ZM51.947,18.204C52.01,14.304 51.958,17.554 52.02,13.672L56.971,8.721C56.972,8.72 56.974,8.719 56.975,8.717L60.889,4.804L60.889,9.263L51.947,18.204ZM69.325,36.001C69.325,53.68 53.818,69.188 36.139,69.188C18.46,69.188 2.953,53.68 2.953,36.001C2.953,18.323 18.46,2.815 36.139,2.815C41.993,2.815 48.461,4.714 53.768,7.946L49.629,12.086C49.584,12.131 49.544,12.178 49.507,12.228C45.547,10.073 40.791,8.862 36.139,8.862C21.428,8.862 8.999,21.29 8.999,36.001C8.999,50.713 21.428,63.141 36.139,63.141C50.85,63.141 63.279,50.713 63.279,36.001C63.279,31.351 62.067,26.591 59.913,22.634C59.963,22.596 60.011,22.556 60.055,22.512L64.29,18.277C67.504,23.387 69.325,29.751 69.325,36.001L69.325,36.001Z" fill="#FFFFFF"/>
</svg>
