<svg width="48" height="44" viewBox="0 0 48 44" fill="none" xmlns="http://www.w3.org/2000/svg" xmlns:xlink="http://www.w3.org/1999/xlink">
<path d="M24.269,43.185C24.148,43.185 24.035,43.185 23.932,43.168C23.854,43.168 23.776,43.185 23.698,43.185C21.019,43.185 19.308,41.966 17.64,40.791C16.499,39.97 15.401,39.218 14.139,39.002C13.526,38.898 12.886,38.846 12.307,38.846C11.227,38.846 10.38,39.019 9.766,39.14C9.394,39.218 9.057,39.278 8.807,39.278C8.547,39.278 8.271,39.218 8.141,38.803C8.037,38.449 7.96,38.094 7.882,37.757C7.7,36.893 7.562,36.357 7.19,36.296C2.947,35.631 1.728,34.741 1.451,34.11C1.417,34.015 1.391,33.928 1.391,33.833C1.374,33.583 1.546,33.366 1.788,33.341C8.314,32.26 11.244,25.596 11.365,25.303C11.365,25.285 11.365,25.285 11.382,25.268C11.78,24.464 11.858,23.755 11.616,23.185C11.166,22.139 9.705,21.655 8.746,21.361C8.513,21.284 8.279,21.223 8.115,21.145C6.188,20.393 6.015,19.607 6.093,19.201C6.214,18.518 7.13,18.042 7.864,18.042C8.063,18.042 8.253,18.077 8.392,18.155C9.256,18.552 10.042,18.768 10.717,18.768C11.641,18.768 12.056,18.379 12.108,18.319C12.074,17.869 12.065,17.411 12.03,16.945C11.832,13.859 11.598,10.022 12.566,7.835C15.496,1.284 21.693,0.774 23.526,0.774C23.569,0.774 24.329,0.756 24.329,0.756L24.442,0.756C26.274,0.756 32.488,1.266 35.418,7.835C36.386,10.022 36.162,13.868 35.954,16.945L35.937,17.083C35.902,17.515 35.894,17.93 35.859,18.336C35.902,18.379 36.274,18.734 37.121,18.786C37.769,18.751 38.512,18.552 39.308,18.172C39.541,18.068 39.818,18.034 39.99,18.034C40.267,18.034 40.544,18.077 40.777,18.189L40.794,18.189C41.46,18.423 41.875,18.881 41.892,19.365C41.909,19.814 41.555,20.488 39.852,21.171C39.679,21.232 39.455,21.309 39.221,21.387C38.253,21.698 36.801,22.156 36.352,23.211C36.101,23.781 36.179,24.49 36.585,25.294C36.585,25.311 36.585,25.311 36.602,25.328C36.723,25.605 39.653,32.286 46.179,33.358C46.429,33.401 46.594,33.617 46.576,33.85C46.576,33.946 46.542,34.032 46.516,34.127C46.257,34.758 45.038,35.657 40.777,36.305C40.44,36.348 40.302,36.815 40.086,37.757C40.008,38.094 39.93,38.431 39.826,38.794C39.731,39.105 39.55,39.244 39.221,39.244L39.178,39.244C38.945,39.244 38.642,39.2 38.219,39.123C37.493,38.984 36.689,38.846 35.678,38.846C35.073,38.846 34.459,38.889 33.845,39.002C32.566,39.218 31.486,39.97 30.345,40.791C28.668,41.966 26.94,43.185 24.269,43.185Z" fill="#FFFFFF"/>
<path d="M24.424,0.307L24.32,0.307L23.516,0.307C21.623,0.307 15.158,0.834 12.125,7.662C11.105,9.961 11.355,13.859 11.537,16.988C11.572,17.359 11.58,17.74 11.597,18.111C11.442,18.206 11.148,18.31 10.707,18.31C10.102,18.31 9.394,18.129 8.581,17.74C8.365,17.645 8.114,17.584 7.855,17.584C6.913,17.584 5.789,18.198 5.617,19.122C5.496,19.788 5.789,20.756 7.933,21.603C8.132,21.681 8.365,21.759 8.598,21.836C9.48,22.113 10.82,22.545 11.174,23.392C11.355,23.841 11.278,24.412 10.958,25.086C10.958,25.103 10.941,25.121 10.941,25.129C10.82,25.406 7.993,31.836 1.736,32.873C1.26,32.951 0.906,33.383 0.932,33.876C0.949,34.014 0.975,34.17 1.036,34.308C1.511,35.406 3.49,36.218 7.112,36.771C7.233,36.944 7.362,37.515 7.432,37.869C7.509,38.206 7.587,38.578 7.691,38.949C7.795,39.321 8.08,39.771 8.814,39.771C9.108,39.771 9.463,39.71 9.86,39.615C10.465,39.494 11.295,39.338 12.315,39.338C12.885,39.338 13.49,39.382 14.069,39.494C15.245,39.693 16.23,40.384 17.371,41.205C19.022,42.363 20.871,43.686 23.706,43.686C23.784,43.686 23.862,43.686 23.94,43.669C24.035,43.669 24.156,43.686 24.277,43.686C27.112,43.686 28.961,42.372 30.612,41.205C31.77,40.384 32.755,39.693 33.914,39.494C34.519,39.399 35.098,39.338 35.668,39.338C36.653,39.338 37.423,39.459 38.123,39.598C38.555,39.693 38.909,39.719 39.169,39.719L39.203,39.719L39.238,39.719C39.774,39.719 40.145,39.442 40.301,38.915C40.405,38.543 40.482,38.189 40.56,37.852C40.638,37.497 40.759,36.927 40.88,36.754C44.484,36.201 46.481,35.38 46.956,34.291C47.016,34.153 47.051,33.997 47.06,33.859C47.094,33.366 46.74,32.934 46.256,32.856C39.981,31.819 37.155,25.38 37.051,25.112C37.051,25.095 37.034,25.077 37.034,25.069C36.697,24.395 36.619,23.824 36.818,23.375C37.172,22.528 38.512,22.096 39.393,21.819C39.644,21.741 39.869,21.663 40.059,21.586C41.615,20.972 42.401,20.211 42.384,19.339C42.366,18.647 41.831,18.025 40.984,17.731C40.69,17.61 40.353,17.549 40.024,17.549C39.791,17.549 39.454,17.584 39.143,17.731C38.399,18.085 37.725,18.267 37.155,18.301C36.766,18.284 36.524,18.198 36.386,18.103C36.403,17.783 36.42,17.454 36.446,17.117L36.463,16.979C36.662,13.85 36.913,9.944 35.876,7.653C32.799,0.825 26.334,0.307 24.424,0.307ZM24.424,1.257C26.17,1.257 32.15,1.724 34.968,8.042C35.893,10.125 35.66,13.902 35.461,16.927C35.426,17.403 35.4,17.869 35.383,18.319L35.366,18.5L35.487,18.638C35.53,18.699 36.023,19.192 37.094,19.243L37.112,19.243L37.129,19.243C37.838,19.209 38.641,18.993 39.506,18.595C39.627,18.535 39.8,18.5 39.981,18.5C40.18,18.5 40.396,18.543 40.586,18.604L40.621,18.621C41.087,18.777 41.39,19.088 41.407,19.364C41.407,19.52 41.303,20.073 39.679,20.704C39.523,20.765 39.307,20.825 39.074,20.903C38.028,21.24 36.437,21.733 35.893,23.003C35.582,23.712 35.677,24.542 36.144,25.484C36.325,25.933 39.333,32.683 46.074,33.798C46.074,33.833 46.057,33.859 46.04,33.911C45.936,34.17 45.193,35.112 40.672,35.803C39.964,35.907 39.791,36.711 39.592,37.627C39.514,37.947 39.454,38.293 39.341,38.63C39.307,38.733 39.307,38.733 39.186,38.733L39.143,38.733C38.944,38.733 38.633,38.69 38.278,38.63C37.63,38.509 36.749,38.353 35.642,38.353C35.011,38.353 34.363,38.414 33.732,38.509C32.341,38.742 31.217,39.546 30.033,40.376C28.425,41.499 26.783,42.675 24.251,42.675C24.147,42.675 24.035,42.675 23.931,42.657L23.896,42.657L23.862,42.657L23.68,42.657C21.148,42.657 19.506,41.482 17.898,40.358C16.714,39.511 15.582,38.725 14.199,38.491C13.551,38.388 12.903,38.336 12.289,38.336C11.165,38.336 10.284,38.509 9.653,38.63C9.298,38.707 8.987,38.751 8.788,38.751C8.616,38.751 8.616,38.733 8.59,38.63C8.486,38.293 8.417,37.938 8.339,37.61C8.14,36.685 7.967,35.881 7.259,35.777C2.738,35.086 2.012,34.144 1.891,33.885C1.874,33.841 1.857,33.807 1.857,33.781C8.607,32.675 11.606,25.916 11.788,25.466C12.254,24.524 12.323,23.695 12.038,22.986C11.502,21.724 9.912,21.231 8.858,20.886C8.607,20.808 8.408,20.747 8.253,20.687C6.896,20.151 6.464,19.606 6.524,19.287C6.602,18.898 7.25,18.517 7.82,18.517C7.941,18.517 8.071,18.535 8.14,18.578C9.065,19.01 9.929,19.243 10.673,19.243C11.848,19.243 12.367,18.708 12.427,18.638L12.548,18.5L12.531,18.319C12.496,17.869 12.488,17.411 12.453,16.927C12.272,13.893 12.021,10.125 12.946,8.042C15.755,1.733 21.718,1.257 23.482,1.257L24.285,1.257C24.363,1.257 24.389,1.257 24.424,1.257Z" fill="#000000"/>
</svg>
