<svg width="68" height="72" viewBox="0 0 68 72" fill="none" xmlns="http://www.w3.org/2000/svg" xmlns:xlink="http://www.w3.org/1999/xlink">
<path d="M65.801,55.376L54.483,31.209C54.363,30.958 54.148,30.765 53.886,30.672C53.624,30.578 53.336,30.592 53.084,30.71C52.833,30.828 52.638,31.04 52.542,31.301C52.446,31.562 52.457,31.851 52.572,32.104L63.891,56.27C64.397,57.353 63.929,58.646 62.846,59.153L41.146,69.316C40.063,69.823 38.77,69.355 38.263,68.273L34.206,59.607L44.766,34.129C44.992,33.582 45.102,32.995 45.09,32.404C45.078,31.813 44.944,31.231 44.696,30.694L38.92,18.217L46.407,20.585C46.693,20.676 46.957,20.825 47.182,21.022C47.407,21.22 47.589,21.462 47.716,21.733L50.49,27.653C50.608,27.906 50.823,28.102 51.086,28.197C51.349,28.292 51.639,28.279 51.892,28.16C52.018,28.102 52.13,28.019 52.224,27.916C52.317,27.814 52.389,27.694 52.437,27.564C52.484,27.434 52.505,27.296 52.498,27.157C52.492,27.019 52.459,26.883 52.4,26.758L49.627,20.839C49.376,20.304 49.017,19.826 48.572,19.436C48.127,19.046 47.607,18.753 47.043,18.574L38.013,15.717C39.875,12.998 41.836,9.362 42.511,7.734C44.28,3.465 42.852,1.091 40.926,0.292C38.999,-0.506 36.311,0.162 34.541,4.431C33.78,6.267 33.082,10.265 32.585,13.695C31.982,13.733 31.387,13.861 30.822,14.077L17.161,19.297C16.618,19.505 16.123,19.822 15.707,20.227C15.29,20.632 14.96,21.118 14.736,21.655L0.124,56.91C-0.313,57.966 -0.314,59.128 0.124,60.184C0.56,61.24 1.382,62.062 2.438,62.499L6.711,64.271C6.839,64.324 6.977,64.351 7.115,64.351C7.254,64.351 7.391,64.324 7.519,64.271C7.647,64.218 7.763,64.14 7.861,64.042C7.959,63.944 8.037,63.828 8.09,63.7C8.143,63.572 8.17,63.435 8.17,63.296C8.17,63.158 8.143,63.021 8.09,62.893C8.037,62.765 7.959,62.648 7.861,62.551C7.763,62.453 7.647,62.375 7.519,62.322L3.246,60.55C2.711,60.329 2.294,59.912 2.073,59.377C1.851,58.842 1.851,58.253 2.073,57.718L16.685,22.462C16.798,22.19 16.966,21.944 17.177,21.738C17.388,21.533 17.639,21.373 17.914,21.267L31.575,16.047C31.806,15.959 32.045,15.893 32.288,15.85C32.179,16.685 32.074,17.52 31.976,18.357C31.523,18.383 31.078,18.495 30.667,18.688C29.805,19.092 29.152,19.807 28.828,20.702C28.504,21.597 28.548,22.565 28.951,23.427C29.557,24.719 30.843,25.479 32.184,25.479C32.689,25.479 33.203,25.371 33.69,25.143C34.552,24.739 35.205,24.024 35.529,23.129C35.853,22.234 35.809,21.266 35.406,20.404C35.105,19.763 34.632,19.237 34.04,18.876C34.118,18.205 34.238,17.214 34.39,16.061C35.303,16.417 36.083,17.11 36.522,18.058L42.782,31.58C42.907,31.852 42.975,32.147 42.981,32.447C42.987,32.746 42.931,33.044 42.817,33.321L28.215,68.553C28.106,68.816 27.947,69.055 27.745,69.257C27.544,69.458 27.305,69.618 27.041,69.726C26.778,69.835 26.496,69.892 26.212,69.892C25.927,69.892 25.645,69.835 25.382,69.725L12.332,64.317C12.074,64.213 11.786,64.215 11.53,64.323C11.273,64.43 11.07,64.635 10.964,64.891C10.857,65.148 10.856,65.437 10.961,65.694C11.066,65.951 11.269,66.157 11.524,66.266L24.574,71.674C25.092,71.889 25.646,72 26.206,72C27.885,72 29.482,71.005 30.163,69.36L33.112,62.246L36.353,69.167C37.079,70.718 38.624,71.63 40.233,71.63C40.839,71.63 41.455,71.5 42.04,71.226L63.741,61.064C65.876,60.063 66.8,57.512 65.801,55.376ZM33.546,22.411C33.481,22.59 33.382,22.756 33.253,22.897C33.124,23.038 32.968,23.152 32.795,23.232C32.069,23.572 31.202,23.258 30.862,22.532C30.78,22.36 30.734,22.172 30.725,21.981C30.717,21.791 30.746,21.6 30.811,21.421C30.876,21.241 30.976,21.076 31.104,20.935C31.233,20.794 31.389,20.68 31.562,20.599C31.754,20.508 31.965,20.461 32.178,20.461C32.344,20.461 32.512,20.49 32.673,20.549C32.853,20.613 33.018,20.713 33.159,20.842C33.3,20.97 33.414,21.126 33.495,21.299C33.577,21.472 33.623,21.659 33.632,21.85C33.641,22.041 33.611,22.231 33.546,22.411ZM36.203,14.627C35.731,14.328 35.219,14.095 34.683,13.935C35.159,10.644 35.811,6.878 36.491,5.238C36.969,4.083 38.281,1.48 40.118,2.241C41.956,3.002 41.041,5.771 40.562,6.926C39.913,8.49 38.001,12.027 36.203,14.627Z" fill="#FFFFFF"/>
<path d="M18.714,35.563C20.999,34.347 23.621,34.093 26.098,34.849C30.208,36.104 32.966,39.831 32.962,44.124C32.962,44.262 32.989,44.4 33.042,44.528C33.095,44.656 33.173,44.772 33.271,44.87C33.368,44.968 33.485,45.046 33.613,45.099C33.74,45.152 33.878,45.18 34.016,45.18L34.017,45.18C34.297,45.18 34.565,45.069 34.763,44.871C34.96,44.673 35.072,44.405 35.072,44.126C35.074,41.649 34.269,39.177 32.804,37.165C31.288,35.084 29.182,33.585 26.713,32.832C20.489,30.932 13.881,34.449 11.981,40.673C11.06,43.688 11.369,46.881 12.85,49.663C14.332,52.446 16.807,54.485 19.822,55.406C20.94,55.747 22.101,55.92 23.27,55.921C24.931,55.921 26.573,55.57 28.089,54.891C30.665,53.737 32.742,51.702 33.939,49.161C33.999,49.035 34.032,48.9 34.039,48.761C34.046,48.623 34.025,48.485 33.978,48.354C33.931,48.224 33.859,48.104 33.766,48.002C33.673,47.899 33.56,47.816 33.435,47.757C33.31,47.698 33.174,47.664 33.036,47.658C32.897,47.651 32.759,47.672 32.629,47.719C32.498,47.765 32.378,47.838 32.276,47.931C32.173,48.024 32.09,48.136 32.031,48.262C29.997,52.581 25.013,54.785 20.438,53.388C17.962,52.632 15.929,50.957 14.713,48.672C13.496,46.387 13.243,43.765 13.999,41.289C14.754,38.813 16.429,36.78 18.714,35.563Z" fill="#FFFFFF"/>
<path d="M27.325,41.248C27.202,41.014 27.033,40.807 26.829,40.639C26.625,40.471 26.389,40.345 26.136,40.269L25.657,40.122L25.983,39.056C26.061,38.79 26.031,38.503 25.899,38.259C25.767,38.014 25.544,37.832 25.278,37.751C25.013,37.67 24.726,37.697 24.48,37.826C24.234,37.955 24.049,38.175 23.965,38.44L23.632,39.531C22.227,39.288 20.824,40.123 20.397,41.521C20.286,41.882 20.247,42.262 20.283,42.637C20.32,43.013 20.43,43.378 20.609,43.711C20.785,44.045 21.026,44.34 21.317,44.58C21.609,44.82 21.945,45 22.306,45.109L23.634,45.514C23.73,45.544 23.82,45.591 23.897,45.655C23.975,45.719 24.039,45.798 24.086,45.886C24.133,45.975 24.163,46.072 24.172,46.172C24.182,46.272 24.172,46.373 24.142,46.469C24.113,46.565 24.065,46.654 24.001,46.732C23.937,46.809 23.859,46.873 23.77,46.92C23.682,46.968 23.585,46.997 23.485,47.007C23.385,47.016 23.284,47.006 23.188,46.976L22.524,46.774L21.125,46.347C21.179,46.081 21.129,45.805 20.985,45.576C20.841,45.346 20.615,45.181 20.352,45.114C20.09,45.046 19.812,45.083 19.575,45.215C19.339,45.348 19.163,45.566 19.083,45.825C18.759,46.886 19.359,48.013 20.42,48.337L20.899,48.484L20.574,49.55C20.496,49.816 20.527,50.102 20.659,50.346C20.791,50.59 21.013,50.773 21.279,50.854C21.544,50.935 21.83,50.908 22.076,50.779C22.322,50.65 22.507,50.43 22.591,50.166L22.924,49.076C23.087,49.105 23.251,49.121 23.415,49.121C23.879,49.121 24.34,49.007 24.761,48.782C25.095,48.606 25.391,48.365 25.631,48.074C25.871,47.782 26.05,47.446 26.16,47.085C26.622,45.569 25.766,43.959 24.25,43.497L22.922,43.092C22.826,43.062 22.737,43.015 22.659,42.951C22.582,42.887 22.518,42.808 22.471,42.72C22.423,42.631 22.394,42.534 22.384,42.434C22.375,42.334 22.385,42.233 22.415,42.137C22.474,41.943 22.608,41.781 22.787,41.686C22.966,41.591 23.175,41.57 23.369,41.629L24.032,41.832L24.033,41.832L24.033,41.832L25.432,42.259C25.377,42.525 25.426,42.802 25.57,43.032C25.714,43.262 25.941,43.428 26.204,43.495C26.467,43.562 26.745,43.525 26.982,43.392C27.218,43.259 27.394,43.04 27.474,42.781C27.551,42.528 27.578,42.262 27.553,41.999C27.527,41.736 27.45,41.481 27.325,41.248ZM58.816,55.321L52.066,40.976C51.944,40.726 51.729,40.535 51.468,40.442C51.206,40.35 50.919,40.365 50.668,40.483C50.417,40.601 50.223,40.813 50.127,41.073C50.031,41.334 50.042,41.621 50.157,41.874L56.907,56.219C56.993,56.4 57.128,56.553 57.297,56.661C57.466,56.768 57.662,56.825 57.863,56.825C58.04,56.825 58.215,56.78 58.371,56.694C58.526,56.608 58.658,56.485 58.753,56.335C58.848,56.185 58.903,56.013 58.915,55.836C58.926,55.659 58.892,55.481 58.816,55.321ZM54.1,57.843L47.35,43.498C47.23,43.245 47.016,43.049 46.752,42.954C46.489,42.86 46.199,42.873 45.946,42.992C45.693,43.111 45.498,43.326 45.403,43.589C45.308,43.853 45.322,44.143 45.441,44.396L52.191,58.741C52.277,58.922 52.412,59.075 52.581,59.183C52.75,59.29 52.946,59.347 53.147,59.347C53.324,59.347 53.499,59.302 53.655,59.216C53.81,59.13 53.942,59.007 54.037,58.857C54.132,58.707 54.187,58.535 54.199,58.358C54.21,58.181 54.176,58.003 54.1,57.843Z" fill="#FFFFFF"/>
</svg>
