<svg width="50" height="50" viewBox="0 0 50 50" fill="none" xmlns="http://www.w3.org/2000/svg" xmlns:xlink="http://www.w3.org/1999/xlink">
<path d="M25,49C38.807,49 50,37.807 50,24C50,10.193 38.807,-1 25,-1C11.193,-1 0,10.193 0,24C0,37.807 11.193,49 25,49Z" fill="url(#pf_0_104_927)"/>
<path d="M17.702,21.957C17.862,21.797 18.052,21.67 18.261,21.583C18.47,21.497 18.694,21.452 18.92,21.452C19.147,21.452 19.371,21.497 19.58,21.583C19.789,21.67 19.979,21.797 20.139,21.957L23.277,25.096L23.277,12.498C23.277,12.272 23.322,12.048 23.408,11.839C23.495,11.63 23.622,11.44 23.782,11.28C23.942,11.12 24.132,10.993 24.341,10.907C24.55,10.82 24.774,10.775 25,10.775C25.457,10.775 25.895,10.957 26.218,11.28C26.541,11.603 26.723,12.041 26.723,12.498L26.723,25.096L29.861,21.957C30.021,21.796 30.212,21.669 30.421,21.582C30.631,21.495 30.855,21.45 31.082,21.45C31.309,21.45 31.533,21.495 31.743,21.582C31.952,21.669 32.143,21.796 32.303,21.957L32.326,21.979C32.486,22.139 32.613,22.329 32.7,22.538C32.786,22.747 32.831,22.971 32.831,23.198C32.831,23.424 32.786,23.648 32.7,23.857C32.613,24.066 32.486,24.256 32.326,24.416L26.223,30.519C26.063,30.679 25.873,30.805 25.664,30.892C25.455,30.979 25.231,31.023 25.005,31.023C24.779,31.023 24.555,30.979 24.346,30.892C24.137,30.805 23.947,30.679 23.787,30.519L17.676,24.416C17.353,24.093 17.172,23.655 17.172,23.198C17.172,22.741 17.353,22.303 17.676,21.979L17.702,21.957Z" fill="#FFFFFF"/>
<path d="M36.754,27.983C36.297,27.983 35.859,28.165 35.536,28.488C35.213,28.811 35.031,29.249 35.031,29.706L35.031,33.779L14.969,33.779L14.969,29.706C14.969,29.48 14.924,29.256 14.838,29.047C14.751,28.838 14.624,28.648 14.464,28.488C14.304,28.328 14.114,28.201 13.905,28.115C13.696,28.028 13.472,27.983 13.246,27.983C12.789,27.983 12.351,28.165 12.028,28.488C11.705,28.811 11.523,29.249 11.523,29.706L11.523,34.286C11.539,35.061 11.854,35.799 12.401,36.347C12.949,36.894 13.688,37.209 14.462,37.225L35.538,37.225C36.312,37.209 37.051,36.894 37.598,36.347C38.146,35.799 38.461,35.061 38.477,34.286L38.477,29.706C38.477,29.249 38.295,28.811 37.972,28.488C37.649,28.165 37.211,27.983 36.754,27.983Z" fill="#FFFFFF"/>
<defs>
<linearGradient id="pf_0_104_927" x1="7.322" y1="6.322" x2="42.678" y2="41.678" gradientUnits="userSpaceOnUse">
<stop stop-color="#3A8483"/>
<stop offset="1" stop-color="#539392"/>
</linearGradient>
</defs>
</svg>
