<svg width="50" height="52" viewBox="0 0 50 52" fill="none" xmlns="http://www.w3.org/2000/svg" xmlns:xlink="http://www.w3.org/1999/xlink">
<path d="M25,51C38.807,51 50,39.807 50,26C50,12.193 38.807,1 25,1C11.193,1 0,12.193 0,26C0,39.807 11.193,51 25,51Z" fill="url(#pf_0_102_1377)"/>
<path d="M17.702,23.957C17.862,23.797 18.052,23.67 18.261,23.583C18.47,23.497 18.694,23.452 18.92,23.452C19.147,23.452 19.371,23.497 19.58,23.583C19.789,23.67 19.979,23.797 20.139,23.957L23.277,27.096L23.277,14.498C23.277,14.272 23.322,14.048 23.408,13.839C23.495,13.63 23.622,13.44 23.782,13.28C23.942,13.12 24.132,12.993 24.341,12.907C24.55,12.82 24.774,12.775 25,12.775C25.457,12.775 25.895,12.957 26.218,13.28C26.541,13.603 26.723,14.041 26.723,14.498L26.723,27.096L29.861,23.957C30.021,23.796 30.212,23.669 30.421,23.582C30.631,23.495 30.855,23.45 31.082,23.45C31.309,23.45 31.533,23.495 31.743,23.582C31.952,23.669 32.143,23.796 32.303,23.957L32.326,23.979C32.486,24.139 32.613,24.329 32.7,24.538C32.786,24.747 32.831,24.971 32.831,25.198C32.831,25.424 32.786,25.648 32.7,25.857C32.613,26.066 32.486,26.256 32.326,26.416L26.223,32.519C26.063,32.679 25.873,32.805 25.664,32.892C25.455,32.979 25.231,33.023 25.005,33.023C24.779,33.023 24.555,32.979 24.346,32.892C24.137,32.805 23.947,32.679 23.787,32.519L17.676,26.416C17.353,26.093 17.172,25.655 17.172,25.198C17.172,24.741 17.353,24.303 17.676,23.979L17.702,23.957Z" fill="#FFFFFF"/>
<path d="M36.754,29.983C36.297,29.983 35.859,30.165 35.536,30.488C35.213,30.811 35.031,31.249 35.031,31.706L35.031,35.779L14.969,35.779L14.969,31.706C14.969,31.48 14.924,31.256 14.838,31.047C14.751,30.838 14.624,30.648 14.464,30.488C14.304,30.328 14.114,30.201 13.905,30.115C13.696,30.028 13.472,29.983 13.246,29.983C12.789,29.983 12.351,30.165 12.028,30.488C11.705,30.811 11.523,31.249 11.523,31.706L11.523,36.286C11.539,37.061 11.854,37.799 12.401,38.347C12.949,38.894 13.688,39.209 14.462,39.225L35.538,39.225C36.312,39.209 37.051,38.894 37.598,38.347C38.146,37.799 38.461,37.061 38.477,36.286L38.477,31.706C38.477,31.249 38.295,30.811 37.972,30.488C37.649,30.165 37.211,29.983 36.754,29.983Z" fill="#FFFFFF"/>
<defs>
<linearGradient id="pf_0_102_1377" x1="7.322" y1="8.322" x2="42.678" y2="43.678" gradientUnits="userSpaceOnUse">
<stop stop-color="#3A8483"/>
<stop offset="1" stop-color="#539392"/>
</linearGradient>
</defs>
</svg>
