<svg width="96" height="96" viewBox="0 0 96 96" fill="none" xmlns="http://www.w3.org/2000/svg" xmlns:xlink="http://www.w3.org/1999/xlink">
<path d="M57.483,41.24C57.483,46.475 53.239,50.72 48.003,50.72L48.003,56.72C56.553,56.72 63.483,49.789 63.483,41.24L57.483,41.24ZM48.003,50.72C42.768,50.72 38.523,46.475 38.523,41.24L32.523,41.24C32.523,49.789 39.454,56.72 48.003,56.72L48.003,50.72ZM38.523,41.24C38.523,36.004 42.768,31.76 48.003,31.76L48.003,25.76C39.454,25.76 32.523,32.69 32.523,41.24L38.523,41.24ZM48.003,31.76C53.239,31.76 57.483,36.004 57.483,41.24L63.483,41.24C63.483,32.69 56.553,25.76 48.003,25.76L48.003,31.76Z" fill="#FFFFFF"/>
<path d="M14.479,33.96L11.554,33.295L11.553,33.298L14.479,33.96ZM81.519,34L78.593,34.662L78.593,34.662L81.519,34ZM62.399,82.16L60.321,79.996L60.315,80.001L62.399,82.16ZM33.559,82.16L31.477,84.32L31.481,84.324L33.559,82.16ZM17.404,34.625C20.976,18.922 34.344,10.991 48.012,11C61.68,11.009 75.039,18.959 78.593,34.662L84.445,33.338C80.159,14.401 63.938,5.011 48.016,5C32.093,4.989 15.861,14.358 11.554,33.295L17.404,34.625ZM78.593,34.662C82.821,53.342 71.249,69.502 60.321,79.996L64.477,84.324C75.709,73.538 89.416,55.298 84.445,33.338L78.593,34.662ZM60.315,80.001C53.441,86.637 42.559,86.644 35.637,79.996L31.481,84.324C40.719,93.196 55.277,93.203 64.482,84.319L60.315,80.001ZM35.641,80C24.752,69.505 13.176,53.304 17.405,34.622L11.553,33.298C6.582,55.256 20.286,73.535 31.477,84.32L35.641,80Z" fill="#FFFFFF"/>
</svg>
