<svg width="96" height="96" viewBox="0 0 96 96" fill="none" xmlns="http://www.w3.org/2000/svg" xmlns:xlink="http://www.w3.org/1999/xlink">
<path d="M5,34C5,35.657 6.343,37 8,37C9.657,37 11,35.657 11,34L5,34ZM28,79C26.343,79 25,80.343 25,82C25,83.657 26.343,85 28,85L28,79ZM11,34C11,27.572 12.822,23.474 15.541,20.948C18.301,18.385 22.46,17 28,17L28,11C21.54,11 15.699,12.615 11.459,16.552C7.178,20.526 5,26.428 5,34L11,34ZM28,17L68,17L68,11L28,11L28,17ZM68,17C73.54,17 77.699,18.385 80.459,20.948C83.178,23.474 85,27.572 85,34L91,34C91,26.428 88.822,20.526 84.541,16.552C80.301,12.615 74.46,11 68,11L68,17ZM85,34L85,62L91,62L91,34L85,34ZM85,62C85,68.428 83.178,72.526 80.459,75.052C77.699,77.615 73.54,79 68,79L68,85C74.46,85 80.301,83.385 84.541,79.448C88.822,75.474 91,69.572 91,62L85,62ZM68,79L28,79L28,85L68,85L68,79Z" fill="#FFFFFF"/>
<path d="M69.872,38.344C71.167,37.31 71.378,35.422 70.344,34.128C69.31,32.833 67.422,32.622 66.128,33.656L69.872,38.344ZM55.48,46L57.349,48.347L57.352,48.344L55.48,46ZM40.48,46L38.604,48.341L38.611,48.347L40.48,46ZM29.876,33.659C28.583,32.623 26.695,32.831 25.659,34.124C24.623,35.417 24.831,37.305 26.124,38.341L29.876,33.659ZM66.128,33.656L53.608,43.656L57.352,48.344L69.872,38.344L66.128,33.656ZM53.611,43.653C50.585,46.062 45.375,46.062 42.349,43.653L38.611,48.347C43.825,52.498 52.135,52.498 57.349,48.347L53.611,43.653ZM42.356,43.659L29.876,33.659L26.124,38.341L38.604,48.341L42.356,43.659Z" fill="#FFFFFF"/>
<line x1="8" y1="63" x2="32" y2="63" stroke="#FFFFFF" stroke-width="3" stroke-miterlimit="10" stroke-linecap="round" stroke-linejoin="round"/>
<line x1="8" y1="47" x2="20" y2="47" stroke="#FFFFFF" stroke-width="3" stroke-miterlimit="10" stroke-linecap="round" stroke-linejoin="round"/>
</svg>
