<svg width="50" height="48" viewBox="0 0 50 48" fill="none" xmlns="http://www.w3.org/2000/svg" xmlns:xlink="http://www.w3.org/1999/xlink">
<path d="M22.385,2.682C23.024,0.717 25.802,0.717 26.441,2.682L30.517,15.225C30.656,15.653 30.927,16.026 31.291,16.291C31.655,16.555 32.094,16.698 32.544,16.698L45.736,16.698C47.801,16.698 48.66,19.342 46.988,20.555L36.318,28.307C35.954,28.572 35.683,28.945 35.544,29.373C35.404,29.801 35.404,30.263 35.543,30.691L39.619,43.234C40.258,45.199 38.009,46.832 36.338,45.618L25.668,37.865C25.303,37.6 24.865,37.458 24.414,37.458C23.964,37.458 23.525,37.6 23.16,37.865L12.489,45.618C10.818,46.832 8.569,45.198 9.208,43.234L13.284,30.691C13.423,30.263 13.423,29.801 13.284,29.373C13.145,28.945 12.874,28.572 12.51,28.307L1.838,20.555C0.167,19.341 1.026,16.698 3.091,16.698L16.282,16.698C16.732,16.698 17.171,16.555 17.535,16.291C17.899,16.026 18.17,15.653 18.309,15.225L22.385,2.682Z" fill="#FFFFFF" fill-opacity="0.14"/>
<path d="M23.401,3.011L22.335,3.011L24.414,3.341L23.401,3.011ZM25.428,3.011L24.414,3.341L24.414,3.341L25.428,3.011ZM29.504,15.554L30.518,15.225L30.518,15.225L29.504,15.554ZM32.546,17.764L32.546,18.83L32.546,18.83L32.546,17.764ZM46.363,19.694L46.99,20.556L46.99,20.556L46.363,19.694ZM35.693,27.444L36.32,28.307L36.32,28.307L35.693,27.444ZM34.531,31.021L35.545,30.691L35.545,30.691L34.531,31.021ZM38.607,43.564L37.593,43.893L37.593,43.894L38.607,43.564ZM36.966,44.756L36.34,45.618L36.34,45.618L36.966,44.756ZM26.295,37.003L26.922,36.141L26.922,36.141L26.295,37.003ZM22.536,37.003L21.91,36.141L21.909,36.141L22.536,37.003ZM11.864,44.756L11.237,43.893L11.237,43.894L11.864,44.756ZM10.224,43.564L9.21,43.234L9.21,43.235L10.224,43.564ZM14.3,31.021L15.314,31.35L15.314,31.35L14.3,31.021ZM13.138,27.445L12.511,28.308L12.511,28.308L13.138,27.445ZM2.467,19.692L1.84,20.554L1.84,20.554L2.467,19.692ZM16.283,17.763L16.283,18.829L16.283,18.829L16.283,17.763ZM19.325,15.553L18.311,15.224L18.311,15.224L19.325,15.553ZM23.401,3.01L24.467,3.01L22.387,2.681L23.401,3.01ZM24.414,3.341L24.414,3.341L26.442,2.682C25.804,0.716 23.026,0.72 22.387,2.681L24.414,3.341ZM24.414,3.341L28.49,15.884L30.518,15.225L26.442,2.682L24.414,3.341ZM28.49,15.884C28.769,16.74 29.311,17.487 30.039,18.016L31.293,16.291C30.928,16.026 30.657,15.653 30.518,15.225L28.49,15.884ZM30.039,18.016C30.768,18.545 31.645,18.83 32.546,18.83L32.546,16.698C32.096,16.698 31.657,16.556 31.293,16.291L30.039,18.016ZM32.546,18.83L45.737,18.83L45.737,16.698L32.546,16.698L32.546,18.83ZM45.737,18.83L45.736,18.832L46.99,20.556C48.659,19.342 47.804,16.698 45.737,16.698L45.737,18.83ZM45.736,18.831L35.067,26.581L36.32,28.307L46.99,20.556L45.736,18.831ZM35.067,26.581C34.338,27.111 33.795,27.857 33.517,28.714L35.545,29.373C35.684,28.945 35.955,28.571 36.32,28.307L35.067,26.581ZM33.517,28.714C33.239,29.571 33.239,30.494 33.517,31.35L35.545,30.691C35.406,30.263 35.406,29.801 35.545,29.373L33.517,28.714ZM33.517,31.35L37.593,43.893L39.621,43.234L35.545,30.691L33.517,31.35ZM37.593,43.894L37.592,43.893L36.34,45.618C38.009,46.829 40.262,45.201 39.621,43.234L37.593,43.894ZM37.593,43.893L26.922,36.141L25.669,37.866L36.34,45.618L37.593,43.893ZM26.922,36.141C26.193,35.612 25.316,35.327 24.416,35.327L24.416,37.459C24.866,37.459 25.304,37.601 25.669,37.866L26.922,36.141ZM24.416,35.327C23.515,35.327 22.638,35.612 21.91,36.141L23.163,37.866C23.527,37.601 23.965,37.459 24.416,37.459L24.416,35.327ZM21.909,36.141L11.237,43.893L12.491,45.618L23.163,37.866L21.909,36.141ZM11.237,43.894L11.238,43.893L9.21,43.235C8.574,45.195 10.818,46.836 12.491,45.618L11.237,43.894ZM11.238,43.893L15.314,31.35L13.286,30.691L9.21,43.234L11.238,43.893ZM15.314,31.35C15.592,30.494 15.592,29.571 15.314,28.715L13.286,29.374C13.425,29.802 13.425,30.263 13.286,30.691L15.314,31.35ZM15.314,28.715C15.036,27.858 14.493,27.112 13.765,26.583L12.511,28.308C12.876,28.572 13.147,28.946 13.286,29.374L15.314,28.715ZM13.765,26.583L3.094,18.829L1.84,20.554L12.511,28.308L13.765,26.583ZM3.094,18.829L3.093,18.829L3.093,16.697C1.027,16.697 0.17,19.34 1.84,20.554L3.094,18.829ZM3.093,18.829L16.283,18.829L16.283,16.697L3.093,16.697L3.093,18.829ZM16.283,18.829C17.184,18.829 18.061,18.544 18.79,18.015L17.536,16.29C17.172,16.555 16.733,16.697 16.283,16.697L16.283,18.829ZM18.79,18.015C19.518,17.486 20.06,16.739 20.339,15.883L18.311,15.224C18.172,15.652 17.901,16.025 17.536,16.29L18.79,18.015ZM20.339,15.883L24.415,3.34L22.387,2.681L18.311,15.224L20.339,15.883ZM22.335,3.01L22.335,3.011L24.467,3.011L24.467,3.01L22.335,3.01Z" fill="#FFFFFF" fill-opacity="0.13"/>
</svg>
