<svg width="410" height="390" viewBox="0 0 410 390" fill="none" xmlns="http://www.w3.org/2000/svg" xmlns:xlink="http://www.w3.org/1999/xlink">
<path d="M98.432,49.663L98.787,50.547L98.787,50.547L98.432,49.663ZM206.013,68.314L206.425,67.455L206.425,67.455L206.013,68.314ZM283.897,138.566L284.801,138.262L284.801,138.262L283.897,138.566ZM264.069,240.756L264.949,241.123L264.949,241.123L264.069,240.756ZM200.035,339.505L200.356,340.403L200.356,340.403L200.035,339.505ZM87.589,303.873L87.146,304.717L87.146,304.717L87.589,303.873ZM4.268,236.579L5.18,236.302L5.18,236.302L4.268,236.579ZM36.576,136.238L37.428,136.667L37.428,136.667L36.576,136.238ZM98.787,50.547C116.253,43.545 134.481,44.131 152.604,48.514C170.739,52.9 188.699,61.072 205.601,69.174L206.425,67.455C189.525,59.353 171.403,51.099 153.052,46.661C134.69,42.219 116.029,41.581 98.077,48.778L98.787,50.547ZM205.601,69.174C238.697,85.039 271.627,105.11 282.993,138.87L284.801,138.262C273.155,103.67 239.503,83.311 206.425,67.455L205.601,69.174ZM282.993,138.87C288.617,155.571 287.193,172.533 282.587,189.553C277.973,206.597 270.201,223.587 263.189,240.388L264.949,241.123C271.923,224.412 279.771,207.252 284.427,190.051C289.089,172.827 290.587,155.451 284.801,138.262L282.993,138.87ZM263.189,240.388C259.277,249.763 255.745,259.773 252.059,269.675C248.367,279.593 244.513,289.421 239.943,298.507C230.799,316.683 218.841,331.767 199.714,338.607L200.356,340.403C220.149,333.323 232.405,317.735 241.645,299.365C246.267,290.179 250.149,280.269 253.845,270.339C257.547,260.395 261.057,250.451 264.949,241.123L263.189,240.388ZM199.714,338.607C180.552,345.461 161.705,341.379 143.061,333.135C133.739,329.013 124.5,323.865 115.323,318.551C106.161,313.247 97.045,307.767 88.033,303.029L87.146,304.717C96.112,309.431 105.167,314.875 114.368,320.201C123.553,325.521 132.868,330.713 142.29,334.879C161.132,343.211 180.529,347.493 200.356,340.403L199.714,338.607ZM88.033,303.029C71.418,294.295 53.377,286.323 38.072,276.105C22.802,265.909 10.441,253.589 5.18,236.302L3.356,236.857C8.798,254.741 21.565,267.377 37.014,277.691C52.427,287.981 70.695,296.069 87.146,304.717L88.033,303.029ZM5.18,236.302C0.025,219.362 3.874,202.732 11.16,186.149C14.802,177.859 19.289,169.611 23.912,161.366C28.527,153.133 33.284,144.891 37.428,136.667L35.725,135.809C31.606,143.984 26.881,152.17 22.249,160.433C17.623,168.684 13.097,177 9.414,185.382C2.051,202.142 -1.992,219.283 3.356,236.857L5.18,236.302ZM37.428,136.667C41.565,128.455 45.341,119.788 49.201,111.237C53.066,102.673 57.02,94.212 61.531,86.348C70.553,70.622 81.754,57.375 98.787,50.547L98.077,48.778C80.478,55.833 69,69.497 59.878,85.4C55.317,93.35 51.331,101.883 47.463,110.453C43.589,119.036 39.838,127.644 35.725,135.809L37.428,136.667Z" fill="#3A8483"/>
<path d="M131.198,50.174L131.532,51.067L131.532,51.067L131.198,50.174ZM235.147,72.52L234.699,73.361L234.699,73.361L235.147,72.52ZM309.6,145.228L310.51,144.946L310.51,144.946L309.6,145.228ZM288.95,246.333L288.072,245.959L288.072,245.959L288.95,246.333ZM225.526,342.465L225.227,341.559L225.227,341.559L225.526,342.465ZM117.105,303.035L116.626,303.859L116.626,303.859L117.105,303.035ZM37.343,233.082L38.262,232.826L38.262,232.826L37.343,233.082ZM70.056,134.254L69.208,133.819L69.208,133.819L70.056,134.254ZM131.532,51.067C148.532,44.709 166.168,45.927 183.658,50.927C201.16,55.93 218.44,64.698 234.699,73.361L235.596,71.678C219.339,63.017 201.899,54.159 184.182,49.094C166.454,44.026 148.373,42.733 130.864,49.281L131.532,51.067ZM234.699,73.361C266.528,90.32 298.15,111.468 308.688,145.51L310.51,144.946C299.722,110.093 267.418,88.633 235.594,71.678L234.699,73.361ZM308.688,145.51C313.902,162.352 312.282,179.205 307.58,195.998C302.87,212.815 295.102,229.468 288.072,245.959L289.826,246.707C296.818,230.304 304.662,213.484 309.416,196.512C314.176,179.516 315.87,162.263 310.51,144.946L308.688,145.51ZM288.072,245.959C284.15,255.161 280.586,265.009 276.876,274.743C273.16,284.495 269.29,294.151 264.734,303.041C255.618,320.829 243.83,335.421 225.227,341.559L225.824,343.369C245.122,337.003 257.22,321.885 266.43,303.911C271.036,294.921 274.938,285.185 278.658,275.423C282.384,265.645 285.924,255.863 289.826,246.707L288.072,245.959ZM225.227,341.559C206.592,347.707 188.408,342.991 170.462,334.125C161.492,329.695 152.615,324.243 143.801,318.629C135,313.023 126.247,307.245 117.584,302.211L116.626,303.859C125.245,308.869 133.939,314.607 142.776,320.237C151.599,325.855 160.549,331.355 169.618,335.835C187.751,344.793 206.496,349.747 225.824,343.369L225.227,341.559ZM117.584,302.211C101.613,292.927 84.25,284.353 69.569,273.639C54.922,262.951 43.116,250.241 38.262,232.826L36.425,233.338C41.441,251.333 53.624,264.363 68.445,275.179C83.231,285.971 100.814,294.667 116.626,303.859L117.584,302.211ZM38.262,232.826C33.504,215.76 37.472,199.324 44.762,183.063C48.406,174.932 52.869,166.874 57.463,158.822C62.05,150.782 66.775,142.738 70.905,134.689L69.208,133.819C65.104,141.818 60.411,149.807 55.807,157.877C51.21,165.934 46.707,174.061 43.022,182.283C35.651,198.725 31.496,215.654 36.425,233.338L38.262,232.826ZM70.905,134.689C75.028,126.653 78.81,118.151 82.669,109.768C86.534,101.372 90.483,93.083 94.964,85.407C103.926,70.057 114.956,57.265 131.532,51.067L130.864,49.281C113.696,55.7 102.379,68.924 93.317,84.446C88.787,92.207 84.805,100.569 80.937,108.971C77.063,117.386 73.308,125.83 69.208,133.819L70.905,134.689Z" fill="#3A8483"/>
<path d="M163.345,49.267L163.66,50.167L163.66,50.167L163.345,49.267ZM266.803,73.785L266.337,74.617L266.337,74.617L266.803,73.785ZM339.717,148.036L340.633,147.773L340.633,147.773L339.717,148.036ZM316.955,248.687L317.823,249.079L317.823,249.079L316.955,248.687ZM251.531,343.469L251.251,342.557L251.251,342.557L251.531,343.469ZM143.96,301.777L143.463,302.591L143.463,302.591L143.96,301.777ZM65.68,230.169L66.604,229.933L66.604,229.933L65.68,230.169ZM100.456,132.048L101.295,132.501L101.295,132.501L100.456,132.048ZM163.66,50.167C180.79,44.167 198.396,45.754 215.777,51.119C233.17,56.487 250.263,65.615 266.337,74.617L267.269,72.953C251.197,63.952 233.947,54.731 216.34,49.297C198.722,43.859 180.672,42.188 163.029,48.367L163.66,50.167ZM266.337,74.617C297.805,92.238 328.977,114.044 338.801,148.298L340.633,147.773C330.577,112.701 298.729,90.571 267.269,72.953L266.337,74.617ZM338.801,148.298C343.659,165.246 341.689,182.061 336.635,198.753C331.573,215.468 323.459,231.954 316.085,248.295L317.823,249.079C325.157,232.827 333.351,216.174 338.459,199.305C343.575,182.413 345.629,165.199 340.633,147.773L338.801,148.298ZM316.085,248.295C311.971,257.411 308.203,267.183 304.289,276.839C300.369,286.509 296.297,296.083 291.555,304.875C282.071,322.467 269.979,336.809 251.251,342.557L251.81,344.379C271.237,338.417 283.649,323.557 293.233,305.781C298.027,296.889 302.131,287.235 306.055,277.555C309.987,267.857 313.729,258.151 317.823,249.079L316.085,248.295ZM251.251,342.557C232.491,348.313 214.41,343.217 196.654,333.979C187.778,329.361 179.018,323.725 170.323,317.927C161.642,312.139 153.012,306.179 144.456,300.963L143.463,302.591C151.975,307.781 160.548,313.701 169.265,319.513C177.968,325.315 186.801,331.001 195.774,335.671C213.716,345.007 232.352,350.351 251.81,344.379L251.251,342.557ZM144.456,300.963C128.682,291.347 111.503,282.413 97.05,271.393C82.63,260.401 71.093,247.447 66.604,229.933L64.757,230.406C69.395,248.503 81.303,261.785 95.894,272.909C110.45,284.007 127.847,293.071 143.463,302.591L144.456,300.963ZM66.604,229.933C62.205,212.772 66.515,196.422 74.144,180.317C77.959,172.265 82.589,164.302 87.351,156.347C92.105,148.405 96.998,140.461 101.295,132.501L99.617,131.595C95.346,139.507 90.487,147.396 85.715,155.368C80.95,163.327 76.278,171.359 72.421,179.501C64.707,195.785 60.198,212.624 64.757,230.406L66.604,229.933ZM101.295,132.501C105.586,124.553 109.544,116.132 113.578,107.832C117.618,99.519 121.74,91.314 126.381,83.734C135.662,68.575 146.957,56.017 163.66,50.167L163.029,48.367C145.731,54.426 134.139,67.41 124.754,82.739C120.062,90.403 115.906,98.68 111.863,106.999C107.814,115.331 103.883,123.694 99.617,131.595L101.295,132.501Z" fill="#3A8483"/>
<path d="M179.303,43.573L179.635,44.466L179.635,44.466L179.303,43.573ZM283.551,67.329L283.091,68.164L283.091,68.164L283.551,67.329ZM358.43,142.19L359.34,141.911L359.34,141.911L358.43,142.19ZM338.114,245.145L338.994,245.512L338.994,245.512L338.114,245.145ZM274.915,342.628L274.619,341.722L274.619,341.722L274.915,342.628ZM166.123,301.403L165.633,302.221L165.633,302.221L166.123,301.403ZM85.935,229.302L86.854,229.048L86.854,229.048L85.935,229.302ZM118.348,128.784L119.2,129.212L119.2,129.212L118.348,128.784ZM179.635,44.466C196.641,38.14 214.314,39.544 231.86,44.806C249.416,50.071 266.766,59.176 283.091,68.164L284.012,66.494C267.688,57.507 250.18,48.31 232.408,42.979C214.624,37.646 196.497,36.159 178.97,42.679L179.635,44.466ZM283.091,68.164C315.046,85.756 346.826,107.628 357.518,142.47L359.34,141.911C348.406,106.272 315.966,84.087 284.012,66.494L283.091,68.164ZM357.518,142.47C362.808,159.711 361.246,176.896 356.596,193.986C351.938,211.101 344.216,228.02 337.234,244.779L338.994,245.512C345.94,228.841 353.736,211.756 358.436,194.487C363.142,177.194 364.774,159.616 359.34,141.911L357.518,142.47ZM337.234,244.779C333.338,254.128 329.804,264.141 326.122,274.038C322.434,283.953 318.59,293.769 314.058,302.797C304.99,320.86 293.23,335.635 274.619,341.722L275.212,343.534C294.534,337.215 306.6,321.9 315.762,303.653C320.344,294.524 324.218,284.627 327.91,274.704C331.606,264.765 335.118,254.816 338.994,245.512L337.234,244.779ZM274.619,341.722C255.976,347.82 237.739,342.845 219.721,333.632C210.714,329.029 201.799,323.385 192.945,317.577C184.105,311.776 175.313,305.802 166.613,300.584L165.633,302.221C174.288,307.41 183.023,313.346 191.899,319.171C200.761,324.985 209.749,330.676 218.853,335.331C237.054,344.635 255.859,349.864 275.212,343.534L274.619,341.722ZM166.613,300.584C150.575,290.967 133.143,282.06 118.39,270.994C103.673,259.953 91.787,246.873 86.854,229.048L85.016,229.557C90.107,247.95 102.356,261.349 117.246,272.519C132.102,283.663 149.752,292.697 165.633,302.221L166.613,300.584ZM86.854,229.048C82.02,211.582 85.938,194.842 93.182,178.321C96.804,170.06 101.246,161.88 105.82,153.707C110.387,145.547 115.091,137.385 119.2,129.212L117.496,128.356C113.412,136.479 108.74,144.586 104.156,152.776C99.58,160.953 95.098,169.203 91.436,177.555C84.111,194.261 80.014,211.485 85.016,229.557L86.854,229.048ZM119.2,129.212C123.302,121.052 127.059,112.414 130.895,103.898C134.737,95.368 138.664,86.947 143.126,79.158C152.05,63.578 163.054,50.635 179.635,44.466L178.97,42.679C161.785,49.072 150.492,62.461 141.471,78.21C136.96,86.086 133.001,94.579 129.157,103.114C125.306,111.663 121.574,120.243 117.496,128.356L119.2,129.212Z" fill="#3A8483"/>
</svg>
