<svg width="24" height="24" viewBox="0 0 24 24" fill="none" xmlns="http://www.w3.org/2000/svg" xmlns:xlink="http://www.w3.org/1999/xlink">
<path d="M11.186,1.597C11.484,0.68 12.781,0.68 13.08,1.597L14.983,7.455C15.048,7.655 15.175,7.829 15.345,7.953C15.515,8.076 15.72,8.143 15.93,8.143L22.091,8.143C23.055,8.143 23.456,9.378 22.676,9.944L17.693,13.565C17.522,13.688 17.396,13.862 17.331,14.062C17.266,14.262 17.266,14.478 17.331,14.678L19.234,20.535C19.532,21.453 18.482,22.216 17.702,21.649L12.719,18.028C12.549,17.905 12.344,17.838 12.133,17.838C11.923,17.838 11.718,17.905 11.548,18.028L6.564,21.649C5.784,22.216 4.734,21.453 5.032,20.535L6.935,14.678C7,14.478 7,14.262 6.935,14.062C6.87,13.863 6.744,13.688 6.574,13.565L1.59,9.944C0.81,9.377 1.211,8.143 2.175,8.143L8.335,8.143C8.546,8.143 8.75,8.076 8.921,7.953C9.091,7.829 9.217,7.655 9.282,7.455L11.186,1.597Z" fill="#FFFFFF" fill-opacity="0.14"/>
<path d="M11.659,1.751L11.161,1.751L12.133,1.905L11.659,1.751ZM12.606,1.751L12.133,1.905L12.133,1.905L12.606,1.751ZM14.51,7.609L14.983,7.455L14.983,7.455L14.51,7.609ZM15.93,8.641L15.93,9.139L15.93,9.139L15.93,8.641ZM22.383,9.542L22.675,9.945L22.675,9.945L22.383,9.542ZM17.4,13.161L17.692,13.564L17.692,13.564L17.4,13.161ZM16.857,14.832L17.331,14.678L17.331,14.678L16.857,14.832ZM18.76,20.689L18.287,20.843L18.287,20.844L18.76,20.689ZM17.994,21.246L17.702,21.649L17.702,21.649L17.994,21.246ZM13.011,17.626L13.304,17.223L13.303,17.223L13.011,17.626ZM11.255,17.626L10.963,17.223L10.963,17.223L11.255,17.626ZM6.271,21.246L5.979,20.843L5.978,20.843L6.271,21.246ZM5.506,20.689L5.032,20.535L5.032,20.536L5.506,20.689ZM7.409,14.832L7.883,14.985L7.883,14.985L7.409,14.832ZM6.866,13.162L6.574,13.565L6.574,13.565L6.866,13.162ZM1.883,9.541L1.59,9.944L1.59,9.944L1.883,9.541ZM8.335,8.64L8.335,9.138L8.335,9.138L8.335,8.64ZM9.756,7.608L9.282,7.454L9.282,7.454L9.756,7.608ZM11.659,1.751L12.157,1.751L11.186,1.597L11.659,1.751ZM12.133,1.905L12.133,1.905L13.08,1.597C12.782,0.679 11.484,0.681 11.186,1.597L12.133,1.905ZM12.133,1.905L14.036,7.763L14.983,7.455L13.08,1.597L12.133,1.905ZM14.036,7.763C14.166,8.163 14.419,8.511 14.759,8.758L15.345,7.953C15.175,7.829 15.048,7.655 14.983,7.455L14.036,7.763ZM14.759,8.758C15.1,9.006 15.509,9.139 15.93,9.139L15.93,8.143C15.72,8.143 15.515,8.076 15.345,7.953L14.759,8.758ZM15.93,9.139L22.09,9.139L22.09,8.143L15.93,8.143L15.93,9.139ZM22.09,9.139L22.09,9.139L22.675,9.945C23.455,9.378 23.056,8.143 22.09,8.143L22.09,9.139ZM22.09,9.139L17.107,12.758L17.692,13.564L22.675,9.945L22.09,9.139ZM17.107,12.758C16.767,13.006 16.513,13.354 16.383,13.754L17.33,14.062C17.395,13.862 17.522,13.688 17.692,13.564L17.107,12.758ZM16.383,13.754C16.253,14.155 16.253,14.586 16.384,14.986L17.331,14.678C17.266,14.478 17.265,14.262 17.33,14.062L16.383,13.754ZM16.384,14.985L18.287,20.843L19.234,20.535L17.331,14.678L16.384,14.985ZM18.287,20.844L18.287,20.843L17.702,21.649C18.481,22.214 19.533,21.454 19.234,20.535L18.287,20.844ZM18.287,20.843L13.304,17.223L12.718,18.028L17.702,21.649L18.287,20.843ZM13.303,17.223C12.963,16.976 12.554,16.843 12.133,16.843L12.133,17.838C12.343,17.838 12.548,17.905 12.718,18.028L13.303,17.223ZM12.133,16.843C11.713,16.843 11.303,16.976 10.963,17.223L11.548,18.028C11.718,17.905 11.923,17.838 12.133,17.838L12.133,16.843ZM10.963,17.223L5.979,20.843L6.564,21.649L11.548,18.028L10.963,17.223ZM5.978,20.843L5.979,20.843L5.032,20.536C4.735,21.451 5.783,22.217 6.564,21.648L5.978,20.843ZM5.979,20.843L7.883,14.985L6.936,14.678L5.032,20.535L5.979,20.843ZM7.883,14.985C8.013,14.585 8.013,14.155 7.883,13.755L6.936,14.062C7.001,14.262 7.001,14.478 6.936,14.678L7.883,14.985ZM7.883,13.755C7.753,13.355 7.499,13.006 7.159,12.759L6.574,13.565C6.744,13.688 6.871,13.862 6.936,14.062L7.883,13.755ZM7.159,12.759L2.176,9.138L1.59,9.944L6.574,13.565L7.159,12.759ZM2.176,9.138L2.175,9.138L2.175,8.142C1.211,8.142 0.81,9.377 1.59,9.944L2.176,9.138ZM2.175,9.138L8.335,9.138L8.335,8.142L2.175,8.142L2.175,9.138ZM8.335,9.138C8.756,9.138 9.166,9.005 9.506,8.758L8.92,7.952C8.75,8.076 8.545,8.142 8.335,8.142L8.335,9.138ZM9.506,8.758C9.846,8.511 10.099,8.162 10.229,7.762L9.282,7.454C9.217,7.654 9.091,7.829 8.92,7.952L9.506,8.758ZM10.229,7.762L12.133,1.904L11.186,1.597L9.282,7.454L10.229,7.762ZM11.161,1.751L11.161,1.751L12.157,1.751L12.157,1.751L11.161,1.751Z" fill="#FFFFFF" fill-opacity="0.13"/>
</svg>
