<svg width="192" height="178" viewBox="0 0 192 178" fill="none" xmlns="http://www.w3.org/2000/svg" xmlns:xlink="http://www.w3.org/1999/xlink">
<path d="M46.03,22.797L46.195,23.21L46.195,23.21L46.03,22.797ZM96.271,31.507L96.463,31.106L96.463,31.106L96.271,31.507ZM132.643,64.315L133.065,64.173L133.065,64.173L132.643,64.315ZM123.383,112.038L123.794,112.21L123.794,112.21L123.383,112.038ZM93.479,158.155L93.628,158.574L93.628,158.574L93.479,158.155ZM40.966,141.514L40.759,141.909L40.759,141.909L40.966,141.514ZM2.055,110.088L2.481,109.958L2.481,109.958L2.055,110.088ZM17.143,63.228L17.54,63.428L17.54,63.428L17.143,63.228ZM46.195,23.21C54.352,19.94 62.865,20.213 71.328,22.261C79.797,24.309 88.185,28.125 96.078,31.909L96.463,31.106C88.57,27.322 80.107,23.468 71.538,21.395C62.962,19.321 54.247,19.023 45.864,22.384L46.195,23.21ZM96.078,31.909C111.534,39.318 126.913,48.691 132.221,64.457L133.065,64.173C127.626,48.019 111.91,38.511 96.463,31.106L96.078,31.909ZM132.221,64.457C134.847,72.257 134.182,80.178 132.031,88.126C129.876,96.086 126.247,104.02 122.972,111.867L123.794,112.21C127.051,104.405 130.716,96.392 132.89,88.359C135.068,80.315 135.767,72.2 133.065,64.173L132.221,64.457ZM122.972,111.867C121.146,116.244 119.496,120.919 117.774,125.543C116.05,130.175 114.251,134.765 112.116,139.008C107.846,147.496 102.262,154.54 93.329,157.735L93.628,158.574C102.872,155.268 108.596,147.987 112.911,139.409C115.069,135.119 116.883,130.491 118.609,125.854C120.338,121.21 121.976,116.566 123.794,112.21L122.972,111.867ZM93.329,157.735C84.38,160.936 75.578,159.03 66.871,155.18C62.518,153.255 58.203,150.851 53.918,148.369C49.639,145.892 45.382,143.333 41.173,141.12L40.759,141.909C44.946,144.11 49.175,146.652 53.472,149.14C57.761,151.624 62.111,154.048 66.511,155.994C75.311,159.885 84.369,161.885 93.628,158.574L93.329,157.735ZM41.173,141.12C33.414,137.041 24.989,133.318 17.841,128.546C10.71,123.785 4.937,118.031 2.481,109.958L1.629,110.217C4.17,118.57 10.133,124.47 17.347,129.287C24.545,134.092 33.076,137.87 40.759,141.909L41.173,141.12ZM2.481,109.958C0.073,102.047 1.871,94.281 5.273,86.537C6.974,82.665 9.07,78.813 11.228,74.963C13.384,71.118 15.605,67.269 17.54,63.428L16.745,63.028C14.822,66.845 12.615,70.668 10.452,74.527C8.292,78.38 6.178,82.264 4.458,86.178C1.019,94.005 -0.869,102.01 1.629,110.217L2.481,109.958ZM17.54,63.428C19.472,59.593 21.236,55.546 23.038,51.552C24.844,47.553 26.69,43.602 28.797,39.929C33.01,32.585 38.241,26.399 46.195,23.21L45.864,22.384C37.645,25.678 32.285,32.06 28.024,39.486C25.894,43.199 24.033,47.184 22.227,51.186C20.418,55.194 18.666,59.215 16.745,63.028L17.54,63.428Z" fill="#3A8483"/>
<path d="M61.331,23.036L61.487,23.453L61.487,23.453L61.331,23.036ZM109.876,33.471L109.667,33.864L109.667,33.864L109.876,33.471ZM144.646,67.426L145.071,67.295L145.071,67.295L144.646,67.426ZM135.002,114.643L134.592,114.469L134.592,114.469L135.002,114.643ZM105.383,159.537L105.243,159.114L105.243,159.114L105.383,159.537ZM54.75,141.123L54.526,141.508L54.526,141.508L54.75,141.123ZM17.5,108.455L17.929,108.335L17.929,108.335L17.5,108.455ZM32.778,62.302L32.382,62.098L32.382,62.098L32.778,62.302ZM61.487,23.453C69.426,20.484 77.662,21.053 85.83,23.388C94.004,25.724 102.073,29.819 109.667,33.864L110.085,33.078C102.493,29.033 94.349,24.897 86.075,22.531C77.796,20.165 69.352,19.561 61.175,22.619L61.487,23.453ZM109.667,33.864C124.531,41.784 139.299,51.66 144.22,67.558L145.071,67.295C140.032,51.018 124.947,40.997 110.085,33.078L109.667,33.864ZM144.22,67.558C146.655,75.424 145.899,83.294 143.703,91.136C141.503,98.99 137.875,106.767 134.592,114.469L135.412,114.818C138.677,107.157 142.34,99.302 144.56,91.376C146.783,83.439 147.574,75.382 145.071,67.295L144.22,67.558ZM134.592,114.469C132.761,118.765 131.097,123.365 129.364,127.911C127.628,132.465 125.821,136.974 123.693,141.126C119.437,149.433 113.931,156.248 105.243,159.114L105.522,159.96C114.534,156.986 120.184,149.927 124.485,141.532C126.637,137.334 128.458,132.787 130.196,128.228C131.936,123.662 133.589,119.093 135.412,114.818L134.592,114.469ZM105.243,159.114C96.541,161.985 88.048,159.783 79.668,155.643C75.479,153.573 71.333,151.027 67.217,148.405C63.107,145.788 59.019,143.09 54.973,140.738L54.526,141.508C58.551,143.847 62.611,146.528 66.738,149.156C70.859,151.781 75.038,154.349 79.273,156.441C87.742,160.625 96.496,162.938 105.522,159.96L105.243,159.114ZM54.974,140.738C47.515,136.402 39.406,132.399 32.55,127.395C25.71,122.403 20.197,116.468 17.929,108.335L17.072,108.574C19.414,116.978 25.104,123.063 32.025,128.114C38.93,133.154 47.142,137.215 54.526,141.508L54.974,140.738ZM17.929,108.335C15.708,100.365 17.561,92.689 20.965,85.095C22.667,81.299 24.751,77.535 26.897,73.775C29.039,70.02 31.245,66.263 33.174,62.505L32.382,62.098C30.465,65.834 28.273,69.565 26.123,73.334C23.976,77.096 21.874,80.892 20.152,84.731C16.71,92.41 14.77,100.316 17.072,108.574L17.929,108.335ZM33.174,62.505C35.1,58.752 36.865,54.782 38.668,50.867C40.473,46.946 42.317,43.074 44.41,39.49C48.595,32.321 53.746,26.347 61.487,23.453L61.175,22.619C53.158,25.617 47.873,31.792 43.641,39.041C41.525,42.666 39.665,46.57 37.859,50.494C36.05,54.424 34.296,58.367 32.382,62.098L33.174,62.505Z" fill="#3A8483"/>
<path d="M76.343,22.612L76.49,23.032L76.49,23.032L76.343,22.612ZM124.658,34.062L124.441,34.45L124.441,34.45L124.658,34.062ZM158.709,68.737L159.137,68.615L159.137,68.615L158.709,68.737ZM148.079,115.742L148.485,115.926L148.485,115.926L148.079,115.742ZM117.526,160.005L117.395,159.58L117.395,159.58L117.526,160.005ZM67.29,140.536L67.058,140.916L67.058,140.916L67.29,140.536ZM30.733,107.094L31.164,106.984L31.164,106.984L30.733,107.094ZM46.974,61.271L47.365,61.483L47.365,61.483L46.974,61.271ZM76.49,23.032C84.49,20.23 92.712,20.971 100.829,23.477C108.952,25.984 116.934,30.246 124.441,34.45L124.876,33.674C117.37,29.47 109.314,25.164 101.092,22.626C92.864,20.086 84.435,19.306 76.196,22.192L76.49,23.032ZM124.441,34.45C139.136,42.68 153.694,52.863 158.281,68.86L159.137,68.615C154.441,52.236 139.568,41.901 124.876,33.673L124.441,34.45ZM158.281,68.86C160.551,76.775 159.63,84.628 157.27,92.423C154.906,100.228 151.117,107.928 147.673,115.559L148.485,115.926C151.91,108.335 155.737,100.559 158.122,92.681C160.511,84.792 161.471,76.753 159.137,68.615L158.281,68.86ZM147.673,115.559C145.752,119.817 143.992,124.38 142.164,128.889C140.334,133.405 138.432,137.876 136.218,141.982C131.788,150.198 126.141,156.896 117.395,159.58L117.657,160.431C126.729,157.647 132.525,150.707 137.002,142.405C139.24,138.253 141.157,133.745 142.99,129.224C144.825,124.695 146.573,120.162 148.485,115.926L147.673,115.559ZM117.395,159.58C108.635,162.268 100.19,159.889 91.898,155.574C87.753,153.417 83.662,150.785 79.602,148.077C75.548,145.374 71.517,142.591 67.522,140.155L67.058,140.916C71.033,143.339 75.037,146.104 79.108,148.818C83.172,151.528 87.297,154.183 91.487,156.364C99.866,160.724 108.57,163.22 117.657,160.431L117.395,159.58ZM67.522,140.155C60.155,135.665 52.133,131.492 45.383,126.346C38.649,121.212 33.261,115.163 31.164,106.984L30.302,107.205C32.468,115.656 38.029,121.859 44.843,127.054C51.641,132.237 59.765,136.47 67.058,140.916L67.522,140.155ZM31.164,106.984C29.11,98.969 31.123,91.334 34.686,83.813C36.467,80.053 38.629,76.334 40.853,72.619C43.074,68.91 45.358,65.2 47.365,61.483L46.582,61.06C44.587,64.755 42.318,68.439 40.089,72.162C37.864,75.879 35.682,79.629 33.881,83.432C30.279,91.037 28.173,98.9 30.302,107.205L31.164,106.984ZM47.365,61.483C49.369,57.771 51.218,53.838 53.102,49.962C54.988,46.08 56.913,42.248 59.08,38.708C63.415,31.629 68.69,25.764 76.49,23.032L76.196,22.192C68.117,25.021 62.704,31.085 58.321,38.243C56.13,41.823 54.189,45.688 52.301,49.573C50.41,53.464 48.574,57.37 46.582,61.06L47.365,61.483Z" fill="#3A8483"/>
<path d="M83.797,19.953L83.952,20.37L83.952,20.37L83.797,19.953ZM132.481,31.047L132.267,31.437L132.267,31.437L132.481,31.047ZM167.45,66.007L167.875,65.877L167.875,65.877L167.45,66.007ZM157.962,114.088L158.373,114.259L158.373,114.259L157.962,114.088ZM128.449,159.613L128.31,159.19L128.31,159.19L128.449,159.613ZM77.642,140.36L77.413,140.742L77.413,140.742L77.642,140.36ZM40.194,106.689L40.623,106.57L40.623,106.57L40.194,106.689ZM55.331,59.746L55.729,59.946L55.729,59.946L55.331,59.746ZM83.952,20.37C91.894,17.415 100.147,18.071 108.341,20.528C116.54,22.987 124.642,27.239 132.267,31.437L132.696,30.657C125.073,26.46 116.897,22.165 108.597,19.675C100.292,17.185 91.827,16.49 83.642,19.535L83.952,20.37ZM132.267,31.437C147.19,39.652 162.031,49.866 167.024,66.138L167.875,65.877C162.769,49.233 147.62,38.873 132.696,30.657L132.267,31.437ZM167.024,66.138C169.495,74.189 168.765,82.215 166.593,90.196C164.418,98.189 160.812,106.09 157.551,113.916L158.373,114.259C161.617,106.474 165.258,98.495 167.453,90.43C169.65,82.354 170.412,74.145 167.875,65.877L167.024,66.138ZM157.551,113.916C155.732,118.283 154.082,122.959 152.362,127.581C150.64,132.211 148.845,136.795 146.728,141.011C142.493,149.447 137.001,156.347 128.31,159.19L128.587,160.036C137.61,157.085 143.246,149.933 147.524,141.411C149.664,137.148 151.472,132.526 153.197,127.892C154.924,123.25 156.563,118.604 158.373,114.259L157.551,113.916ZM128.31,159.19C119.604,162.038 111.087,159.714 102.672,155.412C98.466,153.262 94.303,150.626 90.168,147.913C86.04,145.205 81.934,142.415 77.871,139.978L77.413,140.742C81.455,143.166 85.534,145.938 89.679,148.658C93.818,151.373 98.015,154.031 102.267,156.205C110.767,160.55 119.549,162.992 128.587,160.036L128.31,159.19ZM77.871,139.978C70.381,135.487 62.24,131.327 55.351,126.159C48.477,121.003 42.927,114.895 40.623,106.57L39.765,106.808C42.142,115.397 47.862,121.655 54.816,126.871C61.754,132.076 69.997,136.295 77.413,140.742L77.871,139.978ZM40.623,106.57C38.365,98.413 40.195,90.596 43.578,82.88C45.27,79.022 47.344,75.202 49.48,71.386C51.613,67.575 53.81,63.763 55.729,59.946L54.933,59.546C53.026,63.34 50.844,67.126 48.703,70.951C46.566,74.77 44.473,78.622 42.763,82.523C39.342,90.324 37.429,98.368 39.765,106.808L40.623,106.57ZM55.729,59.946C57.644,56.136 59.399,52.102 61.19,48.124C62.985,44.141 64.818,40.208 66.902,36.571C71.07,29.295 76.209,23.25 83.952,20.37L83.642,19.535C75.616,22.521 70.342,28.774 66.129,36.128C64.023,39.806 62.174,43.772 60.378,47.759C58.58,51.751 56.837,55.758 54.933,59.546L55.729,59.946Z" fill="#3A8483"/>
</svg>
