<svg width="70" height="44" viewBox="0 0 70 44" fill="none" xmlns="http://www.w3.org/2000/svg" xmlns:xlink="http://www.w3.org/1999/xlink">
<path d="M12.375,19.525L11.935,18.955L11.935,18.955L12.375,19.525ZM38.216,23.545L38.026,22.85L38.026,22.85L38.216,23.545ZM44.452,0.74L44.23,0.056L44.23,0.056L44.452,0.74ZM-0.143,42.721C6.797,42.857 10.84,41.885 12.967,40.048C15.195,38.124 15.136,35.451 14.497,32.886C14.175,31.594 13.69,30.263 13.217,28.983C12.739,27.688 12.273,26.447 11.957,25.28C11.313,22.904 11.384,21.197 12.814,20.095L11.935,18.955C9.743,20.644 9.905,23.209 10.568,25.656C10.904,26.9 11.396,28.208 11.867,29.482C12.343,30.771 12.8,32.031 13.1,33.234C13.704,35.658 13.61,37.591 12.027,38.959C10.343,40.413 6.801,41.417 -0.115,41.282L-0.143,42.721ZM12.814,20.095C14.438,18.843 16.115,18.592 17.929,18.897C19.787,19.208 21.756,20.098 23.915,21.128C28.136,23.142 33.049,25.706 38.406,24.239L38.026,22.85C33.285,24.149 28.9,21.912 24.535,19.829C22.402,18.811 20.256,17.828 18.167,17.477C16.034,17.119 13.933,17.415 11.935,18.955L12.814,20.095ZM38.406,24.239C39.779,23.863 40.783,23.238 41.452,22.373C42.119,21.512 42.398,20.486 42.456,19.41C42.57,17.313 41.849,14.782 41.252,12.412C40.634,9.958 40.134,7.639 40.47,5.706C40.634,4.764 40.995,3.932 41.636,3.225C42.28,2.515 43.243,1.89 44.674,1.425L44.23,0.056C42.618,0.579 41.419,1.322 40.569,2.259C39.717,3.199 39.255,4.295 39.052,5.46C38.655,7.742 39.25,10.358 39.857,12.764C40.484,15.255 41.118,17.511 41.019,19.332C40.971,20.214 40.75,20.929 40.314,21.492C39.88,22.052 39.177,22.535 38.026,22.85L38.406,24.239ZM44.674,1.425C46.096,0.963 47.28,0.91 48.297,1.124C49.314,1.338 50.213,1.829 51.048,2.529C52.753,3.96 54.098,6.169 55.582,8.463C57.024,10.692 58.604,13.01 60.748,14.316C62.977,15.674 65.705,15.885 69.27,14.194L68.653,12.893C65.437,14.419 63.233,14.145 61.497,13.087C59.677,11.978 58.259,9.952 56.791,7.682C55.365,5.477 53.886,3.032 51.973,1.427C50.999,0.61 49.891,-0.012 48.592,-0.285C47.292,-0.558 45.852,-0.471 44.23,0.056L44.674,1.425Z" fill="#3A8483"/>
</svg>
