<svg width="96" height="96" viewBox="0 0 96 96" fill="none" xmlns="http://www.w3.org/2000/svg" xmlns:xlink="http://www.w3.org/1999/xlink">
<path d="M34.931,6.319L34.931,1.556C34.969,-0.431 37.931,-0.431 37.95,1.556L37.95,6.319C37.931,8.306 34.969,8.306 34.931,6.319ZM6.412,34.837L1.65,34.837C-0.338,34.875 -0.338,37.837 1.65,37.856L6.412,37.856C7.256,37.856 7.931,37.181 7.931,36.337C7.931,35.512 7.256,34.837 6.412,34.837ZM58.744,16.181L62.1,12.825C63.487,11.4 61.387,9.3 59.962,10.688L56.606,14.044C55.219,15.469 57.319,17.569 58.744,16.181ZM14.137,16.181C15.562,17.569 17.662,15.469 16.275,14.044L12.919,10.688C11.494,9.3 9.394,11.4 10.781,12.825L14.137,16.181ZM95.756,12.919L82.462,55.95C82.237,56.7 81.469,57.131 80.719,56.981L71.437,55.144L61.181,64.875C60.019,69.094 60.844,72.281 63.75,74.7C64.912,75.806 66.225,77.062 66.131,79.106C66.056,80.831 65.119,81.9 64.425,82.669C62.287,84.619 64.631,85.987 66.6,87.319C68.175,88.35 69.806,89.419 69.45,91.162C69.056,93.187 66.862,93.262 63.525,93.394C60.675,93.506 56.775,93.637 51.919,94.725C48.469,95.531 45.112,96.506 41.531,95.494C39.581,94.987 36.506,93.881 35.362,91.819L33.037,91.819C30.094,91.819 27.694,89.419 27.694,86.475L27.694,84.15L26.437,84.15C21.694,84.206 19.294,78.187 22.725,74.981C20.062,72.6 20.831,67.687 24.206,66.319C24.094,62.1 22.275,58.106 18.994,55.05C2.775,39.975 12.806,12.469 34.8,11.044C46.387,10.313 56.944,17.513 60.581,28.35C70.856,23.025 83.381,16.481 93.6,11.156C94.762,10.5 96.187,11.7 95.756,12.919ZM27.244,65.794L45.656,65.794C45.881,61.387 47.587,57.262 50.437,54.169C50.044,53.644 48,50.944 47.644,50.475L26.175,46.256C36.469,40.912 47.606,35.1 57.9,29.737C49.95,5.963 15.75,10.406 14.006,35.437C13.725,42 16.294,48.337 21.075,52.819C24.825,56.344 27,60.937 27.244,65.794ZM24.112,71.137C24.112,72.412 25.162,73.462 26.437,73.462L46.425,73.462C49.5,73.425 49.462,68.887 46.425,68.831L26.437,68.831C25.2,68.794 24.094,69.9 24.112,71.137ZM46.425,81.131C49.481,81.056 49.481,76.575 46.425,76.5L26.437,76.5C23.381,76.594 23.4,81.056 26.456,81.131L46.425,81.131ZM39.825,88.8C41.1,88.8 42.15,87.75 42.15,86.475L42.15,84.15L30.731,84.15L30.731,86.475C30.731,87.75 31.762,88.8 33.056,88.8L39.825,88.8ZM58.181,64.425L52.294,56.644C50.062,59.25 48.769,62.681 48.656,66.319C51.937,67.687 52.856,72.562 50.137,75C53.569,78.206 51.169,84.244 46.425,84.169L45.169,84.169L45.169,86.494C45.169,89.362 42.9,91.687 40.05,91.819C43.594,93.619 47.494,92.794 51.262,91.8C57.694,90.412 61.144,90.562 65.569,90.3C61.875,88.162 58.35,84.731 62.156,80.7C63.544,79.125 63.469,78.581 61.669,76.912C58.2,74.044 56.794,69.431 58.181,64.425ZM72.131,35.081L71.756,35.344L50.681,49.481L51.075,50.006L54.487,54.525L59.006,60.506L60.769,51.544C63.731,46.631 68.981,39.787 72.131,35.081ZM67.8,54.45C67.481,54.394 63.6,53.625 63.431,53.587L62.231,59.737L67.8,54.45ZM91.8,15.488C85.275,18.881 74.55,24.469 67.894,27.937C57.244,33.487 45.9,39.375 35.231,44.944L48.187,47.494L77.194,28.05C77.606,27.806 78.131,27.731 78.581,27.919C79.481,28.219 79.856,29.4 79.294,30.169C74.456,37.031 69.637,43.912 64.819,50.775L65.1,50.831L79.987,53.756L91.8,15.488ZM14.137,56.512L10.781,59.869C9.825,60.769 10.556,62.494 11.85,62.456C12.244,62.456 12.619,62.306 12.919,62.006L16.275,58.65C16.875,58.05 16.875,57.094 16.275,56.512C15.694,55.931 14.737,55.931 14.137,56.512Z" fill="#3A8483"/>
</svg>
