<svg width="150" height="94" viewBox="0 0 150 94" fill="none" xmlns="http://www.w3.org/2000/svg" xmlns:xlink="http://www.w3.org/1999/xlink">
<path d="M27.801,43.255L26.86,42.034L26.86,42.034L27.801,43.255ZM83.135,51.863L82.728,50.377L82.728,50.377L83.135,51.863ZM96.489,3.032L96.013,1.566L96.013,1.566L96.489,3.032ZM0.997,92.925C15.857,93.216 24.516,91.136 29.071,87.202C33.84,83.083 33.714,77.357 32.346,71.865C31.656,69.1 30.619,66.25 29.606,63.509C28.58,60.734 27.584,58.079 26.907,55.578C25.529,50.492 25.68,46.835 28.742,44.476L26.86,42.034C22.167,45.651 22.512,51.144 23.932,56.384C24.653,59.047 25.707,61.849 26.714,64.577C27.734,67.338 28.713,70.034 29.355,72.611C30.649,77.802 30.447,81.941 27.056,84.869C23.451,87.983 15.867,90.134 1.058,89.844L0.997,92.925ZM28.742,44.476C32.22,41.795 35.811,41.258 39.695,41.91C43.674,42.578 47.889,44.482 52.513,46.689C61.551,51.002 72.072,56.492 83.542,53.349L82.728,50.377C72.578,53.157 63.187,48.367 53.841,43.907C49.273,41.727 44.678,39.621 40.205,38.87C35.638,38.103 31.138,38.738 26.86,42.034L28.742,44.476ZM83.542,53.349C86.482,52.544 88.632,51.206 90.065,49.355C91.494,47.511 92.09,45.314 92.215,43.009C92.46,38.519 90.916,33.1 89.637,28.025C88.313,22.769 87.243,17.803 87.962,13.665C88.313,11.648 89.087,9.867 90.459,8.353C91.837,6.833 93.899,5.494 96.965,4.498L96.013,1.566C92.561,2.688 89.993,4.277 88.175,6.284C86.35,8.297 85.36,10.643 84.926,13.137C84.076,18.024 85.35,23.626 86.649,28.779C87.993,34.113 89.35,38.944 89.138,42.842C89.035,44.731 88.562,46.262 87.629,47.468C86.7,48.668 85.193,49.702 82.728,50.377L83.542,53.349ZM96.965,4.498C100.01,3.509 102.545,3.396 104.721,3.853C106.901,4.311 108.825,5.363 110.613,6.863C114.264,9.926 117.144,14.656 120.322,19.569C123.409,24.342 126.792,29.305 131.384,32.102C136.156,35.009 141.999,35.461 149.632,31.839L148.31,29.055C141.423,32.323 136.705,31.735 132.987,29.47C129.09,27.096 126.055,22.757 122.91,17.895C119.856,13.174 116.69,7.938 112.594,4.502C110.509,2.752 108.135,1.421 105.355,0.837C102.571,0.252 99.486,0.439 96.013,1.566L96.965,4.498Z" fill="#3A8483"/>
</svg>
