<svg width="150" height="94" viewBox="0 0 150 94" fill="none" xmlns="http://www.w3.org/2000/svg" xmlns:xlink="http://www.w3.org/1999/xlink">
<path d="M27.801,43.255L26.86,42.035L26.86,42.035L27.801,43.255ZM83.135,51.863L82.728,50.377L82.728,50.377L83.135,51.863ZM96.489,3.033L96.013,1.567L96.013,1.567L96.489,3.033ZM0.997,92.926C15.857,93.217 24.516,91.136 29.071,87.202C33.84,83.083 33.714,77.358 32.346,71.866C31.656,69.101 30.619,66.251 29.606,63.509C28.58,60.735 27.584,58.079 26.907,55.579C25.529,50.492 25.68,46.836 28.742,44.476L26.86,42.035C22.167,45.652 22.512,51.145 23.932,56.385C24.653,59.048 25.707,61.85 26.714,64.577C27.734,67.338 28.713,70.035 29.355,72.611C30.649,77.803 30.447,81.941 27.056,84.87C23.451,87.983 15.867,90.134 1.058,89.844L0.997,92.926ZM28.742,44.476C32.22,41.796 35.811,41.258 39.695,41.91C43.674,42.578 47.889,44.482 52.513,46.689C61.551,51.002 72.072,56.492 83.542,53.35L82.728,50.377C72.578,53.158 63.187,48.367 53.841,43.907C49.273,41.727 44.678,39.622 40.205,38.871C35.638,38.104 31.138,38.738 26.86,42.035L28.742,44.476ZM83.542,53.35C86.482,52.544 88.632,51.207 90.065,49.356C91.494,47.511 92.09,45.314 92.215,43.01C92.46,38.519 90.916,33.1 89.637,28.026C88.313,22.77 87.243,17.804 87.962,13.666C88.313,11.648 89.087,9.867 90.459,8.354C91.837,6.833 93.899,5.494 96.965,4.498L96.013,1.567C92.561,2.688 89.993,4.277 88.175,6.284C86.35,8.298 85.36,10.643 84.926,13.138C84.076,18.024 85.35,23.626 86.649,28.779C87.993,34.114 89.35,38.944 89.138,42.842C89.035,44.732 88.562,46.263 87.629,47.469C86.7,48.668 85.193,49.702 82.728,50.377L83.542,53.35ZM96.965,4.498C100.01,3.51 102.545,3.396 104.721,3.854C106.901,4.311 108.825,5.363 110.613,6.863C114.264,9.927 117.144,14.657 120.322,19.57C123.409,24.343 126.792,29.306 131.384,32.103C136.156,35.01 141.999,35.462 149.632,31.84L148.31,29.055C141.423,32.323 136.705,31.735 132.987,29.471C129.09,27.097 126.055,22.757 122.91,17.896C119.856,13.175 116.69,7.939 112.594,4.502C110.509,2.753 108.135,1.421 105.355,0.837C102.571,0.253 99.486,0.439 96.013,1.567L96.965,4.498Z" fill="#3A8483"/>
</svg>
