<svg width="150" height="94" viewBox="0 0 150 94" fill="none" xmlns="http://www.w3.org/2000/svg" xmlns:xlink="http://www.w3.org/1999/xlink">
<path d="M27.388,42.525L26.447,41.304L26.447,41.304L27.388,42.525ZM82.722,51.133L82.315,49.647L82.315,49.647L82.722,51.133ZM96.076,2.302L95.6,0.836L95.6,0.836L96.076,2.302ZM0.584,92.195C15.444,92.486 24.103,90.406 28.657,86.472C33.427,82.353 33.301,76.627 31.932,71.135C31.243,68.37 30.205,65.52 29.192,62.779C28.167,60.004 27.171,57.349 26.493,54.848C25.115,49.762 25.267,46.105 28.329,43.746L26.447,41.304C21.754,44.921 22.099,50.414 23.519,55.654C24.24,58.317 25.293,61.119 26.301,63.847C27.321,66.608 28.3,69.304 28.942,71.881C30.236,77.072 30.033,81.211 26.643,84.139C23.038,87.253 15.454,89.404 0.644,89.114L0.584,92.195ZM28.329,43.746C31.807,41.065 35.398,40.528 39.282,41.18C43.261,41.848 47.476,43.752 52.1,45.959C61.138,50.272 71.659,55.762 83.129,52.619L82.315,49.647C72.165,52.427 62.774,47.637 53.427,43.177C48.859,40.997 44.264,38.891 39.792,38.14C35.225,37.373 30.724,38.008 26.447,41.304L28.329,43.746ZM83.129,52.619C86.069,51.814 88.219,50.476 89.652,48.625C91.081,46.781 91.676,44.584 91.802,42.279C92.047,37.789 90.503,32.37 89.224,27.295C87.9,22.039 86.829,17.073 87.549,12.935C87.9,10.918 88.674,9.137 90.045,7.623C91.424,6.103 93.486,4.764 96.552,3.768L95.6,0.836C92.148,1.958 89.58,3.547 87.762,5.554C85.937,7.568 84.947,9.913 84.513,12.407C83.663,17.294 84.937,22.896 86.236,28.049C87.58,33.383 88.937,38.214 88.724,42.112C88.621,44.001 88.149,45.532 87.215,46.738C86.286,47.938 84.78,48.972 82.315,49.647L83.129,52.619ZM96.552,3.768C99.597,2.779 102.132,2.666 104.308,3.123C106.487,3.581 108.412,4.633 110.2,6.133C113.851,9.196 116.731,13.926 119.909,18.839C122.996,23.612 126.378,28.575 130.971,31.372C135.743,34.279 141.585,34.731 149.218,31.109L147.897,28.325C141.01,31.593 136.291,31.005 132.574,28.74C128.677,26.366 125.642,22.027 122.497,17.166C119.443,12.444 116.277,7.208 112.181,3.772C110.096,2.022 107.722,0.691 104.942,0.107C102.158,-0.478 99.072,-0.291 95.6,0.836L96.552,3.768Z" fill="#3A8483"/>
</svg>
