<svg width="16" height="8" viewBox="0 0 16 8" fill="none" xmlns="http://www.w3.org/2000/svg" xmlns:xlink="http://www.w3.org/1999/xlink">
<path d="M0,0.005C0.131,0.005 0.261,0.031 0.383,0.082C0.504,0.133 0.614,0.208 0.706,0.302L5.82,5.482C5.974,5.639 6.158,5.763 6.36,5.848C6.562,5.933 6.779,5.976 6.998,5.976C7.217,5.976 7.433,5.933 7.636,5.848C7.838,5.763 8.021,5.639 8.176,5.482L13.281,0.309C13.374,0.212 13.484,0.135 13.606,0.082C13.728,0.029 13.859,0.001 13.992,0C14.124,-0.001 14.256,0.024 14.379,0.075C14.502,0.126 14.613,0.202 14.707,0.297C14.801,0.392 14.875,0.505 14.926,0.629C14.976,0.754 15.001,0.887 15,1.021C14.999,1.156 14.971,1.289 14.919,1.412C14.866,1.536 14.79,1.648 14.695,1.741L9.59,6.914C8.902,7.609 7.97,8 6.998,8C6.026,8 5.094,7.609 4.406,6.914L-0.707,1.734C-0.847,1.593 -0.942,1.412 -0.981,1.216C-1.019,1.019 -1,0.816 -0.924,0.63C-0.848,0.445 -0.72,0.287 -0.556,0.176C-0.391,0.065 -0.198,0.005 0,0.005Z" fill="#000000"/>
</svg>
