<svg width="66" height="72" viewBox="0 0 66 72" fill="none" xmlns="http://www.w3.org/2000/svg" xmlns:xlink="http://www.w3.org/1999/xlink">
<path d="M64.278,9.679L61.201,6.97L64.278,4.261C64.756,3.839 64.92,3.182 64.695,2.585C64.469,1.988 63.912,1.602 63.274,1.602L50.542,1.602L50.542,1.055C50.542,0.472 50.07,0 49.487,0C48.904,0 48.431,0.472 48.431,1.055L48.431,15.287L39.765,19.993C39.717,19.612 39.603,19.237 39.422,18.884L38.201,16.5C37.363,14.863 35.349,14.215 33.713,15.052L32.769,15.536C31.976,15.942 31.388,16.632 31.115,17.48C30.841,18.328 30.914,19.232 31.321,20.024L32.542,22.409C32.827,22.965 33.248,23.406 33.744,23.714C33.096,24.587 32.788,25.661 32.472,26.776L32.244,27.581C32.086,28.142 32.412,28.725 32.973,28.884C33.068,28.911 33.165,28.924 33.26,28.924C33.72,28.924 34.143,28.62 34.275,28.155L34.502,27.352C34.965,25.721 35.249,24.847 36.153,24.356L37.774,23.476L37.974,23.373C38.041,23.339 38.103,23.301 38.166,23.263L49.719,16.989C49.646,18.433 48.869,19.798 47.589,20.575L40.076,25.14C40.067,25.145 40.058,25.15 40.05,25.155L37.712,26.576C37.214,26.879 37.055,27.528 37.358,28.026C37.643,28.496 38.236,28.663 38.72,28.427L36.946,33.791L35.649,34.322L32.122,35.768L33.139,32.175C33.297,31.614 32.971,31.031 32.41,30.872C31.849,30.713 31.266,31.04 31.107,31.6L29.502,37.279C29.481,37.352 29.467,37.432 29.464,37.508L29.043,45.227C29.031,45.522 29.093,46.078 28.957,46.366L24.29,56.184L20.899,56.184C18.912,56.184 17.296,57.8 17.296,59.786L17.296,62.832C16.841,62.624 16.336,62.508 15.804,62.508L7.191,62.508C5.205,62.508 3.589,64.123 3.589,66.11L3.589,69.889L1.055,69.889C0.472,69.889 0,70.362 0,70.945C0,71.527 0.472,72 1.055,72L63.273,72C63.856,72 64.328,71.527 64.328,70.945C64.328,70.362 63.856,69.889 63.273,69.889L60.529,69.889L60.529,42.69C60.529,40.704 58.912,39.088 56.926,39.088L50.542,39.088L50.542,20.678C51.712,19.093 52.145,17.014 51.602,15.039C51.517,14.728 51.295,14.473 50.998,14.348C50.852,14.285 50.696,14.258 50.542,14.264L50.542,12.338L63.273,12.338C63.912,12.338 64.469,11.952 64.695,11.355C64.92,10.759 64.756,10.101 64.278,9.679L64.278,9.679ZM33.124,18.128C33.224,17.817 33.44,17.563 33.731,17.414L34.675,16.931C34.853,16.84 35.043,16.796 35.231,16.796C35.676,16.796 36.106,17.04 36.322,17.462L37.544,19.847C37.829,20.404 37.645,21.079 37.138,21.42L36.794,21.606L36.068,21.978C35.468,22.286 34.728,22.047 34.421,21.446L33.199,19.062C33.05,18.771 33.023,18.439 33.124,18.128L33.124,18.128ZM31.003,56.509C30.645,56.345 30.255,56.238 29.845,56.2L31.003,54.661L31.003,56.509ZM36.014,48.006C36.521,47.398 36.661,46.687 36.774,46.115C36.803,45.979 37.324,43.134 37.324,43.134C37.324,43.134 37.817,43.442 37.868,43.463C37.904,43.479 37.929,43.515 37.933,43.556L38.507,49.391L34.971,49.391L36.014,48.006ZM42.254,42.181L41.363,49.386L40.627,49.386L40.034,43.349C39.958,42.576 39.484,41.901 38.79,41.565L37.729,40.892L38.436,36.974C38.436,36.974 41.415,40.512 41.484,40.602C42.1,41.404 42.311,41.724 42.254,42.181ZM30.856,47.288C31.069,46.647 31.168,45.994 31.151,45.329L31.535,38.289L36.415,36.289L35.528,41.204C35.525,41.217 35.523,41.231 35.521,41.244L34.787,45.307C34.691,45.728 34.608,46.366 34.345,46.713L27.215,56.184L26.627,56.184L30.856,47.288ZM5.699,66.11C5.699,65.287 6.368,64.618 7.191,64.618L15.804,64.618C16.627,64.618 17.296,65.287 17.296,66.11L17.296,69.889L5.699,69.889L5.699,66.11ZM19.406,66.11L19.406,59.786C19.406,58.964 20.076,58.294 20.899,58.294L29.511,58.294C30.334,58.294 31.003,58.964 31.003,59.786L31.003,69.889L19.407,69.889L19.407,66.11L19.406,66.11ZM58.418,42.69L58.418,69.889L46.821,69.889L46.821,63.562C46.821,62.98 46.349,62.507 45.766,62.507C45.183,62.507 44.71,62.98 44.71,63.562L44.71,69.889L33.114,69.889L33.114,52.993C33.114,52.171 33.783,51.502 34.606,51.502L43.218,51.502C44.041,51.502 44.71,52.171 44.71,52.993L44.71,58.283C44.71,58.866 45.183,59.338 45.766,59.338C46.349,59.338 46.821,58.866 46.821,58.283L46.821,42.69C46.821,41.867 47.491,41.198 48.313,41.198L49.476,41.198C49.479,41.198 49.483,41.199 49.487,41.199C49.49,41.199 49.494,41.198 49.497,41.198L56.926,41.198C57.748,41.198 58.418,41.868 58.418,42.69L58.418,42.69ZM48.313,39.088C46.327,39.088 44.711,40.704 44.711,42.69L44.711,49.716C44.333,49.543 43.921,49.434 43.488,49.402L44.348,42.441C44.518,41.084 43.825,40.185 43.156,39.315C43.086,39.223 38.984,34.353 38.984,34.353L41.5,26.745L48.431,22.533L48.431,39.088L48.313,39.088ZM50.542,10.227L50.542,3.713L61.706,3.713L59.301,5.83C58.974,6.119 58.786,6.534 58.786,6.97C58.786,7.406 58.974,7.822 59.301,8.11L61.706,10.227L50.542,10.227L50.542,10.227Z" fill="#FFFFFF"/>
</svg>
