<svg width="324" height="340" viewBox="0 0 324 340" fill="none" xmlns="http://www.w3.org/2000/svg" xmlns:xlink="http://www.w3.org/1999/xlink">
<path d="M270.935,41.244L273.119,39.241L273.119,39.241L270.935,41.244ZM287.075,161.691L284.155,162.204L284.155,162.204L287.075,161.691ZM314.133,286.958L316.661,288.506L316.661,288.506L314.133,286.958ZM189.966,320.138L189.552,317.202L189.552,317.202L189.966,320.138ZM58.659,323.06L60.52,320.752L60.52,320.752L58.659,323.06ZM34.575,194.818L31.66,195.356L31.66,195.356L34.575,194.818ZM9.726,57.659L7.146,56.2L7.146,56.2L9.726,57.659ZM142.442,3.945L142.628,6.903L142.628,6.903L142.442,3.945ZM268.749,43.247C282.289,58.015 284.535,76.729 284.073,97.581C283.837,108.179 282.949,118.558 282.551,129.658C282.159,140.523 282.279,151.524 284.155,162.204L289.995,161.178C288.223,151.105 288.089,140.588 288.475,129.872C288.851,119.39 289.769,108.124 289.999,97.713C290.469,76.547 288.293,55.791 273.119,39.241L268.749,43.247ZM284.155,162.204C286.137,173.476 290.335,184.68 295.053,195.608C299.857,206.736 304.997,217.156 309.355,227.788C317.993,248.868 322.275,268 311.607,285.408L316.661,288.506C328.957,268.446 323.551,246.798 314.841,225.54C310.523,215.002 305.073,203.862 300.495,193.258C295.831,182.456 291.855,171.759 289.995,161.178L284.155,162.204ZM311.607,285.408C300.777,303.076 281.965,309.638 259.593,312.406C248.429,313.788 236.591,314.2 224.649,314.66C212.763,315.116 200.774,315.616 189.552,317.202L190.381,323.072C201.257,321.536 212.947,321.042 224.877,320.584C236.747,320.128 248.855,319.708 260.321,318.29C283.205,315.458 304.377,308.55 316.661,288.506L311.607,285.408ZM189.552,317.202C178.144,318.814 166.409,321.626 154.799,324.44C143.137,327.27 131.603,330.1 120.377,331.844C97.912,335.334 77.381,334.35 60.52,320.752L56.798,325.368C75.622,340.548 98.261,341.28 121.287,337.702C132.807,335.912 144.599,333.014 156.196,330.202C167.847,327.378 179.306,324.638 190.381,323.072L189.552,317.202ZM60.52,320.752C43.845,307.304 39.897,287.546 39.342,264.804C39.064,253.402 39.635,241.652 39.768,229.62C39.9,217.702 39.593,205.686 37.49,194.281L31.66,195.356C33.656,206.182 33.971,217.734 33.84,229.556C33.711,241.264 33.135,253.428 33.416,264.95C33.979,288.056 37.974,310.186 56.798,325.368L60.52,320.752ZM37.49,194.281C35.248,182.124 31.047,170.008 26.452,158.133C21.817,146.155 16.851,134.586 12.84,123.067C4.834,100.073 1.208,78.757 12.307,59.117L7.146,56.2C-5.29,78.206 -0.871,101.717 7.241,125.016C11.289,136.642 16.401,148.586 20.923,160.272C25.485,172.061 29.522,183.76 31.66,195.356L37.49,194.281ZM12.307,59.117C23.954,38.507 43.906,26.21 67.424,18.675C90.965,11.132 117.755,8.466 142.628,6.903L142.256,0.986C117.325,2.553 89.906,5.246 65.615,13.029C41.3,20.82 19.796,33.815 7.146,56.2L12.307,59.117ZM142.628,6.903C188.483,4.021 238.333,10.072 268.749,43.247L273.119,39.241C240.759,3.947 188.426,-1.915 142.256,0.986L142.628,6.903Z" fill="#3A8483"/>
</svg>
