<svg width="48" height="36" viewBox="0 0 48 36" fill="none" xmlns="http://www.w3.org/2000/svg" xmlns:xlink="http://www.w3.org/1999/xlink">
<path d="M45,36L3,36C1.343,36 0,34.657 0,33C0,31.343 1.343,30 3,30L45,30C46.657,30 48,31.343 48,33C48,34.657 46.657,36 45,36ZM45,21L3,21C1.343,21 0,19.657 0,18C0,16.343 1.343,15 3,15L45,15C46.657,15 48,16.343 48,18C48,19.657 46.657,21 45,21ZM45,6L3,6C1.343,6 0,4.657 0,3C0,1.343 1.343,0 3,0L45,0C46.657,0 48,1.343 48,3C48,4.657 46.657,6 45,6Z" fill="#3A8483"/>
</svg>
