<svg width="324" height="206" viewBox="0 0 324 206" fill="none" xmlns="http://www.w3.org/2000/svg" xmlns:xlink="http://www.w3.org/1999/xlink">
<path d="M197.814,184.658L199.311,184.759L197.814,184.658ZM147.177,72.33L148.596,72.815L147.177,72.33ZM160.211,70.503L161.364,69.543L160.211,70.503ZM198.084,172.706L196.585,172.73L196.585,172.73L198.084,172.706ZM3.406,117.58C4.201,115.548 5.042,113.491 5.929,111.417L3.17,110.238C2.272,112.341 1.419,114.426 0.613,116.486L3.406,117.58ZM11.533,99.318C13.498,95.391 15.611,91.462 17.867,87.581L15.274,86.074C12.985,90.011 10.842,93.996 8.85,97.975L11.533,99.318ZM24.953,76.294C27.455,72.605 30.089,69.017 32.849,65.58L30.509,63.702C27.695,67.206 25.014,70.86 22.47,74.61L24.953,76.294ZM41.641,55.628C44.781,52.417 48.047,49.43 51.433,46.722L49.559,44.379C46.068,47.171 42.712,50.242 39.496,53.531L41.641,55.628ZM62.308,39.284C66.172,37.078 70.16,35.257 74.264,33.887L73.313,31.041C69.006,32.479 64.839,34.384 60.821,36.678L62.308,39.284ZM87.026,31.18C91.261,30.792 95.609,30.897 100.065,31.56L100.506,28.592C95.813,27.894 91.225,27.783 86.752,28.193L87.026,31.18ZM112.728,34.895C116.596,36.354 120.539,38.244 124.555,40.606L126.076,38.021C121.923,35.578 117.825,33.612 113.788,32.088L112.728,34.895ZM135.426,48.049C138.738,50.635 142.092,53.546 145.487,56.803L147.563,54.638C144.101,51.316 140.67,48.338 137.273,45.684L135.426,48.049ZM154.652,66.342C156.114,67.984 157.583,69.69 159.058,71.462L161.364,69.543C159.868,67.746 158.377,66.014 156.892,64.347L154.652,66.342ZM159.058,71.462C160.526,73.226 161.955,75.02 163.343,76.843L165.73,75.025C164.315,73.168 162.86,71.34 161.364,69.543L159.058,71.462ZM171.201,88.132C173.66,92.007 175.952,95.984 178.072,100.048L180.732,98.661C178.573,94.522 176.238,90.471 173.734,86.524L171.201,88.132ZM183.916,112.502C185.689,116.733 187.285,121.038 188.697,125.402L191.551,124.478C190.113,120.034 188.488,115.651 186.683,111.343L183.916,112.502ZM192.381,138.656C193.422,143.121 194.275,147.632 194.935,152.173L197.904,151.742C197.231,147.116 196.362,142.522 195.302,137.975L192.381,138.656ZM196.33,165.856C196.464,168.144 196.549,170.435 196.585,172.73L199.584,172.683C199.548,170.346 199.462,168.011 199.325,165.68L196.33,165.856ZM196.585,172.73C196.6,173.728 196.607,174.717 196.605,175.693L199.605,175.699C199.607,174.704 199.6,173.699 199.584,172.683L196.585,172.73ZM196.479,181.61C196.437,182.609 196.383,183.592 196.318,184.557L199.311,184.759C199.378,183.768 199.433,182.76 199.476,181.737L196.479,181.61ZM196.318,184.557C196.141,187.173 195.86,189.467 195.489,191.462L198.438,192.011C198.835,189.881 199.128,187.467 199.311,184.759L196.318,184.557ZM189.751,201.86C188.531,202.244 187.03,202.094 185.2,201.22C183.365,200.343 181.315,198.788 179.122,196.578L176.992,198.69C179.322,201.039 181.649,202.848 183.907,203.926C186.17,205.008 188.48,205.406 190.654,204.72L189.751,201.86ZM170.668,185.738C168.342,182.153 166.021,178.09 163.776,173.655L161.099,175.009C163.386,179.527 165.759,183.684 168.151,187.371L170.668,185.738ZM157.999,160.968C156.28,156.767 154.661,152.377 153.184,147.863L150.333,148.796C151.833,153.379 153.476,157.837 155.223,162.105L157.999,160.968ZM149.328,134.446C148.209,129.929 147.259,125.356 146.514,120.786L143.553,121.269C144.312,125.924 145.279,130.577 146.416,135.167L149.328,134.446ZM144.92,106.958C144.615,102.24 144.575,97.594 144.84,93.084L141.845,92.907C141.572,97.555 141.614,102.325 141.926,107.151L144.92,106.958ZM146.728,79.419C147.246,77.152 147.866,74.948 148.596,72.815L145.757,71.844C144.992,74.082 144.343,76.389 143.803,78.751L146.728,79.419ZM148.596,72.815C149.292,70.781 150.017,68.774 150.772,66.798L147.969,65.728C147.202,67.738 146.465,69.778 145.757,71.844L148.596,72.815ZM155.779,55.039C157.64,51.112 159.629,47.347 161.746,43.767L159.164,42.24C156.997,45.904 154.965,49.751 153.068,53.755L155.779,55.039ZM168.796,33.178C171.403,29.709 174.158,26.495 177.057,23.566L174.924,21.455C171.922,24.489 169.08,27.807 166.398,31.376L168.796,33.178ZM186.636,15.335C190.096,12.846 193.722,10.729 197.508,9.02L196.274,6.285C192.294,8.082 188.497,10.302 184.884,12.899L186.636,15.335ZM209.426,5.138C213.434,4.309 217.6,3.901 221.922,3.955L221.96,0.955C217.422,0.899 213.04,1.326 208.818,2.2L209.426,5.138ZM234.426,5.338C238.36,6.145 242.414,7.315 246.582,8.873L247.632,6.063C243.328,4.454 239.126,3.24 235.028,2.399L234.426,5.338ZM258.142,14.054C261.726,15.921 265.386,18.062 269.12,20.494L270.756,17.98C266.946,15.499 263.204,13.308 259.528,11.394L258.142,14.054ZM279.542,27.894C282.794,30.392 286.096,33.103 289.452,36.035L291.426,33.776C288.026,30.805 284.674,28.053 281.368,25.515L279.542,27.894ZM298.836,44.692C301.796,47.564 304.794,50.604 307.826,53.817L310.008,51.758C306.946,48.514 303.918,45.443 300.926,42.539L298.836,44.692ZM316.454,63.315C317.862,64.924 319.278,66.57 320.7,68.252L322.992,66.315C321.558,64.62 320.13,62.961 318.71,61.339L316.454,63.315Z" transform="rotate(-53.147 161.927 107.189)" fill="#000000" fill-opacity="0.75"/>
</svg>
