<svg width="46" height="38" viewBox="0 0 46 38" fill="none" xmlns="http://www.w3.org/2000/svg" xmlns:xlink="http://www.w3.org/1999/xlink">
<path d="M13.648,36.288C30.626,36.288 39.921,22.219 39.921,10.015C39.921,9.619 39.921,9.216 39.892,8.82C41.699,7.51 43.262,5.897 44.5,4.039C42.815,4.788 41.03,5.278 39.201,5.494C41.131,4.342 42.571,2.527 43.262,0.389C41.447,1.462 39.467,2.225 37.401,2.628C33.902,-1.087 28.055,-1.267 24.34,2.225C21.943,4.478 20.927,7.841 21.669,11.045C14.246,10.67 7.327,7.164 2.639,1.397C0.191,5.616 1.437,11.009 5.498,13.723C4.029,13.68 2.589,13.284 1.307,12.571C1.307,12.607 1.307,12.65 1.307,12.686C1.307,17.078 4.403,20.866 8.716,21.737C7.355,22.104 5.93,22.162 4.547,21.895C5.757,25.654 9.22,28.231 13.173,28.31C9.904,30.881 5.865,32.278 1.711,32.27C0.976,32.27 0.242,32.227 -0.485,32.134C3.719,34.848 8.637,36.288 13.648,36.281Z" fill="#FFFFFF"/>
</svg>
