<svg width="48" height="48" viewBox="0 0 48 48" fill="none" xmlns="http://www.w3.org/2000/svg" xmlns:xlink="http://www.w3.org/1999/xlink">
<path d="M16.664,11.271C16.526,11.695 16.662,12.15 17.01,12.43L20.107,14.919L19.065,18.753C18.948,19.184 19.105,19.631 19.466,19.894C19.828,20.156 20.302,20.168 20.675,19.923L24,17.747L27.324,19.924C27.498,20.038 27.701,20.099 27.908,20.099C28.133,20.099 28.352,20.027 28.533,19.894C28.895,19.632 29.052,19.184 28.935,18.753L27.893,14.919L30.989,12.43C31.337,12.15 31.473,11.695 31.335,11.271C31.197,10.846 30.82,10.558 30.374,10.536L26.406,10.343L24.995,6.628C24.837,6.211 24.446,5.941 24,5.941C23.553,5.941 23.162,6.211 23.004,6.628L21.594,10.343L17.625,10.536C17.179,10.558 16.802,10.846 16.664,11.271ZM21.951,11.827C22.158,11.817 22.358,11.747 22.525,11.625C22.693,11.503 22.821,11.335 22.895,11.141L24,8.232L25.104,11.142C25.178,11.335 25.306,11.503 25.474,11.625C25.642,11.747 25.841,11.817 26.048,11.827L29.156,11.979L26.73,13.928C26.569,14.058 26.449,14.232 26.385,14.429C26.321,14.626 26.316,14.838 26.37,15.038L27.187,18.041L24.583,16.336C24.409,16.223 24.207,16.162 23.999,16.162C23.792,16.162 23.59,16.223 23.416,16.336L20.812,18.041L21.629,15.038C21.683,14.838 21.678,14.626 21.614,14.429C21.55,14.232 21.43,14.058 21.268,13.928L18.843,11.979L21.951,11.827ZM23.25,3.502L23.25,0.75C23.25,0.551 23.329,0.36 23.469,0.22C23.61,0.079 23.801,0 24,0C24.199,0 24.389,0.079 24.53,0.22C24.671,0.36 24.75,0.551 24.75,0.75L24.75,3.502C24.75,3.701 24.671,3.892 24.53,4.033C24.389,4.173 24.199,4.252 24,4.252C23.801,4.252 23.61,4.173 23.469,4.033C23.329,3.892 23.25,3.701 23.25,3.502ZM27.817,7.946C27.684,7.798 27.615,7.603 27.625,7.405C27.636,7.206 27.725,7.02 27.872,6.887L30.94,4.125C31.013,4.059 31.098,4.008 31.191,3.975C31.284,3.942 31.382,3.928 31.481,3.933C31.579,3.939 31.675,3.963 31.764,4.005C31.853,4.048 31.933,4.107 31.999,4.18C32.065,4.254 32.116,4.339 32.148,4.432C32.181,4.525 32.196,4.623 32.19,4.722C32.185,4.82 32.161,4.916 32.118,5.005C32.076,5.094 32.016,5.174 31.943,5.24L28.876,8.001C28.739,8.126 28.56,8.194 28.375,8.194C28.269,8.194 28.165,8.172 28.069,8.129C27.973,8.087 27.887,8.024 27.817,7.946ZM16,4.18C16.066,4.107 16.146,4.048 16.235,4.005C16.324,3.963 16.42,3.939 16.519,3.933C16.617,3.928 16.715,3.942 16.808,3.975C16.901,4.008 16.986,4.059 17.06,4.125L20.127,6.887C20.275,7.02 20.363,7.206 20.374,7.405C20.384,7.603 20.315,7.798 20.182,7.946C20.049,8.094 19.863,8.183 19.664,8.193C19.465,8.203 19.271,8.134 19.123,8.001L16.056,5.24C15.908,5.107 15.819,4.92 15.809,4.722C15.798,4.523 15.867,4.328 16,4.18ZM33.622,12.43L36.719,14.919L35.676,18.753C35.559,19.184 35.717,19.631 36.078,19.894C36.439,20.156 36.913,20.168 37.287,19.923L40.611,17.747L43.936,19.924C44.109,20.038 44.312,20.099 44.52,20.099C44.745,20.099 44.963,20.027 45.145,19.894C45.506,19.632 45.664,19.184 45.547,18.753L44.504,14.919L47.601,12.43C47.949,12.15 48.085,11.695 47.947,11.271C47.809,10.846 47.432,10.558 46.986,10.536L43.017,10.343L41.607,6.628C41.449,6.211 41.058,5.941 40.611,5.941C40.165,5.941 39.774,6.211 39.616,6.628L38.206,10.343L34.237,10.536C33.791,10.558 33.414,10.846 33.276,11.271C33.138,11.695 33.274,12.15 33.622,12.43ZM38.563,11.827C38.77,11.817 38.969,11.747 39.137,11.625C39.305,11.503 39.433,11.335 39.507,11.141L40.611,8.232L41.716,11.141C41.789,11.335 41.918,11.503 42.085,11.625C42.253,11.747 42.453,11.817 42.66,11.827L45.768,11.979L43.342,13.928C43.181,14.058 43.061,14.232 42.997,14.429C42.933,14.626 42.927,14.838 42.982,15.037L43.798,18.041L41.194,16.336C41.021,16.223 40.818,16.162 40.611,16.162C40.404,16.162 40.201,16.223 40.028,16.336L37.424,18.041L38.241,15.038C38.295,14.838 38.29,14.626 38.226,14.429C38.162,14.232 38.042,14.058 37.88,13.928L35.454,11.979L38.563,11.827ZM0.398,12.43L3.495,14.919L2.453,18.753C2.336,19.184 2.493,19.631 2.854,19.894C3.216,20.156 3.69,20.168 4.063,19.923L7.388,17.747L10.713,19.924C10.886,20.038 11.089,20.099 11.296,20.099C11.521,20.099 11.74,20.027 11.921,19.894C12.283,19.632 12.44,19.184 12.323,18.753L11.281,14.919L14.378,12.43C14.725,12.151 14.861,11.696 14.723,11.27C14.585,10.846 14.208,10.558 13.762,10.536L9.794,10.343L8.383,6.628C8.225,6.211 7.834,5.941 7.388,5.941C6.942,5.941 6.551,6.211 6.392,6.628L4.982,10.343L1.014,10.536C0.568,10.558 0.19,10.846 0.053,11.27C-0.086,11.695 0.05,12.15 0.398,12.43ZM5.339,11.827C5.546,11.817 5.746,11.747 5.914,11.625C6.081,11.503 6.21,11.335 6.283,11.141L7.388,8.232L8.492,11.141C8.566,11.335 8.694,11.503 8.862,11.625C9.03,11.747 9.229,11.817 9.436,11.827L12.545,11.979L10.119,13.928C9.957,14.058 9.837,14.232 9.773,14.429C9.709,14.626 9.704,14.838 9.758,15.037L10.575,18.041L7.971,16.336C7.797,16.223 7.595,16.162 7.388,16.162C7.18,16.162 6.978,16.223 6.804,16.336L4.201,18.041L5.017,15.038C5.071,14.838 5.066,14.626 5.002,14.429C4.938,14.232 4.818,14.058 4.657,13.928L2.231,11.979L5.339,11.827ZM47.882,39.837C47.354,38.133 46.273,36.603 44.838,35.529C44.16,35.02 43.411,34.616 42.614,34.33C43.708,33.471 44.413,32.138 44.413,30.642C44.413,28.058 42.31,25.956 39.726,25.956C37.142,25.956 35.039,28.058 35.039,30.642C35.039,32.136 35.743,33.468 36.835,34.327C35.371,34.849 34.074,35.767 33.082,37.004C32.614,36.349 32.077,35.747 31.48,35.207C30.28,34.121 28.858,33.31 27.312,32.829C28.937,31.752 30.012,29.907 30.012,27.816C30.012,24.501 27.315,21.804 24,21.804C20.685,21.804 17.988,24.501 17.988,27.816C17.988,29.907 19.062,31.752 20.687,32.829C19.141,33.31 17.719,34.121 16.519,35.207C15.922,35.747 15.385,36.349 14.918,37.004C13.925,35.767 12.628,34.849 11.165,34.326C12.257,33.468 12.96,32.136 12.96,30.642C12.96,28.058 10.858,25.955 8.273,25.955C5.689,25.955 3.586,28.058 3.586,30.642C3.586,32.138 4.291,33.471 5.386,34.329C4.589,34.616 3.839,35.02 3.161,35.528C1.726,36.603 0.645,38.133 0.118,39.837C-0.126,40.624 0.009,41.423 0.498,42.087C0.987,42.75 1.71,43.115 2.534,43.115L12.902,43.115L12.902,44.469C12.902,46.416 14.486,48 16.434,48L31.566,48C33.513,48 35.097,46.416 35.097,44.469L35.097,43.116L45.465,43.116C46.289,43.116 47.012,42.75 47.501,42.087C47.99,41.423 48.125,40.625 47.882,39.837ZM39.726,27.456C41.483,27.456 42.913,28.885 42.913,30.642C42.913,32.4 41.483,33.829 39.726,33.829C37.969,33.829 36.539,32.4 36.539,30.642C36.539,28.885 37.969,27.456 39.726,27.456ZM19.488,27.816C19.488,25.328 21.512,23.304 24,23.304C26.488,23.304 28.512,25.328 28.512,27.816C28.512,30.303 26.489,32.326 24.002,32.328L23.997,32.328C21.51,32.326 19.488,30.303 19.488,27.816ZM8.273,27.455C10.03,27.455 11.46,28.885 11.46,30.642C11.46,32.399 10.03,33.829 8.273,33.829C6.516,33.829 5.086,32.399 5.086,30.642C5.086,28.885 6.516,27.455 8.273,27.455ZM13,41.615L2.534,41.615C2.189,41.615 1.91,41.474 1.705,41.196C1.5,40.919 1.448,40.611 1.551,40.281C2.468,37.319 5.17,35.329 8.273,35.329C10.621,35.329 12.76,36.463 14.075,38.383C13.553,39.399 13.19,40.489 13,41.615ZM33.597,44.469C33.597,45.589 32.686,46.5 31.566,46.5L16.434,46.5C15.313,46.5 14.402,45.589 14.402,44.469L14.402,42.406C14.945,37.513 19.063,33.829 23.997,33.828L24,33.828L24.002,33.828C28.936,33.829 33.054,37.513 33.597,42.406L33.597,44.469ZM46.294,41.197C46.089,41.475 45.81,41.616 45.465,41.616L35,41.616C34.81,40.489 34.447,39.399 33.924,38.384C35.24,36.463 37.378,35.329 39.726,35.329C42.83,35.329 45.532,37.319 46.449,40.281C46.551,40.611 46.499,40.919 46.294,41.197Z" fill="#FFFFFF"/>
</svg>
