<svg width="1980" height="440" viewBox="0 0 1980 440" fill="none" xmlns="http://www.w3.org/2000/svg" xmlns:xlink="http://www.w3.org/1999/xlink">
<path d="M61.243,112.583L55.035,100.904L54.962,100.943L54.89,100.982L61.243,112.583ZM335.135,13.772L333.951,0.599L333.949,0.599L335.135,13.772ZM663.149,122.46L670.871,111.723L670.871,111.723L663.149,122.46ZM991.161,379.362L984.881,391.002L984.881,391.002L991.161,379.362ZM1921.079,241.03L1925.617,228.606L1925.557,228.584L1925.497,228.564L1921.079,241.03ZM13.474,153.824L67.596,124.183L54.89,100.982L0.768,130.623L13.474,153.824ZM67.452,124.261C123.709,94.354 229.565,36.545 336.319,26.945L333.949,0.599C220.935,10.762 110.302,71.522 55.035,100.904L67.452,124.261ZM336.319,26.946C441.997,17.444 547.121,55.288 655.425,133.197L670.871,111.723C559.407,31.54 448.043,-9.66 333.951,0.599L336.319,26.946ZM655.425,133.197C709.753,172.279 763.603,221.076 818.527,268.346C873.043,315.266 928.541,360.604 984.881,391.002L997.441,367.722C943.899,338.834 890.331,295.244 835.783,248.296C781.641,201.7 726.429,151.689 670.871,111.723L655.425,133.197ZM984.881,391.002C1098.619,452.364 1211.205,452.286 1324.599,401.304L1313.751,377.178C1207.377,425.004 1103.473,424.926 997.441,367.72L984.881,391.002ZM1324.599,401.304C1380.657,376.102 1436.317,338.286 1490.265,304.074C1544.863,269.45 1597.859,238.394 1650.633,224.158L1643.743,198.618C1586.635,214.024 1530.565,247.194 1476.099,281.734C1420.983,316.688 1367.577,352.978 1313.751,377.178L1324.599,401.304ZM1650.633,224.158C1755.993,195.736 1860.441,233.572 1916.661,253.496L1925.497,228.564C1870.195,208.964 1758.153,167.755 1643.743,198.618L1650.633,224.158ZM1916.543,253.454L1970.665,273.216L1979.739,248.368L1925.617,228.606L1916.543,253.454Z" fill="url(#ps_0_3_3551)"/>
<defs>
<linearGradient id="ps_0_3_3551" x1="991.162" y1="12.282" x2="991.162" y2="557.217" gradientUnits="userSpaceOnUse">
<stop offset="0.182" stop-color="#3A8483" stop-opacity="0.05"/>
<stop offset="0.844" stop-color="#FFFFFF" stop-opacity="0.05"/>
</linearGradient>
</defs>
</svg>
