<svg width="64" height="70" viewBox="0 0 64 70" fill="none" xmlns="http://www.w3.org/2000/svg" xmlns:xlink="http://www.w3.org/1999/xlink">
<path d="M39.493,42.255C39.574,42.443 39.706,42.606 39.873,42.726C40.041,42.845 40.238,42.916 40.443,42.932C40.648,42.947 40.853,42.906 41.037,42.812C41.22,42.719 41.374,42.577 41.482,42.403L44.208,38.01L49.272,39.047C49.474,39.088 49.683,39.074 49.876,39.005C50.07,38.935 50.241,38.815 50.371,38.655C50.5,38.496 50.584,38.304 50.612,38.1C50.641,37.896 50.613,37.689 50.532,37.5L46.771,28.768C46.886,28.719 47.003,28.669 47.127,28.616C49.067,27.785 50.201,25.82 49.951,23.725C49.905,23.336 49.861,22.989 49.822,22.679C49.666,21.432 49.587,20.806 49.672,20.328C49.756,19.85 50.044,19.289 50.617,18.171C50.76,17.892 50.919,17.582 51.096,17.232C52.048,15.349 51.654,13.114 50.115,11.67C49.83,11.402 49.574,11.165 49.344,10.951C48.423,10.097 47.961,9.668 47.718,9.248C47.475,8.827 47.335,8.212 47.056,6.987C46.986,6.682 46.908,6.342 46.819,5.96C46.338,3.906 44.599,2.447 42.492,2.33C42.101,2.308 41.753,2.291 41.44,2.275C40.185,2.213 39.555,2.181 39.099,2.015C38.643,1.849 38.14,1.468 37.139,0.709C36.859,0.497 36.578,0.285 36.297,0.075C34.608,-1.19 32.338,-1.19 30.649,0.075C30.368,0.285 30.088,0.497 29.808,0.709C28.806,1.468 28.304,1.849 27.847,2.015C27.391,2.181 26.761,2.213 25.506,2.275C25.193,2.291 24.845,2.308 24.454,2.33C22.347,2.447 20.608,3.906 20.127,5.96C20.038,6.342 19.96,6.682 19.891,6.987C19.611,8.212 19.471,8.827 19.228,9.248C18.985,9.668 18.523,10.097 17.602,10.951C17.372,11.165 17.116,11.402 16.831,11.67C15.293,13.114 14.898,15.349 15.85,17.232C16.027,17.582 16.186,17.892 16.329,18.171C16.902,19.289 17.19,19.85 17.274,20.328C17.359,20.806 17.28,21.432 17.124,22.678C17.085,22.989 17.042,23.336 16.995,23.725C16.745,25.82 17.879,27.785 19.819,28.616C20.179,28.77 20.501,28.906 20.789,29.027L21.042,29.134L16.428,39.043C16.341,39.229 16.307,39.436 16.33,39.64C16.352,39.845 16.43,40.039 16.555,40.202C16.68,40.365 16.848,40.491 17.039,40.566C17.231,40.641 17.439,40.661 17.642,40.626L22.734,39.736L25.331,44.206C25.435,44.383 25.585,44.529 25.765,44.628C25.946,44.726 26.15,44.774 26.355,44.764C26.561,44.755 26.759,44.689 26.93,44.575C27.101,44.461 27.237,44.302 27.324,44.115L31.915,34.253C32.652,34.032 33.098,33.92 33.473,33.92C33.959,33.92 34.562,34.106 35.762,34.477C35.901,34.52 36.048,34.565 36.203,34.612L39.493,42.255ZM43.891,35.649C43.666,35.602 43.432,35.627 43.221,35.717C43.009,35.808 42.831,35.962 42.71,36.157L40.707,39.385L38.795,34.945C40.107,34.763 41.309,34.028 42.076,32.854C42.291,32.526 42.48,32.233 42.65,31.969C43.332,30.914 43.674,30.384 44.046,30.072C44.213,29.932 44.422,29.805 44.707,29.664L47.612,36.41L43.891,35.649ZM26.193,41.212L24.285,37.928C24.169,37.729 23.995,37.57 23.787,37.473C23.578,37.376 23.345,37.345 23.119,37.385L19.377,38.038L23.03,30.192C23.357,30.516 23.694,31.038 24.295,31.969C24.486,32.265 24.677,32.56 24.869,32.854C25.818,34.305 27.429,35.087 29.094,34.981L26.193,41.212ZM33.473,31.669C32.707,31.669 31.941,31.888 30.52,32.327C30.189,32.43 29.857,32.531 29.525,32.632C28.454,32.955 27.365,32.559 26.752,31.622C26.54,31.298 26.353,31.009 26.185,30.749C24.572,28.251 24.403,28.109 21.662,26.954C21.377,26.834 21.06,26.7 20.704,26.548C19.675,26.107 19.095,25.103 19.228,23.992C19.274,23.607 19.317,23.265 19.356,22.958C19.726,20.008 19.687,19.79 18.33,17.144C18.172,16.835 18.014,16.526 17.857,16.217C17.352,15.217 17.554,14.077 18.37,13.31C18.652,13.046 18.905,12.811 19.132,12.601C21.312,10.578 21.422,10.387 22.084,7.488C22.153,7.186 22.229,6.85 22.318,6.473C22.573,5.383 23.46,4.638 24.578,4.576C24.965,4.555 25.309,4.538 25.618,4.522C28.588,4.374 28.796,4.299 31.166,2.503C31.413,2.316 31.687,2.108 31.997,1.876C32.894,1.205 34.052,1.205 34.948,1.876C35.258,2.108 35.533,2.316 35.779,2.503C38.15,4.299 38.357,4.374 41.328,4.522C41.637,4.538 41.981,4.555 42.367,4.576C43.485,4.638 44.373,5.383 44.628,6.473C44.716,6.85 44.793,7.186 44.862,7.488C45.523,10.387 45.633,10.578 47.814,12.601C48.041,12.811 48.293,13.046 48.575,13.31C49.392,14.077 49.593,15.217 49.088,16.217C48.931,16.526 48.774,16.835 48.615,17.144C47.258,19.79 47.22,20.008 47.59,22.959C47.628,23.266 47.671,23.607 47.717,23.992C47.85,25.103 47.271,26.107 46.241,26.547C45.886,26.7 45.568,26.834 45.283,26.954C42.542,28.109 42.373,28.251 40.76,30.749C40.572,31.041 40.383,31.332 40.193,31.622C39.581,32.559 38.493,32.956 37.42,32.632C37.05,32.52 36.721,32.418 36.425,32.327C35.004,31.888 34.238,31.669 33.473,31.669ZM44.638,17.058C44.638,10.902 39.629,5.893 33.473,5.893C27.316,5.893 22.308,10.902 22.308,17.058C22.308,23.215 27.316,28.223 33.473,28.223C39.629,28.223 44.638,23.215 44.638,17.058ZM33.472,25.973C28.557,25.973 24.557,21.974 24.557,17.058C24.557,12.142 28.557,8.143 33.472,8.143C38.388,8.143 42.388,12.142 42.388,17.058C42.388,21.974 38.388,25.973 33.472,25.973ZM39.651,14.405L31.969,21.377C31.762,21.565 31.493,21.669 31.213,21.669C31.065,21.669 30.919,21.64 30.782,21.584C30.646,21.527 30.522,21.444 30.418,21.34L27.255,18.177C27.149,18.073 27.065,17.948 27.008,17.812C26.95,17.675 26.921,17.528 26.92,17.38C26.92,17.232 26.949,17.085 27.005,16.948C27.062,16.81 27.145,16.686 27.25,16.581C27.355,16.476 27.479,16.393 27.616,16.336C27.753,16.28 27.9,16.251 28.049,16.252C28.197,16.252 28.344,16.282 28.481,16.339C28.617,16.397 28.741,16.48 28.846,16.586L31.251,18.991L38.139,12.74C38.361,12.544 38.651,12.443 38.946,12.459C39.242,12.475 39.519,12.607 39.717,12.826C39.916,13.045 40.021,13.334 40.008,13.629C39.996,13.925 39.868,14.204 39.651,14.405ZM61.009,51.265C62.492,49.783 63.245,47.912 63.187,45.856L62.639,26.516C62.585,24.606 60.686,22.895 58.639,22.895C58.619,22.895 58.599,22.895 58.58,22.895C57.581,22.911 54.324,23.449 54.348,29.7L54.388,40.206C54.389,40.441 54.374,40.675 54.342,40.907C54.262,40.811 54.177,40.718 54.088,40.629C52.699,39.241 50.425,39.223 48.911,40.589C48.873,40.623 48.838,40.659 48.805,40.698C47.11,42.702 45.028,44.457 43.355,45.867C42.768,46.361 42.214,46.828 41.759,47.238C39.851,48.958 39.596,51.328 39.599,53.419L39.608,60.901L38.637,60.893C37.98,60.887 37.361,61.138 36.892,61.6C36.422,62.062 36.16,62.677 36.155,63.333L36.129,66.26C36.124,66.916 36.375,67.536 36.837,68.006C37.298,68.475 37.914,68.737 38.57,68.743L53.774,68.873L53.795,68.873C54.443,68.873 55.055,68.623 55.519,68.166C55.989,67.704 56.251,67.089 56.256,66.433L56.281,63.506C56.287,62.85 56.036,62.23 55.574,61.76C55.113,61.291 54.497,61.029 53.841,61.023L52.59,61.013L52.59,59.684L61.009,51.265ZM54.031,63.487L54.006,66.414C54.006,66.484 53.971,66.533 53.942,66.562C53.923,66.582 53.899,66.598 53.874,66.608C53.848,66.619 53.821,66.624 53.793,66.624L38.589,66.493C38.519,66.492 38.47,66.458 38.441,66.429C38.412,66.399 38.379,66.35 38.379,66.279L38.404,63.353C38.405,63.282 38.44,63.233 38.469,63.205C38.498,63.176 38.546,63.143 38.616,63.143L38.618,63.143L53.822,63.273C53.878,63.275 53.931,63.298 53.97,63.338C54.009,63.377 54.031,63.431 54.031,63.487ZM41.858,60.921L41.849,53.416C41.846,51.125 42.256,49.819 43.265,48.91C43.692,48.525 44.208,48.09 44.805,47.588C46.525,46.138 48.662,44.337 50.467,42.217C51.099,41.687 51.961,41.685 52.497,42.22C53.067,42.79 53.067,43.468 52.501,44.236C51.607,45.241 50.666,46.152 49.671,47.115C49.193,47.578 48.699,48.056 48.201,48.554C48.096,48.659 48.014,48.783 47.957,48.919C47.901,49.056 47.871,49.202 47.872,49.35C47.872,49.497 47.901,49.644 47.957,49.78C48.014,49.917 48.097,50.041 48.201,50.145C48.421,50.365 48.708,50.475 48.996,50.475C49.284,50.475 49.572,50.365 49.792,50.145C50.277,49.66 50.765,49.188 51.236,48.732C52.276,47.726 53.258,46.775 54.22,45.69C54.225,45.684 54.973,44.769 54.973,44.769C56.1,43.382 56.644,41.887 56.638,40.198L56.598,29.692C56.587,26.907 57.361,25.165 58.616,25.145L58.639,25.145C59.474,25.145 60.37,25.875 60.389,26.58L60.937,45.92C60.978,47.362 60.467,48.626 59.418,49.675L50.67,58.423C50.459,58.634 50.34,58.92 50.34,59.218L50.34,60.994L41.858,60.921ZM39.487,64.497C39.53,64.384 39.595,64.281 39.678,64.194C39.761,64.107 39.86,64.037 39.971,63.988C40.081,63.94 40.2,63.913 40.32,63.911C40.441,63.909 40.561,63.931 40.673,63.976C40.785,64.02 40.887,64.086 40.973,64.171C41.059,64.255 41.128,64.356 41.175,64.467C41.221,64.578 41.246,64.697 41.246,64.818C41.247,64.938 41.223,65.058 41.177,65.169C41.085,65.39 40.911,65.566 40.691,65.659C40.47,65.752 40.223,65.754 40.001,65.666C39.779,65.578 39.6,65.405 39.504,65.187C39.408,64.968 39.402,64.72 39.487,64.497ZM27.107,61.6C26.877,61.373 26.605,61.193 26.305,61.072C26.006,60.951 25.685,60.89 25.362,60.893L24.392,60.901L24.401,53.419C24.403,51.328 24.148,48.958 22.24,47.239C21.786,46.828 21.231,46.362 20.644,45.867C18.971,44.457 16.889,42.702 15.194,40.698C15.162,40.66 15.126,40.623 15.089,40.589C13.573,39.223 11.299,39.241 9.912,40.629C9.823,40.718 9.737,40.811 9.657,40.907C9.625,40.675 9.61,40.441 9.611,40.207L9.651,29.701C9.675,23.449 6.418,22.911 5.419,22.895C5.4,22.895 5.38,22.895 5.361,22.895C3.313,22.895 1.414,24.606 1.361,26.516L0.813,45.857C0.755,47.913 1.508,49.783 2.99,51.266L11.409,59.684L11.409,61.013L10.158,61.024C9.502,61.029 8.886,61.291 8.425,61.761C7.963,62.23 7.712,62.85 7.718,63.506L7.743,66.433C7.748,67.089 8.01,67.705 8.48,68.166C8.944,68.623 9.556,68.874 10.204,68.874L10.225,68.874L25.429,68.743C26.085,68.737 26.701,68.476 27.162,68.006C27.624,67.536 27.875,66.916 27.87,66.26L27.845,63.334C27.839,62.677 27.577,62.062 27.107,61.6ZM13.659,59.218C13.659,59.07 13.63,58.924 13.573,58.788C13.517,58.651 13.434,58.527 13.329,58.423L4.581,49.674C3.532,48.626 3.021,47.362 3.062,45.92L3.61,26.579C3.63,25.869 4.547,25.133 5.383,25.145C6.639,25.165 7.412,26.907 7.401,29.692L7.361,40.198C7.355,41.887 7.899,43.382 9.028,44.771L9.75,45.656C9.755,45.662 9.774,45.684 9.78,45.69C10.742,46.775 11.724,47.726 12.763,48.732C13.235,49.188 13.722,49.66 14.207,50.145C14.312,50.25 14.436,50.333 14.572,50.389C14.709,50.446 14.855,50.475 15.003,50.475C15.15,50.475 15.297,50.446 15.433,50.389C15.57,50.333 15.694,50.25 15.798,50.145C15.903,50.041 15.985,49.917 16.042,49.78C16.099,49.644 16.128,49.497 16.128,49.35C16.128,49.202 16.099,49.056 16.042,48.919C15.986,48.783 15.903,48.659 15.798,48.554C15.3,48.056 14.806,47.578 14.328,47.115C13.333,46.152 12.392,45.241 11.498,44.236C10.932,43.469 10.932,42.79 11.503,42.22C12.039,41.685 12.9,41.687 13.532,42.217C15.338,44.337 17.474,46.138 19.195,47.588C19.791,48.091 20.307,48.525 20.734,48.91C21.743,49.819 22.154,51.125 22.151,53.417L22.142,60.921L13.659,60.994L13.659,59.218ZM25.558,66.429C25.539,66.449 25.516,66.465 25.49,66.476C25.465,66.487 25.438,66.493 25.41,66.493L10.206,66.624C10.178,66.624 10.151,66.619 10.125,66.608C10.1,66.597 10.077,66.582 10.057,66.562C10.037,66.543 10.021,66.52 10.01,66.494C9.999,66.469 9.993,66.441 9.993,66.414L9.968,63.487C9.967,63.416 10.001,63.367 10.029,63.338C10.058,63.309 10.107,63.274 10.177,63.274L25.381,63.143L25.383,63.143C25.452,63.143 25.501,63.177 25.53,63.205C25.559,63.233 25.594,63.282 25.595,63.353L25.62,66.28C25.62,66.35 25.586,66.4 25.558,66.429ZM24.512,64.497C24.557,64.608 24.58,64.727 24.579,64.847C24.578,64.967 24.553,65.085 24.506,65.196C24.459,65.306 24.391,65.406 24.305,65.49C24.219,65.573 24.117,65.639 24.006,65.684C23.894,65.728 23.775,65.75 23.655,65.748C23.535,65.746 23.417,65.721 23.307,65.673C23.197,65.625 23.098,65.556 23.014,65.469C22.931,65.383 22.866,65.281 22.822,65.169C22.735,64.945 22.74,64.696 22.836,64.476C22.931,64.256 23.11,64.082 23.334,63.994C23.557,63.905 23.806,63.908 24.027,64.002C24.248,64.097 24.422,64.274 24.512,64.497Z" clip-rule="evenodd" fill-rule="evenodd" fill="#3A8483"/>
</svg>
