<svg width="58" height="96" viewBox="0 0 58 96" fill="none" xmlns="http://www.w3.org/2000/svg" xmlns:xlink="http://www.w3.org/1999/xlink">
<path d="M49.042,21.042L44.437,21.042L44.437,14.606C46.182,14.017 47.443,12.366 47.443,10.424C47.443,8.483 46.182,6.832 44.437,6.243L44.437,1.406C44.437,1.033 44.288,0.676 44.025,0.412C43.761,0.148 43.403,0 43.03,0C42.657,0 42.3,0.148 42.036,0.412C41.772,0.676 41.624,1.033 41.624,1.406L41.624,6.243C39.879,6.832 38.618,8.483 38.618,10.424C38.618,10.989 38.726,11.528 38.92,12.024L17.081,12.024C17.28,11.514 17.382,10.972 17.382,10.424C17.382,8.483 16.121,6.832 14.376,6.243L14.376,1.406C14.376,1.033 14.228,0.676 13.964,0.412C13.7,0.148 13.343,0 12.97,0C12.597,0 12.239,0.148 11.975,0.412C11.712,0.676 11.563,1.033 11.563,1.406L11.563,6.243C9.818,6.832 8.557,8.483 8.557,10.424C8.557,12.366 9.818,14.017 11.564,14.606L11.564,21.042L6.958,21.042C6.585,21.042 6.227,21.191 5.963,21.454C5.7,21.718 5.551,22.076 5.551,22.449L5.551,73.551C5.551,73.924 5.7,74.282 5.963,74.546C6.227,74.809 6.585,74.958 6.958,74.958L11.563,74.958L11.563,94.594C11.563,94.967 11.712,95.324 11.975,95.588C12.239,95.852 12.597,96 12.97,96C13.343,96 13.7,95.852 13.964,95.588C14.228,95.324 14.376,94.967 14.376,94.594L14.376,80.97L41.624,80.97L41.624,94.594C41.624,94.967 41.772,95.324 42.036,95.588C42.299,95.852 42.657,96 43.03,96C43.403,96 43.761,95.852 44.024,95.588C44.288,95.324 44.436,94.967 44.436,94.594L44.436,74.958L49.042,74.958C49.415,74.958 49.773,74.809 50.036,74.546C50.3,74.282 50.448,73.924 50.448,73.551L50.448,22.449C50.448,22.264 50.412,22.081 50.341,21.91C50.271,21.74 50.167,21.585 50.037,21.454C49.906,21.324 49.751,21.22 49.581,21.149C49.41,21.079 49.227,21.042 49.042,21.042ZM43.03,37.576C42.657,37.576 42.3,37.724 42.036,37.987C41.772,38.251 41.624,38.609 41.624,38.982L41.624,66.133L29.406,66.133L29.406,29.867L41.624,29.867L41.624,32.97C41.624,33.343 41.772,33.7 42.036,33.964C42.3,34.228 42.657,34.376 43.03,34.376C43.403,34.376 43.761,34.228 44.025,33.964C44.288,33.7 44.436,33.343 44.436,32.97L44.436,29.867L47.636,29.867L47.636,66.133L44.436,66.133L44.436,38.982C44.436,38.609 44.288,38.251 44.025,37.987C43.761,37.724 43.403,37.576 43.03,37.576ZM14.376,66.133L14.376,29.867L26.594,29.867L26.594,66.133L14.376,66.133ZM8.364,66.133L8.364,29.867L11.563,29.867L11.563,66.133L8.364,66.133ZM41.43,10.424C41.43,9.542 42.148,8.825 43.03,8.825C43.912,8.825 44.63,9.542 44.63,10.424C44.63,11.306 43.912,12.024 43.03,12.024C42.148,12.024 41.43,11.307 41.43,10.424ZM12.97,8.825C13.852,8.825 14.57,9.542 14.57,10.424C14.57,11.306 13.852,12.024 12.97,12.024C12.088,12.024 11.37,11.306 11.37,10.424C11.37,9.542 12.088,8.825 12.97,8.825ZM14.376,14.837L41.624,14.837L41.624,21.042L14.376,21.042L14.376,14.837ZM47.636,23.855L47.636,27.055L8.364,27.055L8.364,23.855L47.636,23.855ZM23.491,72.145C23.118,72.145 22.76,72.293 22.497,72.557C22.233,72.821 22.085,73.178 22.085,73.551C22.085,73.924 22.233,74.282 22.497,74.546C22.76,74.809 23.118,74.958 23.491,74.958L41.624,74.958L41.624,78.157L14.376,78.157L14.376,74.958L17.479,74.958C17.852,74.958 18.209,74.809 18.473,74.546C18.737,74.282 18.885,73.924 18.885,73.551C18.885,73.178 18.737,72.821 18.473,72.557C18.209,72.293 17.852,72.145 17.479,72.145L8.364,72.145L8.364,68.946L47.636,68.946L47.636,72.145L23.491,72.145ZM0.946,0C0.573,0 0.215,0.148 -0.049,0.412C-0.312,0.676 -0.461,1.033 -0.461,1.406L-0.461,94.594C-0.461,94.967 -0.312,95.324 -0.049,95.588C0.215,95.852 0.573,96 0.946,96C1.319,96 1.676,95.852 1.94,95.588C2.204,95.324 2.352,94.967 2.352,94.594L2.352,1.406C2.352,1.033 2.204,0.676 1.94,0.412C1.676,0.148 1.319,0 0.946,0ZM55.054,0C54.681,0 54.324,0.148 54.06,0.412C53.796,0.676 53.648,1.033 53.648,1.406L53.648,94.594C53.648,94.967 53.796,95.324 54.06,95.588C54.324,95.852 54.681,96 55.054,96C55.427,96 55.785,95.852 56.049,95.588C56.312,95.324 56.461,94.967 56.461,94.594L56.461,1.406C56.461,1.033 56.312,0.676 56.049,0.412C55.785,0.148 55.427,0 55.054,0Z" fill="#FFFFFF"/>
</svg>
