<svg width="74" height="74" viewBox="0 0 74 74" fill="none" xmlns="http://www.w3.org/2000/svg" xmlns:xlink="http://www.w3.org/1999/xlink">
<path d="M26.39,5.576L26.39,1.978C26.419,0.477 28.657,0.477 28.671,1.978L28.671,5.576C28.657,7.078 26.419,7.078 26.39,5.576ZM4.845,27.121L1.247,27.121C-0.254,27.15 -0.254,29.388 1.247,29.402L4.845,29.402C5.483,29.402 5.993,28.892 5.993,28.254C5.993,27.631 5.483,27.121 4.845,27.121ZM44.38,13.027L46.916,10.491C47.964,9.415 46.377,7.828 45.301,8.877L42.765,11.412C41.717,12.489 43.303,14.075 44.38,13.027ZM10.681,13.027C11.758,14.075 13.344,12.489 12.296,11.412L9.76,8.877C8.684,7.828 7.097,9.415 8.146,10.491L10.681,13.027ZM72.342,10.562L62.299,43.071C62.129,43.638 61.548,43.964 60.982,43.85L53.97,42.462L46.221,49.814C45.343,53.001 45.966,55.409 48.162,57.236C49.04,58.072 50.032,59.021 49.961,60.565C49.904,61.868 49.196,62.676 48.672,63.257C47.057,64.73 48.828,65.764 50.315,66.77C51.505,67.549 52.737,68.356 52.468,69.673C52.171,71.203 50.514,71.26 47.992,71.359C45.839,71.444 42.893,71.543 39.224,72.365C36.617,72.974 34.082,73.71 31.376,72.946C29.903,72.563 27.58,71.727 26.716,70.169L24.96,70.169C22.736,70.169 20.923,68.356 20.923,66.132L20.923,64.376L19.974,64.376C16.39,64.418 14.577,59.871 17.169,57.449C15.157,55.65 15.738,51.939 18.288,50.905C18.203,47.717 16.829,44.7 14.35,42.391C2.097,31.003 9.675,10.222 26.291,9.146C35.045,8.593 43.02,14.033 45.768,22.22C53.531,18.197 62.993,13.254 70.713,9.231C71.591,8.735 72.668,9.642 72.342,10.562ZM20.583,50.508L34.493,50.508C34.663,47.179 35.952,44.063 38.105,41.726C37.807,41.329 36.263,39.289 35.994,38.935L19.775,35.748C27.552,31.711 35.966,27.32 43.743,23.268C37.737,5.307 11.899,8.664 10.582,27.575C10.37,32.532 12.31,37.32 15.922,40.706C18.755,43.369 20.398,46.839 20.583,50.508ZM18.217,54.545C18.217,55.508 19.01,56.301 19.974,56.301L35.073,56.301C37.397,56.273 37.368,52.845 35.073,52.803L19.974,52.803C19.039,52.774 18.203,53.61 18.217,54.545ZM35.073,62.095C37.382,62.038 37.382,58.653 35.073,58.596L19.974,58.596C17.665,58.667 17.679,62.038 19.988,62.095L35.073,62.095ZM30.087,67.889C31.051,67.889 31.844,67.095 31.844,66.132L31.844,64.376L23.217,64.376L23.217,66.132C23.217,67.095 23.996,67.889 24.974,67.889L30.087,67.889ZM43.955,49.474L39.507,43.595C37.822,45.564 36.844,48.157 36.759,50.905C39.238,51.939 39.932,55.622 37.878,57.463C40.47,59.885 38.657,64.446 35.073,64.39L34.124,64.39L34.124,66.146C34.124,68.314 32.41,70.07 30.257,70.169C32.935,71.529 35.881,70.906 38.728,70.155C43.587,69.107 46.193,69.22 49.536,69.022C46.746,67.407 44.083,64.815 46.958,61.769C48.006,60.579 47.95,60.169 46.59,58.908C43.969,56.741 42.907,53.256 43.955,49.474ZM54.494,27.305L54.211,27.504L38.289,38.184L38.586,38.581L41.165,41.995L44.578,46.513L45.91,39.742C48.148,36.031 52.114,30.861 54.494,27.305ZM51.222,41.938C50.981,41.896 48.049,41.315 47.921,41.286L47.015,45.933L51.222,41.938ZM69.353,12.503C64.424,15.067 56.321,19.288 51.293,21.908C43.247,26.101 34.677,30.549 26.617,34.756L36.405,36.683L58.319,21.993C58.63,21.809 59.027,21.753 59.367,21.894C60.047,22.121 60.33,23.013 59.905,23.594C56.25,28.779 52.61,33.977 48.97,39.162L49.182,39.204L60.429,41.414L69.353,12.503ZM10.681,43.496L8.146,46.032C7.423,46.712 7.976,48.015 8.953,47.987C9.251,47.987 9.534,47.873 9.76,47.647L12.296,45.111C12.749,44.658 12.749,43.935 12.296,43.496C11.857,43.057 11.134,43.057 10.681,43.496Z" fill="#3A8483"/>
</svg>
