<svg width="96" height="80" viewBox="0 0 96 80" fill="none" xmlns="http://www.w3.org/2000/svg" xmlns:xlink="http://www.w3.org/1999/xlink">
<path d="M80.454,30.577C79.369,30.577 78.262,30.444 77.199,30.223L77.199,54.14C79.303,53.586 81.606,53.586 83.709,54.14L83.709,30.223C82.646,30.444 81.561,30.577 80.454,30.577ZM14.195,76.75L14.195,68.999C14.195,68.091 14.948,67.715 15.723,67.715L15.723,50.22C8.238,51.527 2.591,56.908 2.591,63.33L2.591,76.75L8.061,76.75L8.061,65.301C8.061,63.64 10.608,63.64 10.608,65.301L10.608,76.75L14.195,76.75ZM18.292,67.715L19.51,67.715L19.51,49.91L18.292,49.932L18.292,67.715ZM22.057,67.715L44.158,67.715L44.158,49.91L41.655,49.91L34.259,64.969C33.794,65.899 32.421,65.899 31.956,64.969L24.559,49.91L22.057,49.91L22.057,67.715ZM46.705,67.715L47.923,67.715L47.923,49.932L46.705,49.91L46.705,67.715ZM50.469,67.715C51.267,67.715 52.019,68.091 52.019,68.999L52.019,76.75L55.585,76.75L55.585,65.301C55.585,63.64 58.154,63.64 58.154,65.301L58.154,76.75L63.601,76.75L63.601,63.33C63.601,56.908 57.977,51.527 50.469,50.22L50.469,67.715ZM49.473,76.75L49.473,70.284L16.742,70.284L16.742,76.75L49.473,76.75ZM49.096,24.244L47.989,24.244L47.989,32.149C47.989,37.398 45.243,42.026 41.124,44.684L41.833,47.341C44.313,47.341 46.815,47.23 49.296,47.474C58.796,48.448 66.148,55.181 66.148,63.33L66.148,78.035C66.148,78.743 65.595,79.319 64.886,79.319L1.329,79.319C0.62,79.319 0.044,78.743 0.044,78.035L0.044,63.33C0.044,53.918 9.434,47.408 19.289,47.341L24.36,47.341L25.091,44.684C20.95,42.026 18.226,37.398 18.226,32.149L18.226,24.244L17.118,24.244C13.088,24.244 12.091,18.707 15.679,17.179C16.321,7.9 24.072,0.703 33.107,0.703C42.121,0.703 49.871,7.9 50.536,17.179C54.101,18.707 53.105,24.244 49.096,24.244ZM17.008,19.46C15.635,19.593 15.723,21.697 17.118,21.697L49.096,21.697C50.602,21.697 50.447,19.438 49.096,19.438L17.096,19.438L17.008,19.46ZM37.381,16.891L37.381,3.892C34.658,3.05 31.535,3.05 28.833,3.892L28.833,16.891L37.381,16.891ZM39.928,4.955L39.928,16.891L47.945,16.891C47.413,11.709 44.291,7.28 39.928,4.955ZM26.264,16.891L26.264,4.955C21.924,7.28 18.801,11.709 18.27,16.891L26.264,16.891ZM33.107,47.031C31.092,47.031 29.166,46.632 27.394,45.902L26.707,48.493L33.107,61.514L39.507,48.493L38.799,45.902C37.049,46.632 35.123,47.031 33.107,47.031ZM20.772,24.244L20.772,32.149C20.772,39.037 26.419,44.484 33.107,44.484C39.773,44.484 45.42,39.037 45.42,32.149L45.42,24.244L20.772,24.244ZM80.454,74.469C79.723,74.469 75.006,71.524 74.054,70.97C73.655,70.727 73.412,70.306 73.412,69.863L73.412,63.175C73.412,62.732 73.655,62.311 74.054,62.068L79.812,58.746C80.21,58.524 80.698,58.524 81.096,58.746L86.876,62.068C87.275,62.311 87.518,62.732 87.518,63.175L87.518,69.863C87.518,70.306 87.275,70.727 86.876,70.97C85.902,71.524 81.185,74.469 80.454,74.469ZM75.959,69.11L80.454,71.723L84.95,69.11L84.95,63.928L80.454,61.337L75.959,63.928L75.959,69.11ZM80.454,48.847C79.745,48.847 79.192,48.271 79.192,47.585L79.192,36.911C79.192,35.272 81.739,35.272 81.739,36.911L81.739,47.585C81.739,48.271 81.163,48.847 80.454,48.847ZM80.454,79.319C73.412,79.319 67.676,73.561 67.676,66.519C67.676,61.558 70.511,57.262 74.652,55.136L74.652,29.426C62.007,24.288 61.653,6.195 74.431,0.792C75.272,0.437 76.224,1.08 76.224,1.965L76.224,13.791L84.706,13.791L84.706,1.965C84.706,1.057 85.658,0.437 86.478,0.792C99.278,6.173 98.901,24.31 86.278,29.426L86.278,55.136C90.419,57.262 93.254,61.558 93.254,66.519C93.254,73.561 87.518,79.319 80.454,79.319ZM78.151,56.554C73.611,57.594 70.223,61.669 70.223,66.519C70.223,72.166 74.807,76.75 80.454,76.75C86.101,76.75 90.685,72.166 90.685,66.519C90.685,59.831 84.352,55.114 78.151,56.554ZM78.372,27.831C85.968,29.071 93.409,23.181 93.409,15.075C93.409,10.536 91.04,6.394 87.253,4.047L87.253,15.075C87.253,15.784 86.677,16.36 85.99,16.36L74.94,16.36C74.231,16.36 73.655,15.784 73.655,15.075L73.655,4.047C63.535,10.292 66.613,25.882 78.372,27.831Z" clip-rule="evenodd" fill-rule="evenodd" fill="#FFFFFF"/>
</svg>
