<svg width="16" height="30" viewBox="0 0 16 30" fill="none" xmlns="http://www.w3.org/2000/svg" xmlns:xlink="http://www.w3.org/1999/xlink">
<path d="M12.8,9.76L3.62,0.58C3.245,0.207 2.738,-0.002 2.21,-0.002C1.681,-0.002 1.174,0.207 0.8,0.58C0.612,0.766 0.463,0.987 0.362,1.231C0.26,1.475 0.208,1.736 0.208,2C0.208,2.264 0.26,2.525 0.362,2.769C0.463,3.013 0.612,3.234 0.8,3.42L10,12.58C10.187,12.766 10.336,12.987 10.437,13.231C10.539,13.475 10.591,13.736 10.591,14C10.591,14.264 10.539,14.525 10.437,14.769C10.336,15.013 10.187,15.234 10,15.42L0.8,24.58C0.423,24.954 0.21,25.462 0.208,25.993C0.207,26.524 0.416,27.033 0.79,27.41C1.164,27.787 1.672,27.999 2.203,28.001C2.733,28.003 3.243,27.794 3.62,27.42L12.8,18.24C13.923,17.115 14.554,15.59 14.554,14C14.554,12.41 13.923,10.885 12.8,9.76Z" fill="#969696"/>
</svg>
