<svg width="14" height="30" viewBox="0 0 14 30" fill="none" xmlns="http://www.w3.org/2000/svg" xmlns:xlink="http://www.w3.org/1999/xlink">
<path d="M12.037,9.76L2.857,0.58C2.483,0.207 1.976,-0.002 1.447,-0.002C0.919,-0.002 0.412,0.207 0.037,0.58C-0.15,0.766 -0.299,0.987 -0.401,1.231C-0.502,1.475 -0.554,1.736 -0.554,2C-0.554,2.264 -0.502,2.525 -0.401,2.769C-0.299,3.013 -0.15,3.234 0.037,3.42L9.237,12.58C9.425,12.766 9.574,12.987 9.675,13.231C9.777,13.475 9.829,13.736 9.829,14C9.829,14.264 9.777,14.525 9.675,14.769C9.574,15.013 9.425,15.234 9.237,15.42L0.037,24.58C-0.339,24.954 -0.552,25.462 -0.554,25.993C-0.556,26.524 -0.347,27.033 0.027,27.41C0.401,27.787 0.909,27.999 1.44,28.001C1.971,28.003 2.481,27.794 2.857,27.42L12.037,18.24C13.161,17.115 13.792,15.59 13.792,14C13.792,12.41 13.161,10.885 12.037,9.76Z" transform="rotate(360 6.619 14)" fill="#969696" fill-opacity="0.2"/>
</svg>
