<svg width="242" height="154" viewBox="0 0 242 154" fill="none" xmlns="http://www.w3.org/2000/svg" xmlns:xlink="http://www.w3.org/1999/xlink">
<path d="M111.196,48.28L109.798,47.736L111.196,48.28ZM116.901,49.798L115.768,50.782L116.901,49.798ZM1.879,87.677C2.651,85.705 3.481,83.699 4.368,81.676L1.62,80.472C0.717,82.532 -0.128,84.574 -0.915,86.584L1.879,87.677ZM10.062,69.958C12.094,66.169 14.307,62.407 16.692,58.759L14.181,57.118C11.745,60.844 9.488,64.681 7.418,68.54L10.062,69.958ZM24.331,48.26C27.102,44.855 30.035,41.661 33.12,38.766L31.066,36.579C27.872,39.577 24.848,42.872 22.004,46.367L24.331,48.26ZM43.213,30.807C46.877,28.448 50.697,26.552 54.658,25.221L53.703,22.377C49.478,23.797 45.435,25.809 41.589,28.284L43.213,30.807ZM67.094,23.027C71.131,22.949 75.306,23.479 79.612,24.72L80.443,21.837C75.855,20.515 71.381,19.944 67.037,20.028L67.094,23.027ZM91.353,29.765C94.793,31.728 98.309,34.157 101.894,37.101L103.798,34.782C100.095,31.742 96.441,29.214 92.839,27.159L91.353,29.765ZM111.371,45.949C112.827,47.473 114.293,49.083 115.768,50.782L118.033,48.814C116.528,47.082 115.03,45.437 113.54,43.877L111.371,45.949ZM115.768,50.782C117.434,52.699 119.046,54.7 120.601,56.774L123.001,54.974C121.405,52.845 119.747,50.788 118.033,48.814L115.768,50.782ZM129.019,69.689C131.532,74.133 133.805,78.775 135.809,83.549L138.575,82.388C136.526,77.508 134.202,72.76 131.63,68.212L129.019,69.689ZM140.96,98.103C142.405,103.078 143.552,108.115 144.375,113.148L147.335,112.665C146.493,107.508 145.318,102.353 143.841,97.266L140.96,98.103ZM145.852,128.482C145.921,131.07 145.894,133.636 145.767,136.173L148.763,136.322C148.894,133.707 148.921,131.063 148.85,128.402L145.852,128.482ZM145.767,136.173C145.642,138.69 145.398,140.839 145.057,142.648L148.005,143.203C148.377,141.231 148.633,138.942 148.763,136.322L145.767,136.173ZM139.171,150.112C138.019,149.811 136.634,149.014 135.064,147.638C133.507,146.275 131.848,144.413 130.142,142.108L127.73,143.893C129.521,146.312 131.323,148.349 133.087,149.895C134.838,151.428 136.633,152.55 138.413,153.014L139.171,150.112ZM123.377,130.986C121.502,127.339 119.69,123.31 118.014,119.013L115.219,120.103C116.93,124.489 118.784,128.612 120.709,132.357L123.377,130.986ZM113.798,106.572C112.593,102.414 111.551,98.134 110.723,93.809L107.776,94.374C108.623,98.795 109.687,103.166 110.917,107.407L113.798,106.572ZM108.934,80.829C108.576,76.41 108.493,72.034 108.738,67.785L105.743,67.612C105.489,72.016 105.576,76.532 105.944,81.071L108.934,80.829ZM110.643,54.956C111.179,52.842 111.827,50.795 112.594,48.824L109.798,47.736C108.983,49.829 108.299,51.995 107.735,54.219L110.643,54.956ZM112.594,48.824C113.443,46.641 114.341,44.51 115.286,42.435L112.555,41.192C111.586,43.319 110.667,45.503 109.798,47.736L112.594,48.824ZM121.799,30.266C124.332,26.238 127.089,22.561 130.061,19.299L127.844,17.279C124.738,20.686 121.876,24.508 119.259,28.669L121.799,30.266ZM140.318,10.344C144.126,7.783 148.192,5.819 152.508,4.536L151.653,1.661C147.025,3.036 142.686,5.137 138.644,7.854L140.318,10.344ZM165.873,2.804C170.126,2.917 174.594,3.627 179.273,5.01L180.123,2.133C175.213,0.682 170.487,-0.075 165.953,-0.195L165.873,2.804ZM191.949,10.187C195.759,12.155 199.687,14.544 203.73,17.383L205.454,14.927C201.31,12.018 197.268,9.558 193.327,7.522L191.949,10.187ZM214.646,25.923C217.964,28.78 221.35,31.927 224.804,35.38L226.926,33.259C223.424,29.757 219.982,26.558 216.604,23.649L214.646,25.923ZM234.356,45.529C235.876,47.238 237.406,49.004 238.95,50.829L241.24,48.891C239.682,47.048 238.134,45.263 236.596,43.535L234.356,45.529Z" transform="rotate(306.853 120.289 79.756)" fill="#000000" fill-opacity="0.75"/>
</svg>
