<svg width="48" height="50" viewBox="0 0 48 50" fill="none" xmlns="http://www.w3.org/2000/svg" xmlns:xlink="http://www.w3.org/1999/xlink">
<path d="M40.528,7.551C36.064,3.08 30.117,0.617 23.788,0.61C10.749,0.61 0.129,11.223 0.129,24.269C0.129,28.438 1.216,32.513 3.29,36.099L-0.065,48.361L12.477,45.07C15.933,46.957 19.821,47.95 23.781,47.95L23.788,47.95C36.827,47.95 47.44,37.337 47.447,24.291C47.455,17.969 44.999,12.022 40.528,7.551ZM23.795,43.954L23.788,43.954C20.26,43.954 16.797,43.004 13.78,41.211L13.06,40.786L5.615,42.737L7.603,35.48L7.135,34.738C5.169,31.606 4.125,27.992 4.125,24.269C4.132,13.426 12.952,4.606 23.803,4.606C29.059,4.606 33.991,6.658 37.706,10.373C41.421,14.089 43.466,19.035 43.459,24.284C43.459,35.134 34.631,43.954 23.795,43.954ZM34.581,29.223C33.991,28.928 31.082,27.495 30.542,27.301C30.002,27.106 29.606,27.005 29.21,27.596C28.814,28.186 27.683,29.518 27.338,29.914C26.992,30.31 26.647,30.361 26.056,30.065C25.466,29.77 23.558,29.144 21.304,27.128C19.547,25.558 18.359,23.621 18.014,23.031C17.668,22.441 17.978,22.117 18.273,21.821C18.539,21.555 18.863,21.13 19.159,20.785C19.454,20.439 19.555,20.194 19.749,19.798C19.943,19.402 19.85,19.057 19.699,18.761C19.547,18.466 18.367,15.557 17.877,14.369C17.395,13.217 16.912,13.376 16.545,13.354C16.199,13.34 15.803,13.333 15.415,13.333C15.019,13.333 14.378,13.484 13.838,14.074C13.298,14.665 11.771,16.097 11.771,19.006C11.771,21.915 13.888,24.73 14.183,25.119C14.479,25.515 18.352,31.484 24.285,34.047C25.696,34.659 26.798,35.019 27.655,35.293C29.073,35.746 30.362,35.681 31.377,35.53C32.515,35.357 34.876,34.097 35.366,32.722C35.855,31.34 35.855,30.159 35.711,29.914C35.567,29.669 35.171,29.525 34.581,29.223Z" clip-rule="evenodd" fill-rule="evenodd" fill="#FFFFFF"/>
</svg>
