<svg width="926" height="206" viewBox="0 0 926 206" fill="none" xmlns="http://www.w3.org/2000/svg" xmlns:xlink="http://www.w3.org/1999/xlink">
<path d="M28.336,53.043L25.436,47.589L25.403,47.607L25.369,47.626L28.336,53.043ZM156.245,6.898L155.691,0.747L155.691,0.747L156.245,6.898ZM309.429,57.656L313.035,52.642L313.035,52.642L309.429,57.656ZM462.613,177.63L459.679,183.066L459.679,183.066L462.613,177.63ZM896.889,113.029L899.007,107.227L898.981,107.217L898.953,107.207L896.889,113.029ZM6.028,72.303L31.303,58.461L25.369,47.626L0.094,61.468L6.028,72.303ZM31.235,58.497C57.508,44.53 106.943,17.534 156.798,13.05L155.691,0.747C102.912,5.493 51.247,33.868 25.436,47.589L31.235,58.497ZM156.798,13.05C206.149,8.613 255.243,26.287 305.821,62.67L313.035,52.642C260.981,15.196 208.973,-4.044 155.691,0.747L156.798,13.05ZM305.821,62.67C331.193,80.922 356.343,103.71 381.991,125.786C407.451,147.697 433.369,168.871 459.679,183.066L465.545,172.194C440.541,158.704 415.525,138.348 390.051,116.423C364.765,94.661 338.981,71.306 313.035,52.642L305.821,62.67ZM459.679,183.066C512.795,211.724 565.373,211.688 618.329,187.878L613.263,176.611C563.587,198.946 515.063,198.91 465.545,172.194L459.679,183.066ZM618.329,187.878C644.509,176.108 670.503,158.448 695.697,142.471C721.195,126.301 745.943,111.798 770.589,105.149L767.371,93.222C740.701,100.417 714.517,115.907 689.081,132.038C663.341,148.361 638.401,165.309 613.263,176.611L618.329,187.878ZM770.589,105.149C819.793,91.876 868.571,109.546 894.825,118.851L898.953,107.207C873.125,98.054 820.801,78.809 767.371,93.222L770.589,105.149ZM894.771,118.831L920.047,128.06L924.283,116.456L899.007,107.227L894.771,118.831Z" fill="url(#ps_0_43_1058)"/>
<defs>
<linearGradient id="ps_0_43_1058" x1="462.612" y1="6.202" x2="462.612" y2="260.69" gradientUnits="userSpaceOnUse">
<stop offset="0.182" stop-color="#3A8483" stop-opacity="0.05"/>
<stop offset="0.844" stop-color="#FFFFFF" stop-opacity="0.05"/>
</linearGradient>
</defs>
</svg>
