<svg width="12" height="20" viewBox="0 0 12 20" fill="none" xmlns="http://www.w3.org/2000/svg" xmlns:xlink="http://www.w3.org/1999/xlink">
<path d="M10.526,7.651L3.739,-0.436C3.59,-0.615 3.413,-0.756 3.218,-0.853C3.023,-0.95 2.813,-1 2.602,-1C2.391,-1 2.182,-0.95 1.986,-0.853C1.791,-0.756 1.614,-0.615 1.466,-0.436C1.167,-0.078 1,0.405 1,0.909C1,1.413 1.167,1.896 1.466,2.254L7.133,9.006L1.466,15.758C1.167,16.115 1,16.598 1,17.102C1,17.606 1.167,18.089 1.466,18.447C1.615,18.624 1.793,18.763 1.988,18.858C2.183,18.953 2.391,19.001 2.602,19C2.813,19.001 3.022,18.953 3.217,18.858C3.412,18.763 3.589,18.624 3.739,18.447L10.526,10.36C10.677,10.182 10.796,9.971 10.877,9.739C10.958,9.507 11,9.257 11,9.006C11,8.754 10.958,8.504 10.877,8.272C10.796,8.04 10.677,7.829 10.526,7.651L10.526,7.651Z" transform="rotate(180 6 9)" fill="#161616"/>
</svg>
